<svg width="147" height="147" viewBox="0 0 147 147" fill="none" xmlns="http://www.w3.org/2000/svg">
<path d="M2.92893 129.929C-0.976311 133.834 -0.976311 140.166 2.92893 144.071C6.83418 147.976 13.1658 147.976 17.0711 144.071L2.92893 129.929ZM147 9.99999C147 4.47715 142.523 2.21744e-07 137 -1.05678e-05L47 -5.17305e-06C41.4772 -5.17305e-06 37 4.47715 37 9.99999C37 15.5228 41.4772 20 47 20H127V100C127 105.523 131.477 110 137 110C142.523 110 147 105.523 147 100L147 9.99999ZM17.0711 144.071L144.071 17.0711L129.929 2.92893L2.92893 129.929L17.0711 144.071Z" fill="#4B5563"/>
</svg>
