<svg width="62" height="62" viewBox="0 0 62 62" fill="none" xmlns="http://www.w3.org/2000/svg">
<path d="M2.18334 52.1833C0.0754495 54.2912 0.0754495 57.7088 2.18334 59.8167C4.29122 61.9246 7.70878 61.9246 9.81666 59.8167L2.18334 52.1833ZM61.3976 6C61.3976 3.019 58.981 0.602422 56 0.602422L7.42179 0.602422C4.44079 0.602422 2.02421 3.019 2.02421 6C2.02421 8.981 4.44079 11.3976 7.42179 11.3976H50.6024V54.5782C50.6024 57.5592 53.019 59.9758 56 59.9758C58.981 59.9758 61.3976 57.5592 61.3976 54.5782L61.3976 6ZM9.81666 59.8167L59.8167 9.81667L52.1833 2.18334L2.18334 52.1833L9.81666 59.8167Z" fill="#9CA3AF"/>
</svg>
