<svg width="227" height="118" viewBox="0 0 227 118" fill="none" xmlns="http://www.w3.org/2000/svg">
<path d="M8 51C3.58172 51 3.86258e-07 54.5817 0 59C-3.86258e-07 63.4183 3.58172 67 8 67L8 51ZM224.657 64.6569C227.781 61.5327 227.781 56.4674 224.657 53.3432L173.745 2.43147C170.621 -0.692723 165.556 -0.692723 162.431 2.43147C159.307 5.55567 159.307 10.621 162.431 13.7452L207.686 59L162.431 104.255C159.307 107.379 159.307 112.444 162.431 115.569C165.556 118.693 170.621 118.693 173.745 115.569L224.657 64.6569ZM8 67L219 67L219 51L8 51L8 67Z" fill="#E5E7EB"/>
</svg>
