<svg width="232" height="190" viewBox="0 0 232 190" fill="none" xmlns="http://www.w3.org/2000/svg">
<circle cx="10.437" cy="190.749" r="82.125" transform="rotate(-15 10.437 190.749)" stroke="black" stroke-opacity="0.05" stroke-width="0.75"/>
<circle cx="10.4364" cy="190.749" r="71.125" transform="rotate(-15 10.4364 190.749)" stroke="black" stroke-opacity="0.05" stroke-width="0.75"/>
<circle cx="10.4369" cy="190.749" r="60.125" transform="rotate(-15 10.4369 190.749)" stroke="black" stroke-opacity="0.05" stroke-width="0.75"/>
<circle cx="10.4369" cy="190.749" r="96.125" transform="rotate(-15 10.4369 190.749)" stroke="black" stroke-opacity="0.05" stroke-width="0.75"/>
<circle cx="10.4366" cy="190.749" r="108.125" transform="rotate(-15 10.4366 190.749)" stroke="black" stroke-opacity="0.05" stroke-width="0.75"/>
<circle cx="10.4361" cy="190.749" r="119.125" transform="rotate(-15 10.4361 190.749)" stroke="black" stroke-opacity="0.05" stroke-width="0.75"/>
<circle cx="10.4366" cy="190.749" r="130.125" transform="rotate(-15 10.4366 190.749)" stroke="black" stroke-opacity="0.05" stroke-width="0.75"/>
<circle cx="10.4363" cy="190.749" r="142.125" transform="rotate(-15 10.4363 190.749)" stroke="black" stroke-opacity="0.05" stroke-width="0.75"/>
<circle cx="10.4368" cy="190.749" r="153.125" transform="rotate(-15 10.4368 190.749)" stroke="black" stroke-opacity="0.05" stroke-width="0.75"/>
<circle cx="10.4363" cy="190.749" r="164.125" transform="rotate(-15 10.4363 190.749)" stroke="black" stroke-opacity="0.05" stroke-width="0.75"/>
<circle cx="9.43616" cy="191.749" r="177.125" transform="rotate(-15 9.43616 191.749)" stroke="black" stroke-opacity="0.05" stroke-width="0.75"/>
<circle cx="8.43694" cy="192.749" r="190.125" transform="rotate(-15 8.43694 192.749)" stroke="black" stroke-opacity="0.05" stroke-width="0.75"/>
<circle cx="8.43675" cy="192.749" r="203.125" transform="rotate(-15 8.43675 192.749)" stroke="black" stroke-opacity="0.05" stroke-width="0.75"/>
<circle cx="7.43669" cy="193.749" r="217.125" transform="rotate(-15 7.43669 193.749)" stroke="black" stroke-opacity="0.05" stroke-width="0.75"/>
<circle cx="5.43677" cy="193.749" r="232.125" transform="rotate(-15 5.43677 193.749)" stroke="black" stroke-opacity="0.05" stroke-width="0.75"/>
<circle cx="4.43685" cy="194.749" r="247.125" transform="rotate(-15 4.43685 194.749)" stroke="black" stroke-opacity="0.05" stroke-width="0.75"/>
<circle cx="3.4368" cy="195.749" r="261.125" transform="rotate(-15 3.4368 195.749)" stroke="black" stroke-opacity="0.05" stroke-width="0.75"/>
<circle cx="0.436875" cy="199.749" r="276.125" transform="rotate(-15 0.436875 199.749)" stroke="black" stroke-opacity="0.05" stroke-width="0.75"/>
<circle cx="-3.56332" cy="197.749" r="289.125" transform="rotate(-15 -3.56332 197.749)" stroke="black" stroke-opacity="0.05" stroke-width="0.75"/>
<circle cx="-6.56324" cy="199.749" r="304.125" transform="rotate(-15 -6.56324 199.749)" stroke="black" stroke-opacity="0.05" stroke-width="0.75"/>
<circle cx="10.436" cy="190.749" r="320.125" transform="rotate(-15 10.436 190.749)" stroke="black" stroke-opacity="0.05" stroke-width="0.75"/>
<circle cx="10.4362" cy="190.749" r="336.125" transform="rotate(-15 10.4362 190.749)" stroke="black" stroke-opacity="0.05" stroke-width="0.75"/>
<circle cx="10.4366" cy="190.749" r="353.125" transform="rotate(-15 10.4366 190.749)" stroke="black" stroke-opacity="0.05" stroke-width="0.75"/>
<circle cx="10.4369" cy="190.749" r="370.125" transform="rotate(-15 10.4369 190.749)" stroke="black" stroke-opacity="0.05" stroke-width="0.75"/>
<circle cx="10.436" cy="190.749" r="385.125" transform="rotate(-15 10.436 190.749)" stroke="black" stroke-opacity="0.05" stroke-width="0.75"/>
<circle cx="10.4364" cy="190.749" r="402.125" transform="rotate(-15 10.4364 190.749)" stroke="black" stroke-opacity="0.05" stroke-width="0.75"/>
<circle cx="10.4366" cy="190.749" r="418.125" transform="rotate(-15 10.4366 190.749)" stroke="black" stroke-opacity="0.05" stroke-width="0.75"/>
<circle cx="10.4365" cy="190.749" r="432.125" transform="rotate(-15 10.4365 190.749)" stroke="black" stroke-opacity="0.05" stroke-width="0.75"/>
<circle cx="10.4363" cy="190.749" r="445.125" transform="rotate(-15 10.4363 190.749)" stroke="black" stroke-opacity="0.05" stroke-width="0.75"/>
<circle cx="10.4363" cy="190.749" r="459.125" transform="rotate(-15 10.4363 190.749)" stroke="black" stroke-opacity="0.05" stroke-width="0.75"/>
<circle cx="10.4362" cy="190.749" r="473.125" transform="rotate(-15 10.4362 190.749)" stroke="black" stroke-opacity="0.05" stroke-width="0.75"/>
<circle cx="10.4362" cy="190.749" r="487.125" transform="rotate(-15 10.4362 190.749)" stroke="black" stroke-opacity="0.05" stroke-width="0.75"/>
<circle cx="10.4362" cy="190.749" r="502.125" transform="rotate(-15 10.4362 190.749)" stroke="black" stroke-opacity="0.05" stroke-width="0.75"/>
<circle cx="10.4363" cy="190.749" r="517.125" transform="rotate(-15 10.4363 190.749)" stroke="black" stroke-opacity="0.05" stroke-width="0.75"/>
<circle cx="10.4363" cy="190.749" r="531.125" transform="rotate(-15 10.4363 190.749)" stroke="black" stroke-opacity="0.05" stroke-width="0.75"/>
<circle cx="10.4363" cy="190.749" r="546.125" transform="rotate(-15 10.4363 190.749)" stroke="black" stroke-opacity="0.05" stroke-width="0.75"/>
<circle cx="10.4366" cy="190.749" r="562.125" transform="rotate(-15 10.4366 190.749)" stroke="black" stroke-opacity="0.05" stroke-width="0.75"/>
<circle cx="10.4368" cy="190.749" r="578.125" transform="rotate(-15 10.4368 190.749)" stroke="black" stroke-opacity="0.05" stroke-width="0.75"/>
<circle cx="10.436" cy="190.749" r="594.125" transform="rotate(-15 10.436 190.749)" stroke="black" stroke-opacity="0.05" stroke-width="0.75"/>
<circle cx="10.4364" cy="190.749" r="611.125" transform="rotate(-15 10.4364 190.749)" stroke="black" stroke-opacity="0.05" stroke-width="0.75"/>
<circle cx="10.4367" cy="190.749" r="628.125" transform="rotate(-15 10.4367 190.749)" stroke="black" stroke-opacity="0.05" stroke-width="0.75"/>
<circle cx="10.4361" cy="190.749" r="645.125" transform="rotate(-15 10.4361 190.749)" stroke="black" stroke-opacity="0.05" stroke-width="0.75"/>
<circle cx="10.4364" cy="190.749" r="662.125" transform="rotate(-15 10.4364 190.749)" stroke="black" stroke-opacity="0.05" stroke-width="0.75"/>
<circle cx="10.4367" cy="190.749" r="678.125" transform="rotate(-15 10.4367 190.749)" stroke="black" stroke-opacity="0.05" stroke-width="0.75"/>
<circle cx="10.4367" cy="190.749" r="693.125" transform="rotate(-15 10.4367 190.749)" stroke="black" stroke-opacity="0.05" stroke-width="0.75"/>
<circle cx="10.4369" cy="190.749" r="709.125" transform="rotate(-15 10.4369 190.749)" stroke="black" stroke-opacity="0.05" stroke-width="0.75"/>
<circle cx="10.4365" cy="190.749" r="727.125" transform="rotate(-15 10.4365 190.749)" stroke="black" stroke-opacity="0.05" stroke-width="0.75"/>
<circle cx="10.4364" cy="190.749" r="748.125" transform="rotate(-15 10.4364 190.749)" stroke="black" stroke-opacity="0.05" stroke-width="0.75"/>
<circle cx="10.4366" cy="190.749" r="771.125" transform="rotate(-15 10.4366 190.749)" stroke="black" stroke-opacity="0.05" stroke-width="0.75"/>
<circle cx="10.4365" cy="190.749" r="792.125" transform="rotate(-15 10.4365 190.749)" stroke="black" stroke-opacity="0.05" stroke-width="0.75"/>
</svg>
