<svg width="394" height="852" viewBox="0 0 394 852" fill="none" xmlns="http://www.w3.org/2000/svg">
<circle cx="50.6108" cy="52.6107" r="82.125" transform="rotate(-15 50.6108 52.6107)" stroke="#D2A97D" stroke-opacity="0.2" stroke-width="0.75"/>
<circle cx="50.6103" cy="52.6109" r="71.125" transform="rotate(-15 50.6103 52.6109)" stroke="#D2A97D" stroke-opacity="0.2" stroke-width="0.75"/>
<circle cx="50.6107" cy="52.611" r="60.125" transform="rotate(-15 50.6107 52.611)" stroke="#D2A97D" stroke-opacity="0.2" stroke-width="0.75"/>
<circle cx="50.6104" cy="52.6103" r="50.125" transform="rotate(-15 50.6104 52.6103)" stroke="#D2A97D" stroke-opacity="0.2" stroke-width="0.75"/>
<circle cx="50.6101" cy="52.6106" r="41.125" transform="rotate(-15 50.6101 52.6106)" stroke="#D2A97D" stroke-opacity="0.2" stroke-width="0.75"/>
<circle cx="50.6106" cy="52.6107" r="30.125" transform="rotate(-15 50.6106 52.6107)" stroke="#D2A97D" stroke-opacity="0.2" stroke-width="0.75"/>
<circle cx="50.6102" cy="52.6109" r="20.125" transform="rotate(-15 50.6102 52.6109)" stroke="#D2A97D" stroke-opacity="0.2" stroke-width="0.75"/>
<circle cx="50.6107" cy="52.6108" r="96.125" transform="rotate(-15 50.6107 52.6108)" stroke="#D2A97D" stroke-opacity="0.2" stroke-width="0.75"/>
<circle cx="50.6104" cy="52.6107" r="108.125" transform="rotate(-15 50.6104 52.6107)" stroke="#D2A97D" stroke-opacity="0.2" stroke-width="0.75"/>
<circle cx="50.6099" cy="52.6106" r="119.125" transform="rotate(-15 50.6099 52.6106)" stroke="#D2A97D" stroke-opacity="0.2" stroke-width="0.75"/>
<circle cx="50.6105" cy="52.6104" r="130.125" transform="rotate(-15 50.6105 52.6104)" stroke="#D2A97D" stroke-opacity="0.2" stroke-width="0.75"/>
<circle cx="50.6101" cy="52.6104" r="142.125" transform="rotate(-15 50.6101 52.6104)" stroke="#D2A97D" stroke-opacity="0.2" stroke-width="0.75"/>
<circle cx="50.6106" cy="52.6102" r="153.125" transform="rotate(-15 50.6106 52.6102)" stroke="#D2A97D" stroke-opacity="0.2" stroke-width="0.75"/>
<circle cx="50.6102" cy="52.6111" r="164.125" transform="rotate(-15 50.6102 52.6111)" stroke="#D2A97D" stroke-opacity="0.2" stroke-width="0.75"/>
<circle cx="50.61" cy="52.6111" r="177.125" transform="rotate(-15 50.61 52.6111)" stroke="#D2A97D" stroke-opacity="0.2" stroke-width="0.75"/>
<circle cx="50.6108" cy="52.6111" r="190.125" transform="rotate(-15 50.6108 52.6111)" stroke="#D2A97D" stroke-opacity="0.2" stroke-width="0.75"/>
<circle cx="50.6106" cy="52.6111" r="203.125" transform="rotate(-15 50.6106 52.6111)" stroke="#D2A97D" stroke-opacity="0.2" stroke-width="0.75"/>
<circle cx="50.6105" cy="52.6102" r="217.125" transform="rotate(-15 50.6105 52.6102)" stroke="#D2A97D" stroke-opacity="0.2" stroke-width="0.75"/>
<circle cx="50.6106" cy="52.6103" r="232.125" transform="rotate(-15 50.6106 52.6103)" stroke="#D2A97D" stroke-opacity="0.2" stroke-width="0.75"/>
<circle cx="50.6107" cy="52.6105" r="247.125" transform="rotate(-15 50.6107 52.6105)" stroke="#D2A97D" stroke-opacity="0.2" stroke-width="0.75"/>
<circle cx="50.6106" cy="52.6106" r="261.125" transform="rotate(-15 50.6106 52.6106)" stroke="#D2A97D" stroke-opacity="0.2" stroke-width="0.75"/>
<circle cx="50.6107" cy="52.6107" r="276.125" transform="rotate(-15 50.6107 52.6107)" stroke="#D2A97D" stroke-opacity="0.2" stroke-width="0.75"/>
<circle cx="50.6105" cy="52.6107" r="289.125" transform="rotate(-15 50.6105 52.6107)" stroke="#D2A97D" stroke-opacity="0.2" stroke-width="0.75"/>
<circle cx="50.6106" cy="52.6109" r="304.125" transform="rotate(-15 50.6106 52.6109)" stroke="#D2A97D" stroke-opacity="0.2" stroke-width="0.75"/>
<circle cx="50.6098" cy="52.6111" r="320.125" transform="rotate(-15 50.6098 52.6111)" stroke="#D2A97D" stroke-opacity="0.2" stroke-width="0.75"/>
<circle cx="50.6104" cy="52.6107" r="353.125" transform="rotate(-15 50.6104 52.6107)" stroke="#D2A97D" stroke-opacity="0.2" stroke-width="0.75"/>
<circle cx="50.6107" cy="52.611" r="370.125" transform="rotate(-15 50.6107 52.611)" stroke="#D2A97D" stroke-opacity="0.2" stroke-width="0.75"/>
<circle cx="50.6098" cy="52.6102" r="385.125" transform="rotate(-15 50.6098 52.6102)" stroke="#D2A97D" stroke-opacity="0.2" stroke-width="0.75"/>
<circle cx="50.6102" cy="52.6105" r="402.125" transform="rotate(-15 50.6102 52.6105)" stroke="#D2A97D" stroke-opacity="0.2" stroke-width="0.75"/>
<circle cx="50.6104" cy="52.6107" r="418.125" transform="rotate(-15 50.6104 52.6107)" stroke="#D2A97D" stroke-opacity="0.2" stroke-width="0.75"/>
<circle cx="50.6104" cy="52.6108" r="432.125" transform="rotate(-15 50.6104 52.6108)" stroke="#D2A97D" stroke-opacity="0.2" stroke-width="0.75"/>
<circle cx="50.6102" cy="52.6108" r="445.125" transform="rotate(-15 50.6102 52.6108)" stroke="#D2A97D" stroke-opacity="0.2" stroke-width="0.75"/>
<circle cx="50.6101" cy="52.6109" r="459.125" transform="rotate(-15 50.6101 52.6109)" stroke="#D2A97D" stroke-opacity="0.2" stroke-width="0.75"/>
<circle cx="50.6101" cy="52.611" r="473.125" transform="rotate(-15 50.6101 52.611)" stroke="#D2A97D" stroke-opacity="0.2" stroke-width="0.75"/>
<circle cx="50.61" cy="52.611" r="487.125" transform="rotate(-15 50.61 52.611)" stroke="#D2A97D" stroke-opacity="0.2" stroke-width="0.75"/>
<circle cx="50.6101" cy="52.6102" r="502.125" transform="rotate(-15 50.6101 52.6102)" stroke="#D2A97D" stroke-opacity="0.2" stroke-width="0.75"/>
<circle cx="50.6101" cy="52.6104" r="517.125" transform="rotate(-15 50.6101 52.6104)" stroke="#D2A97D" stroke-opacity="0.2" stroke-width="0.75"/>
<circle cx="50.6101" cy="52.6105" r="531.125" transform="rotate(-15 50.6101 52.6105)" stroke="#D2A97D" stroke-opacity="0.2" stroke-width="0.75"/>
<circle cx="50.6102" cy="52.6106" r="546.125" transform="rotate(-15 50.6102 52.6106)" stroke="#D2A97D" stroke-opacity="0.2" stroke-width="0.75"/>
<circle cx="50.6104" cy="52.6108" r="562.125" transform="rotate(-15 50.6104 52.6108)" stroke="#D2A97D" stroke-opacity="0.2" stroke-width="0.75"/>
<circle cx="50.6106" cy="52.6111" r="578.125" transform="rotate(-15 50.6106 52.6111)" stroke="#D2A97D" stroke-opacity="0.2" stroke-width="0.75"/>
<circle cx="50.6098" cy="52.6103" r="594.125" transform="rotate(-15 50.6098 52.6103)" stroke="#D2A97D" stroke-opacity="0.2" stroke-width="0.75"/>
<circle cx="50.6102" cy="52.6106" r="611.125" transform="rotate(-15 50.6102 52.6106)" stroke="#D2A97D" stroke-opacity="0.2" stroke-width="0.75"/>
<circle cx="50.6105" cy="52.6109" r="628.125" transform="rotate(-15 50.6105 52.6109)" stroke="#D2A97D" stroke-opacity="0.2" stroke-width="0.75"/>
<circle cx="50.6099" cy="52.6103" r="645.125" transform="rotate(-15 50.6099 52.6103)" stroke="#D2A97D" stroke-opacity="0.2" stroke-width="0.75"/>
<circle cx="50.6103" cy="52.6106" r="662.125" transform="rotate(-15 50.6103 52.6106)" stroke="#D2A97D" stroke-opacity="0.2" stroke-width="0.75"/>
<circle cx="50.6105" cy="52.6108" r="678.125" transform="rotate(-15 50.6105 52.6108)" stroke="#D2A97D" stroke-opacity="0.2" stroke-width="0.75"/>
<circle cx="50.6106" cy="52.611" r="693.125" transform="rotate(-15 50.6106 52.611)" stroke="#D2A97D" stroke-opacity="0.2" stroke-width="0.75"/>
<circle cx="50.6108" cy="52.6102" r="709.125" transform="rotate(-15 50.6108 52.6102)" stroke="#D2A97D" stroke-opacity="0.2" stroke-width="0.75"/>
<circle cx="50.6103" cy="52.6106" r="727.125" transform="rotate(-15 50.6103 52.6106)" stroke="#D2A97D" stroke-opacity="0.2" stroke-width="0.75"/>
<circle cx="50.6102" cy="52.6102" r="748.125" transform="rotate(-15 50.6102 52.6102)" stroke="#D2A97D" stroke-opacity="0.2" stroke-width="0.75"/>
<circle cx="50.6104" cy="52.611" r="771.125" transform="rotate(-15 50.6104 52.611)" stroke="#D2A97D" stroke-opacity="0.2" stroke-width="0.75"/>
<circle cx="50.6103" cy="52.6106" r="792.125" transform="rotate(-15 50.6103 52.6106)" stroke="#D2A97D" stroke-opacity="0.2" stroke-width="0.75"/>
</svg>
