<svg width="594" height="126" viewBox="0 0 594 126" fill="none" xmlns="http://www.w3.org/2000/svg">
<circle cx="52.437" cy="-77.2511" r="82.125" transform="rotate(-15 52.437 -77.2511)" stroke="black" stroke-opacity="0.05" stroke-width="0.75"/>
<circle cx="52.4364" cy="-77.2512" r="71.125" transform="rotate(-15 52.4364 -77.2512)" stroke="black" stroke-opacity="0.05" stroke-width="0.75"/>
<circle cx="52.4369" cy="-77.2513" r="96.125" transform="rotate(-15 52.4369 -77.2513)" stroke="black" stroke-opacity="0.05" stroke-width="0.75"/>
<circle cx="52.4366" cy="-77.2512" r="108.125" transform="rotate(-15 52.4366 -77.2512)" stroke="black" stroke-opacity="0.05" stroke-width="0.75"/>
<circle cx="52.4361" cy="-77.2512" r="119.125" transform="rotate(-15 52.4361 -77.2512)" stroke="black" stroke-opacity="0.05" stroke-width="0.75"/>
<circle cx="52.4366" cy="-77.2511" r="130.125" transform="rotate(-15 52.4366 -77.2511)" stroke="black" stroke-opacity="0.05" stroke-width="0.75"/>
<circle cx="52.4363" cy="-77.2512" r="142.125" transform="rotate(-15 52.4363 -77.2512)" stroke="black" stroke-opacity="0.05" stroke-width="0.75"/>
<circle cx="52.4368" cy="-77.2511" r="153.125" transform="rotate(-15 52.4368 -77.2511)" stroke="black" stroke-opacity="0.05" stroke-width="0.75"/>
<circle cx="52.4363" cy="-77.2511" r="164.125" transform="rotate(-15 52.4363 -77.2511)" stroke="black" stroke-opacity="0.05" stroke-width="0.75"/>
<circle cx="52.4362" cy="-77.2512" r="177.125" transform="rotate(-15 52.4362 -77.2512)" stroke="black" stroke-opacity="0.05" stroke-width="0.75"/>
<circle cx="52.4369" cy="-77.2512" r="190.125" transform="rotate(-15 52.4369 -77.2512)" stroke="black" stroke-opacity="0.05" stroke-width="0.75"/>
<circle cx="52.4367" cy="-77.2512" r="203.125" transform="rotate(-15 52.4367 -77.2512)" stroke="black" stroke-opacity="0.05" stroke-width="0.75"/>
<circle cx="52.4367" cy="-77.2512" r="217.125" transform="rotate(-15 52.4367 -77.2512)" stroke="black" stroke-opacity="0.05" stroke-width="0.75"/>
<circle cx="52.4368" cy="-77.2512" r="232.125" transform="rotate(-15 52.4368 -77.2512)" stroke="black" stroke-opacity="0.05" stroke-width="0.75"/>
<circle cx="52.4369" cy="-77.2511" r="247.125" transform="rotate(-15 52.4369 -77.2511)" stroke="black" stroke-opacity="0.05" stroke-width="0.75"/>
<circle cx="52.4368" cy="-77.2513" r="261.125" transform="rotate(-15 52.4368 -77.2513)" stroke="black" stroke-opacity="0.05" stroke-width="0.75"/>
<circle cx="52.4369" cy="-77.2511" r="276.125" transform="rotate(-15 52.4369 -77.2511)" stroke="black" stroke-opacity="0.05" stroke-width="0.75"/>
<circle cx="52.4367" cy="-77.2512" r="289.125" transform="rotate(-15 52.4367 -77.2512)" stroke="black" stroke-opacity="0.05" stroke-width="0.75"/>
<circle cx="52.4368" cy="-77.2512" r="304.125" transform="rotate(-15 52.4368 -77.2512)" stroke="black" stroke-opacity="0.05" stroke-width="0.75"/>
<circle cx="52.436" cy="-77.2512" r="320.125" transform="rotate(-15 52.436 -77.2512)" stroke="black" stroke-opacity="0.05" stroke-width="0.75"/>
<circle cx="52.4362" cy="-77.2512" r="336.125" transform="rotate(-15 52.4362 -77.2512)" stroke="black" stroke-opacity="0.05" stroke-width="0.75"/>
<circle cx="52.4366" cy="-77.2511" r="353.125" transform="rotate(-15 52.4366 -77.2511)" stroke="black" stroke-opacity="0.05" stroke-width="0.75"/>
<circle cx="52.4369" cy="-77.2512" r="370.125" transform="rotate(-15 52.4369 -77.2512)" stroke="black" stroke-opacity="0.05" stroke-width="0.75"/>
<circle cx="52.436" cy="-77.2512" r="385.125" transform="rotate(-15 52.436 -77.2512)" stroke="black" stroke-opacity="0.05" stroke-width="0.75"/>
<circle cx="52.4364" cy="-77.2512" r="402.125" transform="rotate(-15 52.4364 -77.2512)" stroke="black" stroke-opacity="0.05" stroke-width="0.75"/>
<circle cx="52.4366" cy="-77.2512" r="418.125" transform="rotate(-15 52.4366 -77.2512)" stroke="black" stroke-opacity="0.05" stroke-width="0.75"/>
<circle cx="52.4365" cy="-77.2512" r="432.125" transform="rotate(-15 52.4365 -77.2512)" stroke="black" stroke-opacity="0.05" stroke-width="0.75"/>
<circle cx="52.4363" cy="-77.2511" r="445.125" transform="rotate(-15 52.4363 -77.2511)" stroke="black" stroke-opacity="0.05" stroke-width="0.75"/>
<circle cx="52.4363" cy="-77.2512" r="459.125" transform="rotate(-15 52.4363 -77.2512)" stroke="black" stroke-opacity="0.05" stroke-width="0.75"/>
<circle cx="52.4362" cy="-77.2512" r="473.125" transform="rotate(-15 52.4362 -77.2512)" stroke="black" stroke-opacity="0.05" stroke-width="0.75"/>
<circle cx="52.4362" cy="-77.2512" r="487.125" transform="rotate(-15 52.4362 -77.2512)" stroke="black" stroke-opacity="0.05" stroke-width="0.75"/>
<circle cx="52.4362" cy="-77.2512" r="502.125" transform="rotate(-15 52.4362 -77.2512)" stroke="black" stroke-opacity="0.05" stroke-width="0.75"/>
<circle cx="52.4363" cy="-77.2512" r="517.125" transform="rotate(-15 52.4363 -77.2512)" stroke="black" stroke-opacity="0.05" stroke-width="0.75"/>
<circle cx="52.4363" cy="-77.2512" r="531.125" transform="rotate(-15 52.4363 -77.2512)" stroke="black" stroke-opacity="0.05" stroke-width="0.75"/>
<circle cx="52.4363" cy="-77.2512" r="546.125" transform="rotate(-15 52.4363 -77.2512)" stroke="black" stroke-opacity="0.05" stroke-width="0.75"/>
<circle cx="52.4366" cy="-77.2512" r="562.125" transform="rotate(-15 52.4366 -77.2512)" stroke="black" stroke-opacity="0.05" stroke-width="0.75"/>
<circle cx="52.4368" cy="-77.2512" r="578.125" transform="rotate(-15 52.4368 -77.2512)" stroke="black" stroke-opacity="0.05" stroke-width="0.75"/>
<circle cx="52.436" cy="-77.2512" r="594.125" transform="rotate(-15 52.436 -77.2512)" stroke="black" stroke-opacity="0.05" stroke-width="0.75"/>
<circle cx="52.4364" cy="-77.2512" r="611.125" transform="rotate(-15 52.4364 -77.2512)" stroke="black" stroke-opacity="0.05" stroke-width="0.75"/>
<circle cx="52.4367" cy="-77.2512" r="628.125" transform="rotate(-15 52.4367 -77.2512)" stroke="black" stroke-opacity="0.05" stroke-width="0.75"/>
<circle cx="52.4361" cy="-77.2512" r="645.125" transform="rotate(-15 52.4361 -77.2512)" stroke="black" stroke-opacity="0.05" stroke-width="0.75"/>
<circle cx="52.4364" cy="-77.2512" r="662.125" transform="rotate(-15 52.4364 -77.2512)" stroke="black" stroke-opacity="0.05" stroke-width="0.75"/>
<circle cx="52.4366" cy="-77.2511" r="678.125" transform="rotate(-15 52.4366 -77.2511)" stroke="black" stroke-opacity="0.05" stroke-width="0.75"/>
<circle cx="52.4367" cy="-77.2512" r="693.125" transform="rotate(-15 52.4367 -77.2512)" stroke="black" stroke-opacity="0.05" stroke-width="0.75"/>
<circle cx="52.4369" cy="-77.2512" r="709.125" transform="rotate(-15 52.4369 -77.2512)" stroke="black" stroke-opacity="0.05" stroke-width="0.75"/>
<circle cx="52.4365" cy="-77.2512" r="727.125" transform="rotate(-15 52.4365 -77.2512)" stroke="black" stroke-opacity="0.05" stroke-width="0.75"/>
<circle cx="52.4364" cy="-77.2512" r="748.125" transform="rotate(-15 52.4364 -77.2512)" stroke="black" stroke-opacity="0.05" stroke-width="0.75"/>
<circle cx="52.4366" cy="-77.2512" r="771.125" transform="rotate(-15 52.4366 -77.2512)" stroke="black" stroke-opacity="0.05" stroke-width="0.75"/>
<circle cx="52.4365" cy="-77.2512" r="792.125" transform="rotate(-15 52.4365 -77.2512)" stroke="black" stroke-opacity="0.05" stroke-width="0.75"/>
</svg>
