<svg width="270" height="284" viewBox="0 0 270 284" fill="none" xmlns="http://www.w3.org/2000/svg">
<path d="M133.132 1.89473C133.786 0.179085 136.214 0.179085 136.868 1.89473L159.566 61.3548C160.021 62.5459 161.459 63.0132 162.527 62.3169L215.84 27.5542C217.378 26.5512 219.342 27.9778 218.863 29.7507L202.277 91.1965C201.944 92.4274 202.833 93.6508 204.107 93.7152L267.671 96.9281C269.505 97.0208 270.255 99.3291 268.825 100.482L219.29 140.443C218.297 141.244 218.297 142.756 219.29 143.557L268.825 183.518C270.255 184.671 269.505 186.979 267.671 187.072L204.107 190.285C202.833 190.349 201.944 191.573 202.277 192.804L218.863 254.249C219.342 256.022 217.378 257.449 215.84 256.446L162.527 221.683C161.459 220.987 160.021 221.454 159.566 222.645L136.868 282.105C136.214 283.821 133.786 283.821 133.132 282.105L110.434 222.645C109.979 221.454 108.541 220.987 107.473 221.683L54.1598 256.446C52.6216 257.449 50.658 256.022 51.1366 254.249L67.7233 192.804C68.0555 191.573 67.1667 190.349 65.8933 190.285L2.32936 187.072C0.495305 186.979 -0.254722 184.671 1.17457 183.518L50.7104 143.557C51.7027 142.756 51.7027 141.244 50.7104 140.443L1.17457 100.482C-0.254722 99.3291 0.495304 97.0208 2.32936 96.9281L65.8933 93.7152C67.1667 93.6508 68.0555 92.4274 67.7233 91.1965L51.1366 29.7507C50.658 27.9778 52.6216 26.5512 54.1598 27.5542L107.473 62.3169C108.541 63.0132 109.979 62.5459 110.434 61.3548L133.132 1.89473Z" fill="#CCFBF1"/>
</svg>
