<svg width="18" height="18" viewBox="0 0 18 18" fill="none" xmlns="http://www.w3.org/2000/svg">
<mask id="mask0_381_22390" style="mask-type:alpha" maskUnits="userSpaceOnUse" x="1" y="1" width="16" height="16">
<path fill-rule="evenodd" clip-rule="evenodd" d="M16.4855 3.99852C17.1715 3.31257 17.1715 2.20042 16.4855 1.51447C15.7996 0.828512 14.6874 0.828512 14.0015 1.51447L8.99014 6.5258L3.99852 1.53418C3.31257 0.848222 2.20042 0.848222 1.51447 1.53418C0.828512 2.22013 0.828512 3.33228 1.51447 4.01823L6.50609 9.00986L1.53415 13.9818C0.848199 14.6677 0.848199 15.7799 1.53415 16.4658C2.22011 17.1518 3.33226 17.1518 4.01821 16.4658L8.99014 11.4939L13.9818 16.4856C14.6677 17.1715 15.7799 17.1715 16.4658 16.4856C17.1518 15.7996 17.1518 14.6875 16.4658 14.0015L11.4742 9.00986L16.4855 3.99852Z" fill="#B9ACAC"/>
</mask>
<g mask="url(#mask0_381_22390)">
<line x1="-11.0247" y1="24.1686" x2="33.4944" y2="-20.3505" stroke="#9CA3AF" stroke-width="0.0479044"/>
<line x1="-11.0247" y1="24.1686" x2="33.4944" y2="-20.3505" stroke="#C25E5E" stroke-opacity="0.2" stroke-width="0.0479044"/>
<line x1="-5.59506" y1="28.8952" x2="38.9241" y2="-15.624" stroke="#9CA3AF" stroke-width="0.0479044"/>
<line x1="-5.59506" y1="28.8952" x2="38.9241" y2="-15.624" stroke="#C25E5E" stroke-opacity="0.2" stroke-width="0.0479044"/>
<line x1="-15.5599" y1="18.548" x2="28.9592" y2="-25.9711" stroke="#9CA3AF" stroke-width="0.0479044"/>
<line x1="-15.5599" y1="18.548" x2="28.9592" y2="-25.9711" stroke="#C25E5E" stroke-opacity="0.2" stroke-width="0.0479044"/>
<line x1="-8.08627" y1="26.2765" x2="36.4329" y2="-18.2426" stroke="#9CA3AF" stroke-width="0.0479044"/>
<line x1="-8.08627" y1="26.2765" x2="36.4329" y2="-18.2426" stroke="#C25E5E" stroke-opacity="0.2" stroke-width="0.0479044"/>
<line x1="-12.6214" y1="20.6559" x2="31.8977" y2="-23.8632" stroke="#9CA3AF" stroke-width="0.0479044"/>
<line x1="-12.6214" y1="20.6559" x2="31.8977" y2="-23.8632" stroke="#C25E5E" stroke-opacity="0.2" stroke-width="0.0479044"/>
<line x1="-2.65756" y1="31.0031" x2="41.8616" y2="-13.5161" stroke="#9CA3AF" stroke-width="0.0479044"/>
<line x1="-2.65756" y1="31.0031" x2="41.8616" y2="-13.5161" stroke="#C25E5E" stroke-opacity="0.2" stroke-width="0.0479044"/>
<line x1="-9.68295" y1="25.3825" x2="34.8362" y2="-19.1367" stroke="#9CA3AF" stroke-width="0.0479044"/>
<line x1="-9.68295" y1="25.3825" x2="34.8362" y2="-19.1367" stroke="#C25E5E" stroke-opacity="0.2" stroke-width="0.0479044"/>
<line x1="-4.25424" y1="30.109" x2="40.2649" y2="-14.4101" stroke="#9CA3AF" stroke-width="0.0479044"/>
<line x1="-4.25424" y1="30.109" x2="40.2649" y2="-14.4101" stroke="#C25E5E" stroke-opacity="0.2" stroke-width="0.0479044"/>
<line x1="-6.74545" y1="27.4899" x2="37.7737" y2="-17.0292" stroke="#9CA3AF" stroke-width="0.0479044"/>
<line x1="-6.74545" y1="27.4899" x2="37.7737" y2="-17.0292" stroke="#C25E5E" stroke-opacity="0.2" stroke-width="0.0479044"/>
<line x1="-11.2796" y1="21.8693" x2="33.2395" y2="-22.6498" stroke="#9CA3AF" stroke-width="0.0479044"/>
<line x1="-11.2796" y1="21.8693" x2="33.2395" y2="-22.6498" stroke="#C25E5E" stroke-opacity="0.2" stroke-width="0.0479044"/>
<line x1="-1.31576" y1="32.2165" x2="43.2034" y2="-12.3027" stroke="#9CA3AF" stroke-width="0.0479044"/>
<line x1="-1.31576" y1="32.2165" x2="43.2034" y2="-12.3027" stroke="#C25E5E" stroke-opacity="0.2" stroke-width="0.0479044"/>
<line x1="-9.93881" y1="24.3605" x2="34.5803" y2="-20.1586" stroke="#9CA3AF" stroke-width="0.0479044"/>
<line x1="-9.93881" y1="24.3605" x2="34.5803" y2="-20.1586" stroke="#C25E5E" stroke-opacity="0.2" stroke-width="0.0479044"/>
<line x1="-4.50912" y1="29.0871" x2="40.01" y2="-15.4321" stroke="#9CA3AF" stroke-width="0.0479044"/>
<line x1="-4.50912" y1="29.0871" x2="40.01" y2="-15.4321" stroke="#C25E5E" stroke-opacity="0.2" stroke-width="0.0479044"/>
<line x1="-7.00034" y1="26.4679" x2="37.5188" y2="-18.0512" stroke="#9CA3AF" stroke-width="0.0479044"/>
<line x1="-7.00034" y1="26.4679" x2="37.5188" y2="-18.0512" stroke="#C25E5E" stroke-opacity="0.2" stroke-width="0.0479044"/>
<line x1="-11.5355" y1="20.8473" x2="32.9836" y2="-23.6718" stroke="#9CA3AF" stroke-width="0.0479044"/>
<line x1="-11.5355" y1="20.8473" x2="32.9836" y2="-23.6718" stroke="#C25E5E" stroke-opacity="0.2" stroke-width="0.0479044"/>
<line x1="-1.57162" y1="31.1945" x2="42.9475" y2="-13.3246" stroke="#9CA3AF" stroke-width="0.0479044"/>
<line x1="-1.57162" y1="31.1945" x2="42.9475" y2="-13.3246" stroke="#C25E5E" stroke-opacity="0.2" stroke-width="0.0479044"/>
<line x1="-8.59701" y1="25.5739" x2="35.9221" y2="-18.9452" stroke="#9CA3AF" stroke-width="0.0479044"/>
<line x1="-8.59701" y1="25.5739" x2="35.9221" y2="-18.9452" stroke="#C25E5E" stroke-opacity="0.2" stroke-width="0.0479044"/>
<line x1="-13.1322" y1="19.9533" x2="31.387" y2="-24.5659" stroke="#9CA3AF" stroke-width="0.0479044"/>
<line x1="-13.1322" y1="19.9533" x2="31.387" y2="-24.5659" stroke="#C25E5E" stroke-opacity="0.2" stroke-width="0.0479044"/>
<line x1="-3.1683" y1="30.3004" x2="41.3508" y2="-14.2187" stroke="#9CA3AF" stroke-width="0.0479044"/>
<line x1="-3.1683" y1="30.3004" x2="41.3508" y2="-14.2187" stroke="#C25E5E" stroke-opacity="0.2" stroke-width="0.0479044"/>
<line x1="-14.2181" y1="19.7614" x2="30.301" y2="-24.7577" stroke="#9CA3AF" stroke-width="0.0479044"/>
<line x1="-14.2181" y1="19.7614" x2="30.301" y2="-24.7577" stroke="#C25E5E" stroke-opacity="0.2" stroke-width="0.0479044"/>
<line x1="-5.65951" y1="27.6818" x2="38.8596" y2="-16.8373" stroke="#9CA3AF" stroke-width="0.0479044"/>
<line x1="-5.65951" y1="27.6818" x2="38.8596" y2="-16.8373" stroke="#C25E5E" stroke-opacity="0.2" stroke-width="0.0479044"/>
<line x1="-10.1937" y1="22.0607" x2="34.3254" y2="-22.4584" stroke="#9CA3AF" stroke-width="0.0479044"/>
<line x1="-10.1937" y1="22.0607" x2="34.3254" y2="-22.4584" stroke="#C25E5E" stroke-opacity="0.2" stroke-width="0.0479044"/>
<line x1="-0.229827" y1="32.4084" x2="44.2893" y2="-12.1108" stroke="#9CA3AF" stroke-width="0.0479044"/>
<line x1="-0.229827" y1="32.4084" x2="44.2893" y2="-12.1108" stroke="#C25E5E" stroke-opacity="0.2" stroke-width="0.0479044"/>
<line x1="-10.5775" y1="24.3605" x2="33.9417" y2="-20.1586" stroke="#9CA3AF" stroke-width="0.0479044"/>
<line x1="-10.5775" y1="24.3605" x2="33.9417" y2="-20.1586" stroke="#C25E5E" stroke-opacity="0.2" stroke-width="0.0479044"/>
<line x1="-16.7093" y1="17.1427" x2="27.8098" y2="-27.3764" stroke="#9CA3AF" stroke-width="0.0479044"/>
<line x1="-16.7093" y1="17.1427" x2="27.8098" y2="-27.3764" stroke="#C25E5E" stroke-opacity="0.2" stroke-width="0.0479044"/>
<line x1="-5.1478" y1="29.0871" x2="39.3713" y2="-15.4321" stroke="#9CA3AF" stroke-width="0.0479044"/>
<line x1="-5.1478" y1="29.0871" x2="39.3713" y2="-15.4321" stroke="#C25E5E" stroke-opacity="0.2" stroke-width="0.0479044"/>
<line x1="-7.63901" y1="26.4679" x2="36.8801" y2="-18.0512" stroke="#9CA3AF" stroke-width="0.0479044"/>
<line x1="-7.63901" y1="26.4679" x2="36.8801" y2="-18.0512" stroke="#C25E5E" stroke-opacity="0.2" stroke-width="0.0479044"/>
<line x1="-12.1742" y1="20.8473" x2="32.345" y2="-23.6718" stroke="#9CA3AF" stroke-width="0.0479044"/>
<line x1="-12.1742" y1="20.8473" x2="32.345" y2="-23.6718" stroke="#C25E5E" stroke-opacity="0.2" stroke-width="0.0479044"/>
<line x1="-2.2103" y1="31.1945" x2="42.3088" y2="-13.3246" stroke="#9CA3AF" stroke-width="0.0479044"/>
<line x1="-2.2103" y1="31.1945" x2="42.3088" y2="-13.3246" stroke="#C25E5E" stroke-opacity="0.2" stroke-width="0.0479044"/>
<line x1="-9.23569" y1="25.5739" x2="35.2834" y2="-18.9452" stroke="#9CA3AF" stroke-width="0.0479044"/>
<line x1="-9.23569" y1="25.5739" x2="35.2834" y2="-18.9452" stroke="#C25E5E" stroke-opacity="0.2" stroke-width="0.0479044"/>
<line x1="-3.80698" y1="30.3004" x2="40.7122" y2="-14.2187" stroke="#9CA3AF" stroke-width="0.0479044"/>
<line x1="-3.80698" y1="30.3004" x2="40.7122" y2="-14.2187" stroke="#C25E5E" stroke-opacity="0.2" stroke-width="0.0479044"/>
<line x1="-6.29819" y1="27.6818" x2="38.2209" y2="-16.8373" stroke="#9CA3AF" stroke-width="0.0479044"/>
<line x1="-6.29819" y1="27.6818" x2="38.2209" y2="-16.8373" stroke="#C25E5E" stroke-opacity="0.2" stroke-width="0.0479044"/>
<line x1="-10.8333" y1="22.0607" x2="33.6858" y2="-22.4584" stroke="#9CA3AF" stroke-width="0.0479044"/>
<line x1="-10.8333" y1="22.0607" x2="33.6858" y2="-22.4584" stroke="#C25E5E" stroke-opacity="0.2" stroke-width="0.0479044"/>
<line x1="-0.868499" y1="32.4084" x2="43.6506" y2="-12.1108" stroke="#9CA3AF" stroke-width="0.0479044"/>
<line x1="-0.868499" y1="32.4084" x2="43.6506" y2="-12.1108" stroke="#C25E5E" stroke-opacity="0.2" stroke-width="0.0479044"/>
<line x1="-9.49155" y1="24.5519" x2="35.0276" y2="-19.9672" stroke="#9CA3AF" stroke-width="0.0479044"/>
<line x1="-9.49155" y1="24.5519" x2="35.0276" y2="-19.9672" stroke="#C25E5E" stroke-opacity="0.2" stroke-width="0.0479044"/>
<line x1="-14.474" y1="18.7394" x2="30.0452" y2="-25.7797" stroke="#9CA3AF" stroke-width="0.0479044"/>
<line x1="-14.474" y1="18.7394" x2="30.0452" y2="-25.7797" stroke="#C25E5E" stroke-opacity="0.2" stroke-width="0.0479044"/>
<line x1="-4.06284" y1="29.2785" x2="40.4563" y2="-15.2407" stroke="#9CA3AF" stroke-width="0.0479044"/>
<line x1="-4.06284" y1="29.2785" x2="40.4563" y2="-15.2407" stroke="#C25E5E" stroke-opacity="0.2" stroke-width="0.0479044"/>
<line x1="-6.55307" y1="26.6598" x2="37.9661" y2="-17.8593" stroke="#9CA3AF" stroke-width="0.0479044"/>
<line x1="-6.55307" y1="26.6598" x2="37.9661" y2="-17.8593" stroke="#C25E5E" stroke-opacity="0.2" stroke-width="0.0479044"/>
<line x1="-11.0882" y1="21.0392" x2="33.4309" y2="-23.4799" stroke="#9CA3AF" stroke-width="0.0479044"/>
<line x1="-11.0882" y1="21.0392" x2="33.4309" y2="-23.4799" stroke="#C25E5E" stroke-opacity="0.2" stroke-width="0.0479044"/>
<line x1="-1.12436" y1="31.3864" x2="43.3948" y2="-13.1328" stroke="#9CA3AF" stroke-width="0.0479044"/>
<line x1="-1.12436" y1="31.3864" x2="43.3948" y2="-13.1328" stroke="#C25E5E" stroke-opacity="0.2" stroke-width="0.0479044"/>
<line x1="-16.9642" y1="16.1208" x2="27.5549" y2="-28.3984" stroke="#9CA3AF" stroke-width="0.0479044"/>
<line x1="-16.9642" y1="16.1208" x2="27.5549" y2="-28.3984" stroke="#C25E5E" stroke-opacity="0.2" stroke-width="0.0479044"/>
<line x1="-8.14975" y1="25.7658" x2="36.3694" y2="-18.7534" stroke="#9CA3AF" stroke-width="0.0479044"/>
<line x1="-8.14975" y1="25.7658" x2="36.3694" y2="-18.7534" stroke="#C25E5E" stroke-opacity="0.2" stroke-width="0.0479044"/>
<line x1="-12.6849" y1="20.1447" x2="31.8342" y2="-24.3744" stroke="#9CA3AF" stroke-width="0.0479044"/>
<line x1="-12.6849" y1="20.1447" x2="31.8342" y2="-24.3744" stroke="#C25E5E" stroke-opacity="0.2" stroke-width="0.0479044"/>
<line x1="-2.72104" y1="30.4923" x2="41.7981" y2="-14.0268" stroke="#9CA3AF" stroke-width="0.0479044"/>
<line x1="-2.72104" y1="30.4923" x2="41.7981" y2="-14.0268" stroke="#C25E5E" stroke-opacity="0.2" stroke-width="0.0479044"/>
<line x1="-5.21225" y1="27.8732" x2="39.3069" y2="-16.6459" stroke="#9CA3AF" stroke-width="0.0479044"/>
<line x1="-5.21225" y1="27.8732" x2="39.3069" y2="-16.6459" stroke="#C25E5E" stroke-opacity="0.2" stroke-width="0.0479044"/>
<line x1="-9.74741" y1="22.2526" x2="34.7717" y2="-22.2665" stroke="#9CA3AF" stroke-width="0.0479044"/>
<line x1="-9.74741" y1="22.2526" x2="34.7717" y2="-22.2665" stroke="#C25E5E" stroke-opacity="0.2" stroke-width="0.0479044"/>
<line x1="0.217438" y1="32.5998" x2="44.7366" y2="-11.9194" stroke="#9CA3AF" stroke-width="0.0479044"/>
<line x1="0.217438" y1="32.5998" x2="44.7366" y2="-11.9194" stroke="#C25E5E" stroke-opacity="0.2" stroke-width="0.0479044"/>
<line x1="-10.7689" y1="24.2326" x2="33.7502" y2="-20.2866" stroke="#9CA3AF" stroke-width="0.0479044"/>
<line x1="-10.7689" y1="24.2326" x2="33.7502" y2="-20.2866" stroke="#C25E5E" stroke-opacity="0.2" stroke-width="0.0479044"/>
<line x1="-5.34018" y1="28.9591" x2="39.179" y2="-15.56" stroke="#9CA3AF" stroke-width="0.0479044"/>
<line x1="-5.34018" y1="28.9591" x2="39.179" y2="-15.56" stroke="#C25E5E" stroke-opacity="0.2" stroke-width="0.0479044"/>
<line x1="-7.83041" y1="26.3405" x2="36.6887" y2="-18.1786" stroke="#9CA3AF" stroke-width="0.0479044"/>
<line x1="-7.83041" y1="26.3405" x2="36.6887" y2="-18.1786" stroke="#C25E5E" stroke-opacity="0.2" stroke-width="0.0479044"/>
<line x1="-12.3656" y1="20.7194" x2="32.1536" y2="-23.7997" stroke="#9CA3AF" stroke-width="0.0479044"/>
<line x1="-12.3656" y1="20.7194" x2="32.1536" y2="-23.7997" stroke="#C25E5E" stroke-opacity="0.2" stroke-width="0.0479044"/>
<line x1="-2.4017" y1="31.067" x2="42.1174" y2="-13.4521" stroke="#9CA3AF" stroke-width="0.0479044"/>
<line x1="-2.4017" y1="31.067" x2="42.1174" y2="-13.4521" stroke="#C25E5E" stroke-opacity="0.2" stroke-width="0.0479044"/>
<line x1="-9.42807" y1="25.446" x2="35.0911" y2="-19.0732" stroke="#9CA3AF" stroke-width="0.0479044"/>
<line x1="-9.42807" y1="25.446" x2="35.0911" y2="-19.0732" stroke="#C25E5E" stroke-opacity="0.2" stroke-width="0.0479044"/>
<line x1="-3.99838" y1="30.1725" x2="40.5208" y2="-14.3466" stroke="#9CA3AF" stroke-width="0.0479044"/>
<line x1="-3.99838" y1="30.1725" x2="40.5208" y2="-14.3466" stroke="#C25E5E" stroke-opacity="0.2" stroke-width="0.0479044"/>
<line x1="-6.48959" y1="27.5539" x2="38.0295" y2="-16.9653" stroke="#9CA3AF" stroke-width="0.0479044"/>
<line x1="-6.48959" y1="27.5539" x2="38.0295" y2="-16.9653" stroke="#C25E5E" stroke-opacity="0.2" stroke-width="0.0479044"/>
<line x1="-11.0247" y1="21.9333" x2="33.4944" y2="-22.5859" stroke="#9CA3AF" stroke-width="0.0479044"/>
<line x1="-11.0247" y1="21.9333" x2="33.4944" y2="-22.5859" stroke="#C25E5E" stroke-opacity="0.2" stroke-width="0.0479044"/>
<line x1="-1.05991" y1="32.2804" x2="43.4592" y2="-12.2387" stroke="#9CA3AF" stroke-width="0.0479044"/>
<line x1="-1.05991" y1="32.2804" x2="43.4592" y2="-12.2387" stroke="#C25E5E" stroke-opacity="0.2" stroke-width="0.0479044"/>
<line x1="-15.6234" y1="17.3341" x2="28.8958" y2="-27.185" stroke="#9CA3AF" stroke-width="0.0479044"/>
<line x1="-15.6234" y1="17.3341" x2="28.8958" y2="-27.185" stroke="#C25E5E" stroke-opacity="0.2" stroke-width="0.0479044"/>
<line x1="-9.68295" y1="24.424" x2="34.8362" y2="-20.0952" stroke="#9CA3AF" stroke-width="0.0479044"/>
<line x1="-9.68295" y1="24.424" x2="34.8362" y2="-20.0952" stroke="#C25E5E" stroke-opacity="0.2" stroke-width="0.0479044"/>
<line x1="-4.25424" y1="29.151" x2="40.2649" y2="-15.3681" stroke="#9CA3AF" stroke-width="0.0479044"/>
<line x1="-4.25424" y1="29.151" x2="40.2649" y2="-15.3681" stroke="#C25E5E" stroke-opacity="0.2" stroke-width="0.0479044"/>
<line x1="-6.74545" y1="26.5319" x2="37.7737" y2="-17.9872" stroke="#9CA3AF" stroke-width="0.0479044"/>
<line x1="-6.74545" y1="26.5319" x2="37.7737" y2="-17.9872" stroke="#C25E5E" stroke-opacity="0.2" stroke-width="0.0479044"/>
<line x1="-11.2796" y1="20.9113" x2="33.2395" y2="-23.6078" stroke="#9CA3AF" stroke-width="0.0479044"/>
<line x1="-11.2796" y1="20.9113" x2="33.2395" y2="-23.6078" stroke="#C25E5E" stroke-opacity="0.2" stroke-width="0.0479044"/>
<line x1="-1.31576" y1="31.2585" x2="43.2034" y2="-13.2607" stroke="#9CA3AF" stroke-width="0.0479044"/>
<line x1="-1.31576" y1="31.2585" x2="43.2034" y2="-13.2607" stroke="#C25E5E" stroke-opacity="0.2" stroke-width="0.0479044"/>
<line x1="-8.34213" y1="25.6378" x2="36.177" y2="-18.8813" stroke="#9CA3AF" stroke-width="0.0479044"/>
<line x1="-8.34213" y1="25.6378" x2="36.177" y2="-18.8813" stroke="#C25E5E" stroke-opacity="0.2" stroke-width="0.0479044"/>
<line x1="-12.8763" y1="20.0172" x2="31.6428" y2="-24.5019" stroke="#9CA3AF" stroke-width="0.0479044"/>
<line x1="-12.8763" y1="20.0172" x2="31.6428" y2="-24.5019" stroke="#C25E5E" stroke-opacity="0.2" stroke-width="0.0479044"/>
<line x1="-2.91244" y1="30.3644" x2="41.6067" y2="-14.1547" stroke="#9CA3AF" stroke-width="0.0479044"/>
<line x1="-2.91244" y1="30.3644" x2="41.6067" y2="-14.1547" stroke="#C25E5E" stroke-opacity="0.2" stroke-width="0.0479044"/>
<line x1="-5.40366" y1="27.7458" x2="39.1155" y2="-16.7734" stroke="#9CA3AF" stroke-width="0.0479044"/>
<line x1="-5.40366" y1="27.7458" x2="39.1155" y2="-16.7734" stroke="#C25E5E" stroke-opacity="0.2" stroke-width="0.0479044"/>
<line x1="-9.93881" y1="22.1247" x2="34.5803" y2="-22.3945" stroke="#9CA3AF" stroke-width="0.0479044"/>
<line x1="-9.93881" y1="22.1247" x2="34.5803" y2="-22.3945" stroke="#C25E5E" stroke-opacity="0.2" stroke-width="0.0479044"/>
<line x1="0.0250554" y1="32.4723" x2="44.5442" y2="-12.0468" stroke="#9CA3AF" stroke-width="0.0479044"/>
<line x1="0.0250554" y1="32.4723" x2="44.5442" y2="-12.0468" stroke="#C25E5E" stroke-opacity="0.2" stroke-width="0.0479044"/>
<line x1="-10.3216" y1="24.424" x2="34.1975" y2="-20.0952" stroke="#9CA3AF" stroke-width="0.0479044"/>
<line x1="-10.3216" y1="24.424" x2="34.1975" y2="-20.0952" stroke="#C25E5E" stroke-opacity="0.2" stroke-width="0.0479044"/>
<line x1="-15.1126" y1="18.7394" x2="29.4065" y2="-25.7797" stroke="#9CA3AF" stroke-width="0.0479044"/>
<line x1="-15.1126" y1="18.7394" x2="29.4065" y2="-25.7797" stroke="#C25E5E" stroke-opacity="0.2" stroke-width="0.0479044"/>
<line x1="-4.89291" y1="29.151" x2="39.6262" y2="-15.3681" stroke="#9CA3AF" stroke-width="0.0479044"/>
<line x1="-4.89291" y1="29.151" x2="39.6262" y2="-15.3681" stroke="#C25E5E" stroke-opacity="0.2" stroke-width="0.0479044"/>
<line x1="-7.38412" y1="26.5319" x2="37.135" y2="-17.9872" stroke="#9CA3AF" stroke-width="0.0479044"/>
<line x1="-7.38412" y1="26.5319" x2="37.135" y2="-17.9872" stroke="#C25E5E" stroke-opacity="0.2" stroke-width="0.0479044"/>
<line x1="-11.9183" y1="20.9113" x2="32.6008" y2="-23.6078" stroke="#9CA3AF" stroke-width="0.0479044"/>
<line x1="-11.9183" y1="20.9113" x2="32.6008" y2="-23.6078" stroke="#C25E5E" stroke-opacity="0.2" stroke-width="0.0479044"/>
<line x1="-1.95444" y1="31.2585" x2="42.5647" y2="-13.2607" stroke="#9CA3AF" stroke-width="0.0479044"/>
<line x1="-1.95444" y1="31.2585" x2="42.5647" y2="-13.2607" stroke="#C25E5E" stroke-opacity="0.2" stroke-width="0.0479044"/>
<line x1="-17.6029" y1="16.1208" x2="26.9163" y2="-28.3984" stroke="#9CA3AF" stroke-width="0.0479044"/>
<line x1="-17.6029" y1="16.1208" x2="26.9163" y2="-28.3984" stroke="#C25E5E" stroke-opacity="0.2" stroke-width="0.0479044"/>
<line x1="-8.9808" y1="25.6378" x2="35.5383" y2="-18.8813" stroke="#9CA3AF" stroke-width="0.0479044"/>
<line x1="-8.9808" y1="25.6378" x2="35.5383" y2="-18.8813" stroke="#C25E5E" stroke-opacity="0.2" stroke-width="0.0479044"/>
<line x1="-3.55112" y1="30.3644" x2="40.968" y2="-14.1547" stroke="#9CA3AF" stroke-width="0.0479044"/>
<line x1="-3.55112" y1="30.3644" x2="40.968" y2="-14.1547" stroke="#C25E5E" stroke-opacity="0.2" stroke-width="0.0479044"/>
<line x1="-6.04233" y1="27.7458" x2="38.4768" y2="-16.7734" stroke="#9CA3AF" stroke-width="0.0479044"/>
<line x1="-6.04233" y1="27.7458" x2="38.4768" y2="-16.7734" stroke="#C25E5E" stroke-opacity="0.2" stroke-width="0.0479044"/>
<line x1="-10.5775" y1="22.1247" x2="33.9417" y2="-22.3945" stroke="#9CA3AF" stroke-width="0.0479044"/>
<line x1="-10.5775" y1="22.1247" x2="33.9417" y2="-22.3945" stroke="#C25E5E" stroke-opacity="0.2" stroke-width="0.0479044"/>
<line x1="-0.613616" y1="32.4723" x2="43.9055" y2="-12.0468" stroke="#9CA3AF" stroke-width="0.0479044"/>
<line x1="-0.613616" y1="32.4723" x2="43.9055" y2="-12.0468" stroke="#C25E5E" stroke-opacity="0.2" stroke-width="0.0479044"/>
<line x1="-9.23569" y1="24.6159" x2="35.2834" y2="-19.9033" stroke="#9CA3AF" stroke-width="0.0479044"/>
<line x1="-9.23569" y1="24.6159" x2="35.2834" y2="-19.9033" stroke="#C25E5E" stroke-opacity="0.2" stroke-width="0.0479044"/>
<line x1="-3.80698" y1="29.3424" x2="40.7122" y2="-15.1767" stroke="#9CA3AF" stroke-width="0.0479044"/>
<line x1="-3.80698" y1="29.3424" x2="40.7122" y2="-15.1767" stroke="#C25E5E" stroke-opacity="0.2" stroke-width="0.0479044"/>
<line x1="-6.29819" y1="26.7238" x2="38.2209" y2="-17.7953" stroke="#9CA3AF" stroke-width="0.0479044"/>
<line x1="-6.29819" y1="26.7238" x2="38.2209" y2="-17.7953" stroke="#C25E5E" stroke-opacity="0.2" stroke-width="0.0479044"/>
<line x1="-10.8333" y1="21.1027" x2="33.6858" y2="-23.4164" stroke="#9CA3AF" stroke-width="0.0479044"/>
<line x1="-10.8333" y1="21.1027" x2="33.6858" y2="-23.4164" stroke="#C25E5E" stroke-opacity="0.2" stroke-width="0.0479044"/>
<line x1="-0.868499" y1="31.4503" x2="43.6506" y2="-13.0688" stroke="#9CA3AF" stroke-width="0.0479044"/>
<line x1="-0.868499" y1="31.4503" x2="43.6506" y2="-13.0688" stroke="#C25E5E" stroke-opacity="0.2" stroke-width="0.0479044"/>
<line x1="-13.7708" y1="19.9533" x2="30.7483" y2="-24.5659" stroke="#9CA3AF" stroke-width="0.0479044"/>
<line x1="-13.7708" y1="19.9533" x2="30.7483" y2="-24.5659" stroke="#C25E5E" stroke-opacity="0.2" stroke-width="0.0479044"/>
<line x1="-7.89487" y1="25.8293" x2="36.6243" y2="-18.6899" stroke="#9CA3AF" stroke-width="0.0479044"/>
<line x1="-7.89487" y1="25.8293" x2="36.6243" y2="-18.6899" stroke="#C25E5E" stroke-opacity="0.2" stroke-width="0.0479044"/>
<line x1="-12.43" y1="20.2086" x2="32.0891" y2="-24.3105" stroke="#9CA3AF" stroke-width="0.0479044"/>
<line x1="-12.43" y1="20.2086" x2="32.0891" y2="-24.3105" stroke="#C25E5E" stroke-opacity="0.2" stroke-width="0.0479044"/>
<line x1="-2.46518" y1="30.5558" x2="42.054" y2="-13.9633" stroke="#9CA3AF" stroke-width="0.0479044"/>
<line x1="-2.46518" y1="30.5558" x2="42.054" y2="-13.9633" stroke="#C25E5E" stroke-opacity="0.2" stroke-width="0.0479044"/>
<line x1="-4.95639" y1="27.9372" x2="39.5627" y2="-16.582" stroke="#9CA3AF" stroke-width="0.0479044"/>
<line x1="-4.95639" y1="27.9372" x2="39.5627" y2="-16.582" stroke="#C25E5E" stroke-opacity="0.2" stroke-width="0.0479044"/>
<line x1="-9.49155" y1="22.3166" x2="35.0276" y2="-22.2026" stroke="#9CA3AF" stroke-width="0.0479044"/>
<line x1="-9.49155" y1="22.3166" x2="35.0276" y2="-22.2026" stroke="#C25E5E" stroke-opacity="0.2" stroke-width="0.0479044"/>
<line x1="0.472321" y1="32.6637" x2="44.9915" y2="-11.8554" stroke="#9CA3AF" stroke-width="0.0479044"/>
<line x1="0.472321" y1="32.6637" x2="44.9915" y2="-11.8554" stroke="#C25E5E" stroke-opacity="0.2" stroke-width="0.0479044"/>
<line x1="-16.2621" y1="17.3341" x2="28.2571" y2="-27.185" stroke="#9CA3AF" stroke-width="0.0479044"/>
<line x1="-16.2621" y1="17.3341" x2="28.2571" y2="-27.185" stroke="#C25E5E" stroke-opacity="0.2" stroke-width="0.0479044"/>
<line x1="-14.0267" y1="18.9313" x2="30.4924" y2="-25.5878" stroke="#9CA3AF" stroke-width="0.0479044"/>
<line x1="-14.0267" y1="18.9313" x2="30.4924" y2="-25.5878" stroke="#C25E5E" stroke-opacity="0.2" stroke-width="0.0479044"/>
<line x1="-16.5179" y1="16.3127" x2="28.0012" y2="-28.2065" stroke="#9CA3AF" stroke-width="0.0479044"/>
<line x1="-16.5179" y1="16.3127" x2="28.0012" y2="-28.2065" stroke="#C25E5E" stroke-opacity="0.2" stroke-width="0.0479044"/>
<line x1="-15.1761" y1="17.526" x2="29.343" y2="-26.9931" stroke="#9CA3AF" stroke-width="0.0479044"/>
<line x1="-15.1761" y1="17.526" x2="29.343" y2="-26.9931" stroke="#C25E5E" stroke-opacity="0.2" stroke-width="0.0479044"/>
<line x1="-15.304" y1="18.612" x2="29.2151" y2="-25.9072" stroke="#9CA3AF" stroke-width="0.0479044"/>
<line x1="-15.304" y1="18.612" x2="29.2151" y2="-25.9072" stroke="#C25E5E" stroke-opacity="0.2" stroke-width="0.0479044"/>
<line x1="-13.9622" y1="19.8253" x2="30.5569" y2="-24.6938" stroke="#9CA3AF" stroke-width="0.0479044"/>
<line x1="-13.9622" y1="19.8253" x2="30.5569" y2="-24.6938" stroke="#C25E5E" stroke-opacity="0.2" stroke-width="0.0479044"/>
<line x1="-16.4535" y1="17.2067" x2="28.0657" y2="-27.3124" stroke="#9CA3AF" stroke-width="0.0479044"/>
<line x1="-16.4535" y1="17.2067" x2="28.0657" y2="-27.3124" stroke="#C25E5E" stroke-opacity="0.2" stroke-width="0.0479044"/>
<line x1="-14.2181" y1="18.8034" x2="30.301" y2="-25.7158" stroke="#9CA3AF" stroke-width="0.0479044"/>
<line x1="-14.2181" y1="18.8034" x2="30.301" y2="-25.7158" stroke="#C25E5E" stroke-opacity="0.2" stroke-width="0.0479044"/>
<line x1="-16.7093" y1="16.1847" x2="27.8098" y2="-28.3344" stroke="#9CA3AF" stroke-width="0.0479044"/>
<line x1="-16.7093" y1="16.1847" x2="27.8098" y2="-28.3344" stroke="#C25E5E" stroke-opacity="0.2" stroke-width="0.0479044"/>
<line x1="-15.3675" y1="17.3981" x2="29.1516" y2="-27.121" stroke="#9CA3AF" stroke-width="0.0479044"/>
<line x1="-15.3675" y1="17.3981" x2="29.1516" y2="-27.121" stroke="#C25E5E" stroke-opacity="0.2" stroke-width="0.0479044"/>
<line x1="-14.8568" y1="18.8034" x2="29.6624" y2="-25.7158" stroke="#9CA3AF" stroke-width="0.0479044"/>
<line x1="-14.8568" y1="18.8034" x2="29.6624" y2="-25.7158" stroke="#C25E5E" stroke-opacity="0.2" stroke-width="0.0479044"/>
<line x1="-17.348" y1="16.1847" x2="27.1711" y2="-28.3344" stroke="#9CA3AF" stroke-width="0.0479044"/>
<line x1="-17.348" y1="16.1847" x2="27.1711" y2="-28.3344" stroke="#C25E5E" stroke-opacity="0.2" stroke-width="0.0479044"/>
<line x1="-13.516" y1="20.0172" x2="31.0032" y2="-24.5019" stroke="#9CA3AF" stroke-width="0.0479044"/>
<line x1="-13.516" y1="20.0172" x2="31.0032" y2="-24.5019" stroke="#C25E5E" stroke-opacity="0.2" stroke-width="0.0479044"/>
<line x1="-16.0062" y1="17.3981" x2="28.5129" y2="-27.121" stroke="#9CA3AF" stroke-width="0.0479044"/>
<line x1="-16.0062" y1="17.3981" x2="28.5129" y2="-27.121" stroke="#C25E5E" stroke-opacity="0.2" stroke-width="0.0479044"/>
<line x1="-13.7708" y1="18.9953" x2="30.7483" y2="-25.5239" stroke="#9CA3AF" stroke-width="0.0479044"/>
<line x1="-13.7708" y1="18.9953" x2="30.7483" y2="-25.5239" stroke="#C25E5E" stroke-opacity="0.2" stroke-width="0.0479044"/>
<line x1="-16.2621" y1="16.3761" x2="28.2571" y2="-28.143" stroke="#9CA3AF" stroke-width="0.0479044"/>
<line x1="-16.2621" y1="16.3761" x2="28.2571" y2="-28.143" stroke="#C25E5E" stroke-opacity="0.2" stroke-width="0.0479044"/>
<line x1="-14.9203" y1="17.59" x2="29.5989" y2="-26.9291" stroke="#9CA3AF" stroke-width="0.0479044"/>
<line x1="-14.9203" y1="17.59" x2="29.5989" y2="-26.9291" stroke="#C25E5E" stroke-opacity="0.2" stroke-width="0.0479044"/>
</g>
<path fill-rule="evenodd" clip-rule="evenodd" d="M16.4855 3.99852C17.1715 3.31257 17.1715 2.20042 16.4855 1.51447C15.7996 0.828512 14.6874 0.828512 14.0015 1.51447L8.99014 6.5258L3.99852 1.53418C3.31257 0.848222 2.20042 0.848222 1.51447 1.53418C0.828512 2.22013 0.828512 3.33228 1.51447 4.01823L6.50609 9.00986L1.53415 13.9818C0.848199 14.6677 0.848199 15.7799 1.53415 16.4658C2.22011 17.1518 3.33226 17.1518 4.01821 16.4658L8.99014 11.4939L13.9818 16.4856C14.6677 17.1715 15.7799 17.1715 16.4658 16.4856C17.1518 15.7996 17.1518 14.6875 16.4658 14.0015L11.4742 9.00986L16.4855 3.99852Z" fill="#FCA5A5"/>
<path d="M16.4855 1.51447L16.463 1.53705L16.4855 1.51447ZM16.4855 3.99852L16.5081 4.0211L16.4855 3.99852ZM14.0015 1.51447L14.0241 1.53705L14.0015 1.51447ZM8.99014 6.5258L8.96756 6.54838L8.99014 6.57096L9.01273 6.54838L8.99014 6.5258ZM3.99852 1.53418L4.0211 1.51159V1.51159L3.99852 1.53418ZM1.51447 1.53418L1.53705 1.55676L1.51447 1.53418ZM1.51447 4.01823L1.53705 3.99565L1.51447 4.01823ZM6.50609 9.00986L6.52867 9.03244L6.55125 9.00986L6.52867 8.98727L6.50609 9.00986ZM1.53415 13.9818L1.51157 13.9592H1.51157L1.53415 13.9818ZM1.53415 16.4658L1.51157 16.4884L1.53415 16.4658ZM4.01821 16.4658L4.04079 16.4884L4.01821 16.4658ZM8.99014 11.4939L9.01273 11.4713L8.99014 11.4487L8.96756 11.4713L8.99014 11.4939ZM13.9818 16.4856L14.0044 16.463L13.9818 16.4856ZM16.4658 16.4856L16.4433 16.463L16.4658 16.4856ZM16.4658 14.0015L16.4433 14.0241L16.4658 14.0015ZM11.4742 9.00986L11.4516 8.98727L11.429 9.00986L11.4516 9.03244L11.4742 9.00986ZM16.463 1.53705C17.1364 2.21053 17.1364 3.30246 16.463 3.97594L16.5081 4.0211C17.2065 3.32268 17.2065 2.19031 16.5081 1.49188L16.463 1.53705ZM14.0241 1.53705C14.6975 0.863566 15.7895 0.863566 16.463 1.53705L16.5081 1.49188C15.8097 0.793457 14.6773 0.793457 13.9789 1.49188L14.0241 1.53705ZM9.01273 6.54838L14.0241 1.53705L13.9789 1.49188L8.96756 6.50322L9.01273 6.54838ZM3.97594 1.55676L8.96756 6.54838L9.01273 6.50322L4.0211 1.51159L3.97594 1.55676ZM1.53705 1.55676C2.21053 0.883277 3.30246 0.883277 3.97594 1.55676L4.0211 1.51159C3.32268 0.813168 2.19031 0.813168 1.49188 1.51159L1.53705 1.55676ZM1.53705 3.99565C0.863566 3.32217 0.863566 2.23024 1.53705 1.55676L1.49188 1.51159C0.793457 2.21002 0.793457 3.34239 1.49188 4.04082L1.53705 3.99565ZM6.52867 8.98727L1.53705 3.99565L1.49188 4.04082L6.4835 9.03244L6.52867 8.98727ZM1.55674 14.0044L6.52867 9.03244L6.4835 8.98727L1.51157 13.9592L1.55674 14.0044ZM1.55673 16.4433C0.883253 15.7698 0.883253 14.6779 1.55674 14.0044L1.51157 13.9592C0.813145 14.6576 0.813145 15.79 1.51157 16.4884L1.55673 16.4433ZM3.99563 16.4433C3.32215 17.1167 2.23022 17.1167 1.55673 16.4433L1.51157 16.4884C2.21 17.1869 3.34237 17.1869 4.04079 16.4884L3.99563 16.4433ZM8.96756 11.4713L3.99563 16.4433L4.04079 16.4884L9.01273 11.5165L8.96756 11.4713ZM14.0044 16.463L9.01273 11.4713L8.96756 11.5165L13.9592 16.5081L14.0044 16.463ZM16.4433 16.463C15.7698 17.1365 14.6779 17.1365 14.0044 16.463L13.9592 16.5081C14.6576 17.2066 15.79 17.2066 16.4884 16.5081L16.4433 16.463ZM16.4433 14.0241C17.1167 14.6976 17.1167 15.7895 16.4433 16.463L16.4884 16.5081C17.1869 15.8097 17.1869 14.6773 16.4884 13.9789L16.4433 14.0241ZM11.4516 9.03244L16.4433 14.0241L16.4884 13.9789L11.4968 8.98727L11.4516 9.03244ZM16.463 3.97594L11.4516 8.98727L11.4968 9.03244L16.5081 4.0211L16.463 3.97594Z" fill="#6B7280"/>
</svg>
