<svg width="192" height="174" viewBox="0 0 192 174" fill="none" xmlns="http://www.w3.org/2000/svg">
<rect x="0.688749" y="85.8046" width="161" height="102" rx="5.5" transform="rotate(-31.9157 0.688749 85.8046)" fill="#F0FDFA"/>
<rect x="0.688749" y="85.8046" width="161" height="102" rx="5.5" transform="rotate(-31.9157 0.688749 85.8046)" stroke="#CCFBF1"/>
<mask id="mask0_381_21659" style="mask-type:alpha" maskUnits="userSpaceOnUse" x="13" y="10" width="169" height="153">
<g clip-path="url(#clip0_381_21659)">
<path d="M130.115 61.5373C134.195 55.9928 138.077 50.2803 142.073 44.6724L145.826 39.4416C147.26 37.453 150.572 33.4688 146.723 31.6522C144.804 30.7467 140.999 32.2393 139.055 32.707L77.4623 47.5257C76.3895 47.7743 75.29 47.9803 74.2494 48.3423C72.1857 49.3779 64.8105 59.1517 62.9321 61.4304L29.8059 101.49C28.5795 102.966 25.8825 105.298 26.3222 107.448C26.9158 110.352 30.0994 109.525 32.1306 109.21L37.1905 108.399C41.1651 107.742 45.161 107.226 49.111 106.421C50.2283 109.991 53.084 113.668 55.0547 116.833C55.8604 118.126 59.0969 124.076 60.1887 124.594C61.7836 125.351 63.3956 123.802 62.7313 122.199C62.2113 120.944 61.282 119.707 60.5596 118.55L56.2388 111.619C55.1189 109.821 53.8492 107.976 53.0618 106L53.0175 105.886C55.2925 105.363 58.5931 104.687 60.8927 104.652L72.5856 123.454C73.6862 125.272 74.4052 126.714 76.4363 127.625C82.1296 130.176 91.8563 126.622 97.3453 124.53C110.275 119.345 140.518 101.251 143.763 87.1313C144.414 84.2975 143.384 82.8315 141.939 80.5118L130.116 61.5379L130.115 61.5373ZM75.8606 51.8801C78.5147 50.9843 81.5594 50.4253 84.3086 49.7833L125.418 39.8711C131.615 38.3637 137.809 36.7908 144.046 35.4496C137.941 43.7596 132.069 52.2366 126.115 60.6567L110.568 82.8393C107.868 86.7509 105.107 90.628 102.445 94.565C99.7331 94.8632 97.0274 95.3343 94.3275 95.7344L77.8596 98.2354C69.6055 99.498 61.3127 100.512 53.0639 101.818L52.9134 101.772C52.7534 99.3823 59.1185 93.3309 60.6981 91.5829L77.1147 73.4409C78.4224 71.9895 86.0625 64.3254 85.9661 62.6865C85.9056 61.6648 84.9927 60.8356 83.9642 60.9597C82.4224 61.1447 76.9221 68.0414 75.6217 69.4717L54.524 92.6823C51.4243 96.0939 49.3996 97.6892 48.9362 102.624L36.5094 104.649C34.8634 104.931 33.1524 105.131 31.5323 105.526C32.5826 103.979 33.8522 102.577 35.0501 101.144L71.6898 56.8536C72.5486 55.827 74.9772 52.5286 75.8601 51.8804L75.8606 51.8801ZM64.9473 104.06C66.6819 103.588 68.545 103.368 70.3244 103.113L77.7322 102.09C84.1347 101.231 90.552 100.277 96.9339 99.2783C98.9259 98.9663 102.871 98.6453 104.604 98.0318C105.47 97.151 106.153 95.9607 106.85 94.9413L110.306 89.9053C115.759 82.0032 121.798 72.2728 127.819 64.9023L136.553 78.9246C137.753 80.8393 140.569 84.0618 140.039 86.3373C137.849 95.733 119.14 108.56 110.2 113.991C103.672 117.957 86.3844 126.304 78.9808 124.45C76.9726 123.947 76.5825 122.754 75.5614 121.112L67.4769 108.122C66.6736 106.84 65.516 105.449 64.9465 104.06L64.9473 104.06Z" fill="black"/>
<path d="M69.7195 133.263C68.5212 131.372 67.6253 128.244 65.1615 128.676C61.7368 130.115 66.1892 133.556 66.4733 135.49C66.9044 138.423 65.6935 143.763 66.5226 146.239C67.5061 147.189 76.3461 151.265 77.847 151.057C78.2875 150.846 78.6471 150.626 79.0306 150.32C79.4497 149.244 79.6445 141.372 79.6385 139.461C79.6312 136.933 76.9616 136.444 75.0499 135.635C73.2632 134.878 71.4674 134.108 69.72 133.263L69.7195 133.263ZM70.2197 137.786C71.758 138.295 74.5339 139.339 75.9026 140.155C75.9144 141.833 75.7974 144.688 75.5352 146.321C73.7433 145.39 71.8227 144.645 69.9651 143.853C70.0769 141.833 70.227 139.811 70.2197 137.786Z" fill="black"/>
</g>
</mask>
<g mask="url(#mask0_381_21659)">
<line y1="-0.375" x2="559.642" y2="-0.375" transform="matrix(-0.974038 -0.226385 -0.226385 0.974038 386.731 136.646)" stroke="#5EEAD4" stroke-width="0.75"/>
<line y1="-0.375" x2="559.642" y2="-0.375" transform="matrix(-0.974038 -0.226385 -0.226385 0.974038 367.979 197.821)" stroke="#5EEAD4" stroke-width="0.75"/>
<line y1="-0.375" x2="559.642" y2="-0.375" transform="matrix(-0.974038 -0.226385 -0.226385 0.974038 394.534 72.9248)" stroke="#5EEAD4" stroke-width="0.75"/>
<line y1="-0.375" x2="559.642" y2="-0.375" transform="matrix(-0.974038 -0.226385 -0.226385 0.974038 374.468 166.356)" stroke="#5EEAD4" stroke-width="0.75"/>
<line y1="-0.375" x2="559.642" y2="-0.375" transform="matrix(-0.974038 -0.226385 -0.226385 0.974038 382.271 102.636)" stroke="#5EEAD4" stroke-width="0.75"/>
<line y1="-0.375" x2="559.642" y2="-0.375" transform="matrix(-0.974038 -0.226385 -0.226385 0.974038 355.715 227.533)" stroke="#5EEAD4" stroke-width="0.75"/>
<line y1="-0.375" x2="559.642" y2="-0.375" transform="matrix(-0.974038 -0.226385 -0.226385 0.974038 382.314 152.105)" stroke="#5EEAD4" stroke-width="0.75"/>
<line y1="-0.375" x2="559.642" y2="-0.375" transform="matrix(-0.974038 -0.226385 -0.226385 0.974038 363.562 213.282)" stroke="#5EEAD4" stroke-width="0.75"/>
<line y1="-0.375" x2="559.642" y2="-0.375" transform="matrix(-0.974038 -0.226385 -0.226385 0.974038 370.05 181.817)" stroke="#5EEAD4" stroke-width="0.75"/>
<line y1="-0.375" x2="559.642" y2="-0.375" transform="matrix(-0.974038 -0.226385 -0.226385 0.974038 377.853 118.096)" stroke="#5EEAD4" stroke-width="0.75"/>
<line y1="-0.375" x2="559.642" y2="-0.375" transform="matrix(-0.974038 -0.226385 -0.226385 0.974038 351.298 242.992)" stroke="#5EEAD4" stroke-width="0.75"/>
<line y1="-0.375" x2="559.642" y2="-0.375" transform="matrix(-0.974038 -0.226385 -0.226385 0.974038 379.439 143.194)" stroke="#5EEAD4" stroke-width="0.75"/>
<line y1="-0.375" x2="559.642" y2="-0.375" transform="matrix(-0.974038 -0.226385 -0.226385 0.974038 360.687 204.37)" stroke="#5EEAD4" stroke-width="0.75"/>
<line y1="-0.375" x2="559.642" y2="-0.375" transform="matrix(-0.974038 -0.226385 -0.226385 0.974038 367.176 172.905)" stroke="#5EEAD4" stroke-width="0.75"/>
<line y1="-0.375" x2="559.642" y2="-0.375" transform="matrix(-0.974038 -0.226385 -0.226385 0.974038 374.979 109.185)" stroke="#5EEAD4" stroke-width="0.75"/>
<line y1="-0.375" x2="559.642" y2="-0.375" transform="matrix(-0.974038 -0.226385 -0.226385 0.974038 348.424 234.08)" stroke="#5EEAD4" stroke-width="0.75"/>
<line y1="-0.375" x2="559.642" y2="-0.375" transform="matrix(-0.974038 -0.226385 -0.226385 0.974038 375.022 158.653)" stroke="#5EEAD4" stroke-width="0.75"/>
<line y1="-0.375" x2="559.642" y2="-0.375" transform="matrix(-0.974038 -0.226385 -0.226385 0.974038 382.824 94.9326)" stroke="#5EEAD4" stroke-width="0.75"/>
<line y1="-0.375" x2="559.642" y2="-0.375" transform="matrix(-0.974038 -0.226385 -0.226385 0.974038 356.27 219.83)" stroke="#5EEAD4" stroke-width="0.75"/>
<line y1="-0.375" x2="559.642" y2="-0.375" transform="matrix(-0.974038 -0.226385 -0.226385 0.974038 390.117 88.3848)" stroke="#5EEAD4" stroke-width="0.75"/>
<line y1="-0.375" x2="559.642" y2="-0.375" transform="matrix(-0.974038 -0.226385 -0.226385 0.974038 362.758 188.365)" stroke="#5EEAD4" stroke-width="0.75"/>
<line y1="-0.375" x2="559.642" y2="-0.375" transform="matrix(-0.974038 -0.226385 -0.226385 0.974038 370.562 124.645)" stroke="#5EEAD4" stroke-width="0.75"/>
<line y1="-0.375" x2="559.642" y2="-0.375" transform="matrix(-0.974038 -0.226385 -0.226385 0.974038 344.006 249.54)" stroke="#5EEAD4" stroke-width="0.75"/>
<line y1="-0.375" x2="559.642" y2="-0.375" transform="matrix(-0.974038 -0.226385 -0.226385 0.974038 384.258 140.193)" stroke="#5EEAD4" stroke-width="0.75"/>
<line y1="-0.375" x2="559.642" y2="-0.375" transform="matrix(-0.974038 -0.226385 -0.226385 0.974038 396.606 56.9189)" stroke="#5EEAD4" stroke-width="0.75"/>
<line y1="-0.375" x2="559.642" y2="-0.375" transform="matrix(-0.974038 -0.226385 -0.226385 0.974038 365.506 201.369)" stroke="#5EEAD4" stroke-width="0.75"/>
<line y1="-0.375" x2="559.642" y2="-0.375" transform="matrix(-0.974038 -0.226385 -0.226385 0.974038 371.995 169.903)" stroke="#5EEAD4" stroke-width="0.75"/>
<line y1="-0.375" x2="559.642" y2="-0.375" transform="matrix(-0.974038 -0.226385 -0.226385 0.974038 379.798 106.183)" stroke="#5EEAD4" stroke-width="0.75"/>
<line y1="-0.375" x2="559.642" y2="-0.375" transform="matrix(-0.974038 -0.226385 -0.226385 0.974038 353.242 231.079)" stroke="#5EEAD4" stroke-width="0.75"/>
<line y1="-0.375" x2="559.642" y2="-0.375" transform="matrix(-0.974038 -0.226385 -0.226385 0.974038 379.84 155.652)" stroke="#5EEAD4" stroke-width="0.75"/>
<line y1="-0.375" x2="559.642" y2="-0.375" transform="matrix(-0.974038 -0.226385 -0.226385 0.974038 361.089 216.828)" stroke="#5EEAD4" stroke-width="0.75"/>
<line y1="-0.375" x2="559.642" y2="-0.375" transform="matrix(-0.974038 -0.226385 -0.226385 0.974038 367.578 185.363)" stroke="#5EEAD4" stroke-width="0.75"/>
<line y1="-0.375" x2="559.642" y2="-0.375" transform="matrix(-0.974038 -0.226385 -0.226385 0.974038 375.38 121.643)" stroke="#5EEAD4" stroke-width="0.75"/>
<line y1="-0.375" x2="559.642" y2="-0.375" transform="matrix(-0.974038 -0.226385 -0.226385 0.974038 348.826 246.538)" stroke="#5EEAD4" stroke-width="0.75"/>
<line y1="-0.375" x2="559.642" y2="-0.375" transform="matrix(-0.974038 -0.226385 -0.226385 0.974038 376.967 146.74)" stroke="#5EEAD4" stroke-width="0.75"/>
<line y1="-0.375" x2="559.642" y2="-0.375" transform="matrix(-0.974038 -0.226385 -0.226385 0.974038 387.242 79.4736)" stroke="#5EEAD4" stroke-width="0.75"/>
<line y1="-0.375" x2="559.642" y2="-0.375" transform="matrix(-0.974038 -0.226385 -0.226385 0.974038 358.213 207.917)" stroke="#5EEAD4" stroke-width="0.75"/>
<line y1="-0.375" x2="559.642" y2="-0.375" transform="matrix(-0.974038 -0.226385 -0.226385 0.974038 364.702 176.452)" stroke="#5EEAD4" stroke-width="0.75"/>
<line y1="-0.375" x2="559.642" y2="-0.375" transform="matrix(-0.974038 -0.226385 -0.226385 0.974038 372.506 112.73)" stroke="#5EEAD4" stroke-width="0.75"/>
<line y1="-0.375" x2="559.642" y2="-0.375" transform="matrix(-0.974038 -0.226385 -0.226385 0.974038 345.95 237.628)" stroke="#5EEAD4" stroke-width="0.75"/>
<line y1="-0.375" x2="559.642" y2="-0.375" transform="matrix(-0.974038 -0.226385 -0.226385 0.974038 393.73 48.0088)" stroke="#5EEAD4" stroke-width="0.75"/>
<line y1="-0.375" x2="559.642" y2="-0.375" transform="matrix(-0.974038 -0.226385 -0.226385 0.974038 372.549 162.201)" stroke="#5EEAD4" stroke-width="0.75"/>
<line y1="-0.375" x2="559.642" y2="-0.375" transform="matrix(-0.974038 -0.226385 -0.226385 0.974038 380.352 98.4805)" stroke="#5EEAD4" stroke-width="0.75"/>
<line y1="-0.375" x2="559.642" y2="-0.375" transform="matrix(-0.974038 -0.226385 -0.226385 0.974038 353.796 223.377)" stroke="#5EEAD4" stroke-width="0.75"/>
<line y1="-0.375" x2="559.642" y2="-0.375" transform="matrix(-0.974038 -0.226385 -0.226385 0.974038 360.285 191.911)" stroke="#5EEAD4" stroke-width="0.75"/>
<line y1="-0.375" x2="559.642" y2="-0.375" transform="matrix(-0.974038 -0.226385 -0.226385 0.974038 368.088 128.191)" stroke="#5EEAD4" stroke-width="0.75"/>
<line y1="-0.375" x2="559.642" y2="-0.375" transform="matrix(-0.974038 -0.226385 -0.226385 0.974038 341.532 253.088)" stroke="#5EEAD4" stroke-width="0.75"/>
<line y1="-0.375" x2="559.642" y2="-0.375" transform="matrix(-0.974038 -0.226385 -0.226385 0.974038 385.104 138.328)" stroke="#5EEAD4" stroke-width="0.75"/>
<line y1="-0.375" x2="559.642" y2="-0.375" transform="matrix(-0.974038 -0.226385 -0.226385 0.974038 366.352 199.504)" stroke="#5EEAD4" stroke-width="0.75"/>
<line y1="-0.375" x2="559.642" y2="-0.375" transform="matrix(-0.974038 -0.226385 -0.226385 0.974038 372.841 168.039)" stroke="#5EEAD4" stroke-width="0.75"/>
<line y1="-0.375" x2="559.642" y2="-0.375" transform="matrix(-0.974038 -0.226385 -0.226385 0.974038 380.644 104.318)" stroke="#5EEAD4" stroke-width="0.75"/>
<line y1="-0.375" x2="559.642" y2="-0.375" transform="matrix(-0.974038 -0.226385 -0.226385 0.974038 354.088 229.215)" stroke="#5EEAD4" stroke-width="0.75"/>
<line y1="-0.375" x2="559.642" y2="-0.375" transform="matrix(-0.974038 -0.226385 -0.226385 0.974038 380.687 153.788)" stroke="#5EEAD4" stroke-width="0.75"/>
<line y1="-0.375" x2="559.642" y2="-0.375" transform="matrix(-0.974038 -0.226385 -0.226385 0.974038 361.935 214.964)" stroke="#5EEAD4" stroke-width="0.75"/>
<line y1="-0.375" x2="559.642" y2="-0.375" transform="matrix(-0.974038 -0.226385 -0.226385 0.974038 368.422 183.499)" stroke="#5EEAD4" stroke-width="0.75"/>
<line y1="-0.375" x2="559.642" y2="-0.375" transform="matrix(-0.974038 -0.226385 -0.226385 0.974038 376.227 119.778)" stroke="#5EEAD4" stroke-width="0.75"/>
<line y1="-0.375" x2="559.642" y2="-0.375" transform="matrix(-0.974038 -0.226385 -0.226385 0.974038 349.67 244.676)" stroke="#5EEAD4" stroke-width="0.75"/>
<line y1="-0.375" x2="559.642" y2="-0.375" transform="matrix(-0.974038 -0.226385 -0.226385 0.974038 389.313 63.4678)" stroke="#5EEAD4" stroke-width="0.75"/>
<line y1="-0.375" x2="559.642" y2="-0.375" transform="matrix(-0.974038 -0.226385 -0.226385 0.974038 377.812 144.876)" stroke="#5EEAD4" stroke-width="0.75"/>
<line y1="-0.375" x2="559.642" y2="-0.375" transform="matrix(-0.974038 -0.226385 -0.226385 0.974038 359.059 206.053)" stroke="#5EEAD4" stroke-width="0.75"/>
<line y1="-0.375" x2="559.642" y2="-0.375" transform="matrix(-0.974038 -0.226385 -0.226385 0.974038 365.548 174.588)" stroke="#5EEAD4" stroke-width="0.75"/>
<line y1="-0.375" x2="559.642" y2="-0.375" transform="matrix(-0.974038 -0.226385 -0.226385 0.974038 373.351 110.867)" stroke="#5EEAD4" stroke-width="0.75"/>
<line y1="-0.375" x2="559.642" y2="-0.375" transform="matrix(-0.974038 -0.226385 -0.226385 0.974038 346.796 235.763)" stroke="#5EEAD4" stroke-width="0.75"/>
<line y1="-0.375" x2="559.642" y2="-0.375" transform="matrix(-0.974038 -0.226385 -0.226385 0.974038 373.395 160.337)" stroke="#5EEAD4" stroke-width="0.75"/>
<line y1="-0.375" x2="559.642" y2="-0.375" transform="matrix(-0.974038 -0.226385 -0.226385 0.974038 381.197 96.6162)" stroke="#5EEAD4" stroke-width="0.75"/>
<line y1="-0.375" x2="559.642" y2="-0.375" transform="matrix(-0.974038 -0.226385 -0.226385 0.974038 354.642 221.513)" stroke="#5EEAD4" stroke-width="0.75"/>
<line y1="-0.375" x2="559.642" y2="-0.375" transform="matrix(-0.974038 -0.226385 -0.226385 0.974038 361.13 190.047)" stroke="#5EEAD4" stroke-width="0.75"/>
<line y1="-0.375" x2="559.642" y2="-0.375" transform="matrix(-0.974038 -0.226385 -0.226385 0.974038 368.934 126.327)" stroke="#5EEAD4" stroke-width="0.75"/>
<line y1="-0.375" x2="559.642" y2="-0.375" transform="matrix(-0.974038 -0.226385 -0.226385 0.974038 342.378 251.224)" stroke="#5EEAD4" stroke-width="0.75"/>
<line y1="-0.375" x2="559.642" y2="-0.375" transform="matrix(-0.974038 -0.226385 -0.226385 0.974038 382.631 141.875)" stroke="#5EEAD4" stroke-width="0.75"/>
<line y1="-0.375" x2="559.642" y2="-0.375" transform="matrix(-0.974038 -0.226385 -0.226385 0.974038 392.061 76.4717)" stroke="#5EEAD4" stroke-width="0.75"/>
<line y1="-0.375" x2="559.642" y2="-0.375" transform="matrix(-0.974038 -0.226385 -0.226385 0.974038 363.879 203.051)" stroke="#5EEAD4" stroke-width="0.75"/>
<line y1="-0.375" x2="559.642" y2="-0.375" transform="matrix(-0.974038 -0.226385 -0.226385 0.974038 370.367 171.586)" stroke="#5EEAD4" stroke-width="0.75"/>
<line y1="-0.375" x2="559.642" y2="-0.375" transform="matrix(-0.974038 -0.226385 -0.226385 0.974038 378.17 107.865)" stroke="#5EEAD4" stroke-width="0.75"/>
<line y1="-0.375" x2="559.642" y2="-0.375" transform="matrix(-0.974038 -0.226385 -0.226385 0.974038 351.615 232.762)" stroke="#5EEAD4" stroke-width="0.75"/>
<line y1="-0.375" x2="559.642" y2="-0.375" transform="matrix(-0.974038 -0.226385 -0.226385 0.974038 398.551 45.0068)" stroke="#5EEAD4" stroke-width="0.75"/>
<line y1="-0.375" x2="559.642" y2="-0.375" transform="matrix(-0.974038 -0.226385 -0.226385 0.974038 378.214 157.335)" stroke="#5EEAD4" stroke-width="0.75"/>
<line y1="-0.375" x2="559.642" y2="-0.375" transform="matrix(-0.974038 -0.226385 -0.226385 0.974038 359.461 218.511)" stroke="#5EEAD4" stroke-width="0.75"/>
<line y1="-0.375" x2="559.642" y2="-0.375" transform="matrix(-0.974038 -0.226385 -0.226385 0.974038 365.95 187.046)" stroke="#5EEAD4" stroke-width="0.75"/>
<line y1="-0.375" x2="559.642" y2="-0.375" transform="matrix(-0.974038 -0.226385 -0.226385 0.974038 373.753 123.325)" stroke="#5EEAD4" stroke-width="0.75"/>
<line y1="-0.375" x2="559.642" y2="-0.375" transform="matrix(-0.974038 -0.226385 -0.226385 0.974038 347.197 248.223)" stroke="#5EEAD4" stroke-width="0.75"/>
<line y1="-0.375" x2="559.642" y2="-0.375" transform="matrix(-0.974038 -0.226385 -0.226385 0.974038 375.339 148.423)" stroke="#5EEAD4" stroke-width="0.75"/>
<line y1="-0.375" x2="559.642" y2="-0.375" transform="matrix(-0.974038 -0.226385 -0.226385 0.974038 356.586 209.599)" stroke="#5EEAD4" stroke-width="0.75"/>
<line y1="-0.375" x2="559.642" y2="-0.375" transform="matrix(-0.974038 -0.226385 -0.226385 0.974038 363.075 178.135)" stroke="#5EEAD4" stroke-width="0.75"/>
<line y1="-0.375" x2="559.642" y2="-0.375" transform="matrix(-0.974038 -0.226385 -0.226385 0.974038 370.877 114.414)" stroke="#5EEAD4" stroke-width="0.75"/>
<line y1="-0.375" x2="559.642" y2="-0.375" transform="matrix(-0.974038 -0.226385 -0.226385 0.974038 344.323 239.311)" stroke="#5EEAD4" stroke-width="0.75"/>
<line y1="-0.375" x2="559.642" y2="-0.375" transform="matrix(-0.974038 -0.226385 -0.226385 0.974038 387.645 91.9307)" stroke="#5EEAD4" stroke-width="0.75"/>
<line y1="-0.375" x2="559.642" y2="-0.375" transform="matrix(-0.974038 -0.226385 -0.226385 0.974038 370.921 163.884)" stroke="#5EEAD4" stroke-width="0.75"/>
<line y1="-0.375" x2="559.642" y2="-0.375" transform="matrix(-0.974038 -0.226385 -0.226385 0.974038 378.724 100.163)" stroke="#5EEAD4" stroke-width="0.75"/>
<line y1="-0.375" x2="559.642" y2="-0.375" transform="matrix(-0.974038 -0.226385 -0.226385 0.974038 352.169 225.06)" stroke="#5EEAD4" stroke-width="0.75"/>
<line y1="-0.375" x2="559.642" y2="-0.375" transform="matrix(-0.974038 -0.226385 -0.226385 0.974038 358.657 193.594)" stroke="#5EEAD4" stroke-width="0.75"/>
<line y1="-0.375" x2="559.642" y2="-0.375" transform="matrix(-0.974038 -0.226385 -0.226385 0.974038 366.461 129.873)" stroke="#5EEAD4" stroke-width="0.75"/>
<line y1="-0.375" x2="559.642" y2="-0.375" transform="matrix(-0.974038 -0.226385 -0.226385 0.974038 339.905 254.771)" stroke="#5EEAD4" stroke-width="0.75"/>
<line y1="-0.375" x2="559.642" y2="-0.375" transform="matrix(-0.974038 -0.226385 -0.226385 0.974038 394.132 60.4668)" stroke="#5EEAD4" stroke-width="0.75"/>
<line y1="-0.375" x2="559.642" y2="-0.375" transform="matrix(-0.974038 -0.226385 -0.226385 0.974038 384.769 83.0205)" stroke="#5EEAD4" stroke-width="0.75"/>
<line y1="-0.375" x2="559.642" y2="-0.375" transform="matrix(-0.974038 -0.226385 -0.226385 0.974038 391.258 51.5557)" stroke="#5EEAD4" stroke-width="0.75"/>
<line y1="-0.375" x2="559.642" y2="-0.375" transform="matrix(-0.974038 -0.226385 -0.226385 0.974038 386.841 67.0146)" stroke="#5EEAD4" stroke-width="0.75"/>
<line y1="-0.375" x2="559.642" y2="-0.375" transform="matrix(-0.974038 -0.226385 -0.226385 0.974038 392.907 74.6074)" stroke="#5EEAD4" stroke-width="0.75"/>
<line y1="-0.375" x2="559.642" y2="-0.375" transform="matrix(-0.974038 -0.226385 -0.226385 0.974038 388.489 90.0674)" stroke="#5EEAD4" stroke-width="0.75"/>
<line y1="-0.375" x2="559.642" y2="-0.375" transform="matrix(-0.974038 -0.226385 -0.226385 0.974038 394.978 58.6025)" stroke="#5EEAD4" stroke-width="0.75"/>
<line y1="-0.375" x2="559.642" y2="-0.375" transform="matrix(-0.974038 -0.226385 -0.226385 0.974038 385.614 81.1562)" stroke="#5EEAD4" stroke-width="0.75"/>
<line y1="-0.375" x2="559.642" y2="-0.375" transform="matrix(-0.974038 -0.226385 -0.226385 0.974038 392.104 49.6904)" stroke="#5EEAD4" stroke-width="0.75"/>
<line y1="-0.375" x2="559.642" y2="-0.375" transform="matrix(-0.974038 -0.226385 -0.226385 0.974038 387.686 65.1504)" stroke="#5EEAD4" stroke-width="0.75"/>
<line y1="-0.375" x2="559.642" y2="-0.375" transform="matrix(-0.974038 -0.226385 -0.226385 0.974038 390.434 78.1543)" stroke="#5EEAD4" stroke-width="0.75"/>
<line y1="-0.375" x2="559.642" y2="-0.375" transform="matrix(-0.974038 -0.226385 -0.226385 0.974038 396.923 46.6895)" stroke="#5EEAD4" stroke-width="0.75"/>
<line y1="-0.375" x2="559.642" y2="-0.375" transform="matrix(-0.974038 -0.226385 -0.226385 0.974038 386.017 93.6133)" stroke="#5EEAD4" stroke-width="0.75"/>
<line y1="-0.375" x2="559.642" y2="-0.375" transform="matrix(-0.974038 -0.226385 -0.226385 0.974038 392.506 62.1494)" stroke="#5EEAD4" stroke-width="0.75"/>
<line y1="-0.375" x2="559.642" y2="-0.375" transform="matrix(-0.974038 -0.226385 -0.226385 0.974038 383.142 84.7021)" stroke="#5EEAD4" stroke-width="0.75"/>
<line y1="-0.375" x2="559.642" y2="-0.375" transform="matrix(-0.974038 -0.226385 -0.226385 0.974038 389.63 53.2383)" stroke="#5EEAD4" stroke-width="0.75"/>
<line y1="-0.375" x2="559.642" y2="-0.375" transform="matrix(-0.974038 -0.226385 -0.226385 0.974038 385.213 68.6973)" stroke="#5EEAD4" stroke-width="0.75"/>
</g>
<path d="M75.5786 51.4661L75.5632 51.4774C75.2928 51.6759 74.9427 52.0432 74.5799 52.4569C74.207 52.882 73.7881 53.3943 73.3741 53.9133C73.0015 54.3802 72.6364 54.8479 72.3082 55.2684C71.8963 55.796 71.5426 56.2491 71.3053 56.5328L71.3036 56.5349L34.6655 100.823C34.6653 100.824 34.6652 100.824 34.665 100.824C34.545 100.968 34.4241 101.111 34.3025 101.255C32.8242 103.001 34.4147 105.513 36.5904 105.143C36.5912 105.142 36.592 105.142 36.5927 105.142L45.9656 103.614C48.0089 103.281 49.4041 101.591 50.0014 99.7498C50.7265 97.5152 52.007 96.1358 53.8411 94.1603C54.1735 93.8022 54.5242 93.4246 54.893 93.0186C54.893 93.0186 54.893 93.0186 54.893 93.0186L75.9907 69.8081C76.2582 69.5138 76.6967 68.9967 77.2312 68.3665C77.3612 68.2132 77.4968 68.0532 77.6371 67.888C78.3591 67.0381 79.213 66.0405 80.0734 65.0829C80.9353 64.1234 81.7957 63.213 82.5312 62.534C82.8996 62.1939 83.2271 61.9209 83.501 61.7303C83.7938 61.5265 83.9613 61.4635 84.0228 61.4561L84.0231 61.4561C84.7426 61.3693 85.4211 61.9582 85.466 62.7158C85.4665 62.7248 85.4646 62.7796 85.4237 62.8971C85.3849 63.0087 85.3207 63.1494 85.2276 63.3194C85.0413 63.6595 84.761 64.078 84.4055 64.5557C83.696 65.509 82.7211 66.6527 81.6934 67.8005C80.6675 68.9463 79.5967 70.0876 78.6991 71.0347C78.4294 71.3192 78.1744 71.5873 77.9406 71.833C77.4012 72.4 76.9747 72.8482 76.7426 73.1058C76.7425 73.1059 76.7423 73.1061 76.7422 73.1062L60.3264 91.2474L60.3262 91.2476C60.0577 91.5448 59.6483 91.9685 59.1482 92.4862C58.9369 92.7048 58.7095 92.9403 58.4696 93.19C57.6683 94.0243 56.7411 95.0053 55.8598 96.0118C54.9802 97.0162 54.1368 98.0568 53.508 99.01C53.1935 99.4866 52.9263 99.951 52.7349 100.386C52.5459 100.815 52.4165 101.246 52.4097 101.648C52.4042 101.975 52.6312 102.209 52.8793 102.285M75.5786 51.4661L53.0252 101.806M75.5786 51.4661L75.5948 51.456M75.5786 51.4661L75.5948 51.456M52.8793 102.285L53.0252 101.806M52.8793 102.285C52.8793 102.285 52.8793 102.285 52.8792 102.285L53.0252 101.806M52.8793 102.285C52.9767 102.314 53.0795 102.321 53.1799 102.306L53.1018 101.812C53.0762 101.816 53.05 101.814 53.0252 101.806M75.5948 51.456C75.6282 51.4352 75.6631 51.4188 75.6988 51.4066L75.7003 51.4061M75.5948 51.456L75.7003 51.4061M75.7003 51.4061C77.6947 50.7331 79.9155 50.2455 82.0388 49.7793C82.7728 49.6182 83.4951 49.4596 84.1923 49.2968C84.1929 49.2966 84.1934 49.2965 84.1939 49.2964L125.299 39.3853C125.299 39.3852 125.299 39.3851 125.299 39.3851C126.625 39.0625 127.958 38.7355 129.291 38.4081C130.747 38.0505 132.205 37.6926 133.657 37.34C137.703 36.3576 140.672 40.9264 138.279 44.2847C135.88 47.6526 133.502 51.0331 131.124 54.4152C129.592 56.5923 128.061 58.77 126.522 60.9454M75.7003 51.4061L126.522 60.9454M126.522 60.9454L110.978 83.1233C110.978 83.1238 110.978 83.1242 110.977 83.1247C109.956 84.6037 108.93 86.0728 107.905 87.5408C106.564 89.4618 105.223 91.3808 103.898 93.3173C103.152 94.4067 101.973 95.1118 100.674 95.2863C99.3593 95.4629 98.0527 95.6663 96.7415 95.8704C95.9638 95.9914 95.1844 96.1128 94.4009 96.2289C94.4005 96.2289 94.4001 96.229 94.3998 96.229L126.522 60.9454ZM129.7 61.8163C129.586 61.6473 129.582 61.4171 129.712 61.24C132.273 57.7599 134.752 54.2197 137.233 50.6751C138.703 48.5751 140.174 46.4736 141.664 44.3822L141.665 44.3809L145.418 39.1502L145.419 39.1491C145.522 39.0065 145.632 38.8564 145.747 38.7001C146.462 37.7263 147.357 36.5086 147.784 35.3141C148.028 34.6309 148.093 34.0212 147.93 33.5066C147.773 33.0101 147.377 32.5144 146.508 32.1044C146.129 31.9253 145.62 31.8503 145.002 31.869C144.39 31.8876 143.707 31.9969 143.006 32.1528C142.305 32.3083 141.6 32.5065 140.942 32.6977C140.83 32.7301 140.719 32.7624 140.61 32.7943C140.082 32.9485 139.586 33.0933 139.171 33.1931L77.5783 48.0118L77.5742 48.0128C77.3241 48.0707 77.0764 48.1257 76.8312 48.18C76.0088 48.3624 75.2141 48.5387 74.4461 48.8029C74.2543 48.9057 73.9656 49.1263 73.5853 49.4764C73.1965 49.8343 72.7421 50.2989 72.2414 50.8425C71.2403 51.9292 70.0735 53.3104 68.9074 54.7367C67.7421 56.1619 66.5819 57.6267 65.5943 58.8793C65.4198 59.1007 65.2504 59.3157 65.0872 59.5229C64.3303 60.4839 63.707 61.2752 63.317 61.7485L63.3165 61.7491L30.1903 101.808L30.1896 101.809C29.9509 102.096 29.6568 102.417 29.3512 102.75C29.2519 102.858 29.1514 102.968 29.0512 103.078C28.635 103.535 28.2102 104.017 27.8391 104.515C27.0759 105.539 26.6379 106.501 26.811 107.347L26.3212 107.448L26.8111 107.347C26.9397 107.977 27.1965 108.358 27.503 108.6C27.8179 108.848 28.2332 108.986 28.738 109.039C29.5896 109.127 30.5527 108.965 31.4605 108.813C31.6613 108.779 31.8594 108.746 32.053 108.716L37.108 107.906C37.1083 107.906 37.1085 107.906 37.1087 107.906C38.4309 107.687 39.732 107.488 41.0297 107.289C42.5076 107.062 43.9812 106.836 45.4765 106.584C47.747 106.2 49.9359 107.529 50.9955 109.485C51.8518 111.066 52.8774 112.608 53.8715 114.102C54.4288 114.939 54.9761 115.762 55.4782 116.569C55.6522 116.848 55.9343 117.335 56.2755 117.924C56.34 118.035 56.4065 118.15 56.4748 118.268C56.9083 119.015 57.4202 119.892 57.9402 120.744C58.4613 121.597 58.9855 122.417 59.4438 123.052C59.6732 123.371 59.8802 123.634 60.0573 123.83C60.2472 124.039 60.3613 124.123 60.4022 124.143C61.585 124.704 62.7568 123.569 62.2684 122.391L62.7303 122.199L62.2684 122.391C61.9077 121.52 61.349 120.673 60.781 119.812C60.5633 119.482 60.3442 119.15 60.1344 118.814L60.1343 118.814L55.8135 111.883L55.8134 111.883C55.6223 111.576 55.425 111.265 55.2252 110.951C54.2734 109.451 53.2649 107.862 52.5964 106.185L52.5948 106.181C52.4628 105.842 52.6583 105.455 53.0237 105.371C54.6141 105.008 56.6852 104.576 58.5733 104.335C60.1867 104.13 61.6815 104.975 62.5118 106.31L73.0093 123.19L73.0123 123.195C73.1079 123.353 73.1999 123.507 73.2895 123.656C74.253 125.264 74.9364 126.405 76.6399 127.169C79.3316 128.375 83.0495 128.157 86.8604 127.33C90.6473 126.508 94.418 125.11 97.1622 124.065C103.585 121.488 114.34 115.691 123.892 108.776C128.667 105.319 133.128 101.593 136.592 97.8623C140.065 94.122 142.493 90.4219 143.274 87.0194L143.762 87.1313L143.274 87.0193C143.58 85.6889 143.488 84.7109 143.164 83.7952C142.859 82.9296 142.347 82.1103 141.698 81.0727C141.638 80.9758 141.576 80.8771 141.513 80.7762L129.7 61.8163ZM77.9342 98.7296L77.9337 98.7297L77.8586 98.2354L77.9342 98.7296ZM64.8543 104.552L64.8487 104.551C64.9418 104.57 65.0308 104.562 65.1104 104.534C65.0995 104.537 65.0886 104.54 65.0777 104.543L65.0721 104.544C64.9863 104.567 64.9101 104.562 64.8543 104.552ZM131.198 69.3837L136.975 78.6591C136.976 78.6595 136.976 78.6598 136.976 78.6602C137.216 79.0433 137.523 79.4808 137.865 79.9673C137.937 80.0707 138.012 80.1763 138.087 80.284C138.512 80.8921 138.97 81.5586 139.374 82.2407C139.777 82.9213 140.138 83.6337 140.362 84.3362C140.586 85.0367 140.685 85.7623 140.525 86.4508L140.525 86.4508C139.951 88.9142 138.311 91.5504 136.091 94.1808C133.864 96.8198 131.016 99.4946 127.97 102.035C121.876 107.117 114.941 111.696 110.458 114.419C107.17 116.417 101.19 119.508 95.0984 121.869C92.0523 123.05 88.966 124.054 86.1665 124.645C83.3802 125.233 80.8212 125.426 78.8583 124.935L78.8583 124.935C77.7537 124.658 77.0622 124.178 76.5173 123.53C76.2537 123.216 76.0304 122.871 75.815 122.514C75.7267 122.368 75.6424 122.224 75.557 122.079C75.4254 121.855 75.2911 121.626 75.1359 121.377C75.1359 121.376 75.1359 121.376 75.1359 121.376L67.0522 108.388C67.0522 108.387 67.0521 108.387 67.0521 108.387C66.7992 107.984 66.5169 107.579 66.2218 107.155C66.054 106.914 65.8821 106.667 65.7091 106.411C65.2444 105.724 64.7884 104.995 64.4832 104.251L64.4817 104.247C64.3596 103.943 64.5575 103.624 64.8508 103.568C66.3516 103.163 67.9455 102.941 69.465 102.729C69.7301 102.692 69.9928 102.655 70.2524 102.618L70.2551 102.617L77.6628 101.594L77.6647 101.594C84.0626 100.736 90.4762 99.783 96.8556 98.7844C97.4427 98.6924 98.2005 98.5992 99.0122 98.4994C99.3887 98.4531 99.7768 98.4054 100.165 98.3557C101.404 98.1971 102.651 98.0174 103.602 97.7958C104.085 97.683 104.513 97.4135 104.817 97.0264C105.204 96.5324 105.549 96.0045 105.899 95.4689C106.074 95.1998 106.251 94.9288 106.436 94.6591L106.436 94.6584L109.892 89.6224L109.893 89.6213C111.462 87.3482 113.085 84.9146 114.745 82.4257C117.741 77.9329 120.858 73.2597 123.993 69.0241C125.844 66.5226 129.571 66.7713 131.198 69.3837Z" stroke="#5EEAD4"/>
<path d="M69.296 133.53C69.0247 133.102 68.7697 132.616 68.5217 132.143C68.5009 132.103 68.4802 132.064 68.4595 132.024C68.1871 131.506 67.9191 131.004 67.6247 130.561C67.0269 129.66 66.4108 129.135 65.6094 129.135C65.409 129.135 65.1974 129.197 65.0054 129.309C64.7335 129.467 64.5789 129.63 64.4913 129.779C64.4051 129.927 64.3665 130.091 64.3723 130.284C64.3848 130.697 64.5976 131.208 64.954 131.813C65.1788 132.194 65.4295 132.564 65.6847 132.941C65.8359 133.164 65.9886 133.39 66.1385 133.621C66.5124 134.199 66.8812 134.833 66.967 135.418C67.1668 136.777 67.0306 138.6 66.8994 140.355L66.8973 140.383C66.7625 142.188 66.6338 143.928 66.8075 145.221C66.8714 145.696 67.1497 146.102 67.5785 146.353C68.6662 146.99 70.641 147.955 72.6044 148.806C74.5844 149.664 76.4771 150.372 77.4236 150.534C77.609 150.565 77.8245 150.516 78.054 150.384C78.4155 150.175 78.6484 149.819 78.7025 149.394C79.0008 147.05 79.1427 141.094 79.1375 139.463L79.1375 139.463C79.136 138.925 78.9951 138.519 78.7727 138.191C78.5458 137.857 78.2162 137.58 77.8019 137.333C77.3861 137.086 76.9054 136.882 76.3924 136.686C76.2287 136.623 76.0588 136.56 75.8872 136.496C75.5377 136.366 75.1808 136.234 74.8541 136.096L74.854 136.095C73.0745 135.342 71.276 134.57 69.5232 133.723M69.296 133.53L69.7183 133.263L69.2958 133.53C69.2958 133.53 69.2959 133.53 69.296 133.53ZM69.296 133.53C69.3534 133.621 69.4335 133.686 69.5232 133.723M69.5232 133.723C69.5165 133.72 69.5098 133.717 69.5031 133.714M69.5232 133.723C69.67 133.785 69.8426 133.775 69.9832 133.687C69.8382 133.777 69.6572 133.787 69.5031 133.714M69.5031 133.714C69.5025 133.713 69.5018 133.713 69.5012 133.713L69.5015 133.713C69.502 133.713 69.5026 133.713 69.5031 133.714ZM69.4545 132.838C69.457 132.837 69.4594 132.835 69.4619 132.834L69.4545 132.838ZM69.583 141.791C69.7129 139.516 72.0016 137.813 74.1899 138.758C74.2997 138.806 74.4084 138.853 74.5155 138.901C75.7252 139.44 76.4165 140.659 76.3763 141.949C76.3726 142.068 76.3685 142.188 76.364 142.309C76.275 144.708 73.7536 145.983 71.6512 145.103C70.3274 144.549 69.5012 143.223 69.583 141.791Z" stroke="#5EEAD4"/>
<defs>
<clipPath id="clip0_381_21659">
<rect width="143.075" height="89.1379" rx="4" transform="matrix(-0.848827 0.528671 0.528671 0.848827 134.464 10.8311)" fill="white"/>
</clipPath>
</defs>
</svg>
