<svg width="163" height="78" viewBox="0 0 163 78" fill="none" xmlns="http://www.w3.org/2000/svg">
<path d="M123.734 78C116.456 78 110.199 76.9804 104.964 74.9412C99.7282 72.7745 95.1951 69.9069 91.3643 66.3382C87.6612 62.6422 84.3412 58.6912 81.4042 54.4853C78.595 50.152 75.8496 45.8824 73.168 41.6765C70.6142 37.3431 67.8688 33.3922 64.9318 29.8235C61.9949 26.1274 58.611 23.1961 54.7803 21.0294C51.0772 18.8627 46.5441 17.7794 41.181 17.7794C36.9671 17.7794 33.1363 18.7353 29.6886 20.6471C26.3686 22.5588 23.7509 25.1078 21.8355 28.2941C20.0478 31.3529 19.1539 34.9216 19.1539 39C19.1539 42.951 20.0478 46.5196 21.8355 49.7059C23.7509 52.8922 26.3686 55.4412 29.6886 57.3529C33.1363 59.2647 36.9671 60.2206 41.181 60.2206C46.5441 60.2206 51.0772 59.1373 54.7803 56.9706C58.611 54.8039 61.9949 51.9363 64.9318 48.3676C67.8688 44.6716 70.6142 40.7206 73.168 36.5147C75.8496 32.3088 78.595 28.0392 81.4042 23.7059C84.3412 19.3726 87.6612 15.4216 91.3643 11.8529C95.1951 8.15686 99.7282 5.28922 104.964 3.25C110.199 1.08333 116.456 0 123.734 0C131.268 0 137.972 1.65686 143.846 4.97059C149.72 8.28431 154.381 12.8725 157.828 18.7353C161.276 24.598 163 31.2892 163 38.8088C163 46.3284 161.276 53.0833 157.828 59.0735C154.381 64.9363 149.72 69.5882 143.846 73.0294C137.972 76.3431 131.268 78 123.734 78ZM39.4571 78C31.9232 78 25.1555 76.3431 19.1539 73.0294C13.2801 69.5882 8.61927 64.9363 5.17156 59.0735C1.72385 53.0833 0 46.3922 0 39C0 31.4804 1.72385 24.7892 5.17156 18.9265C8.61927 12.9363 13.2801 8.28431 19.1539 4.97059C25.1555 1.65686 31.9232 0 39.4571 0C46.8633 0 53.1203 1.08333 58.228 3.25C63.4634 5.28922 67.9326 8.15686 71.6357 11.8529C75.4665 15.4216 78.7865 19.3726 81.5958 23.7059C84.405 27.9118 87.0866 32.1814 89.6404 36.5147C92.322 40.7206 95.1312 44.6716 98.0682 48.3676C101.005 51.9363 104.389 54.8039 108.22 56.9706C112.051 59.1373 116.584 60.2206 121.819 60.2206C126.033 60.2206 129.8 59.2647 133.12 57.3529C136.44 55.4412 139.058 52.8922 140.973 49.7059C142.888 46.5196 143.846 42.8873 143.846 38.8088C143.846 34.8578 142.888 31.2892 140.973 28.1029C139.058 24.9167 136.44 22.4314 133.12 20.6471C129.8 18.7353 126.033 17.7794 121.819 17.7794C116.584 17.7794 112.051 18.8627 108.22 21.0294C104.389 23.1961 101.005 26.1274 98.0682 29.8235C95.1312 33.3922 92.322 37.2794 89.6404 41.4853C87.0866 45.6912 84.405 49.9608 81.5958 54.2941C78.7865 58.6275 75.4665 62.6422 71.6357 66.3382C67.9326 69.9069 63.4634 72.7745 58.228 74.9412C53.1203 76.9804 46.8633 78 39.4571 78Z" fill="#9CA3AF"/>
</svg>
