<svg width="108" height="17" viewBox="0 0 108 17" fill="none" xmlns="http://www.w3.org/2000/svg">
<path d="M105.894 10.4453C106.42 10.419 106.624 11.1198 106.165 11.3797L96.6868 16.7518L88.6598 16.7518L86.7503 16.7518L80.4572 16.8702L74.1503 16.7518L72.2619 16.7518L69.4636 16.8702L64.1279 16.7518L62.3328 16.7518L58.9145 16.8702L54.0496 16.7518L52.2134 16.7518L48.62 16.8702L30.659 16.7567L28.8759 16.7567L25.3546 16.8702L14.8083 16.8702L1.87806 16.7609C1.60358 16.7586 1.38229 16.5354 1.38229 16.2609L1.38229 16.1537C1.38229 15.8873 1.59119 15.6677 1.85728 15.6544L105.894 10.4453Z" fill="#14B8A6"/>
<path d="M74.8657 2.5739C75.3853 2.88428 75.3854 3.63687 74.8659 3.94737L72.6883 5.24895C72.1551 5.56766 71.4779 5.18356 71.4779 4.56237L71.4775 1.95972C71.4775 1.33853 72.1545 0.954262 72.6878 1.27284L74.8657 2.5739Z" fill="#14B8A6"/>
<path d="M14.6339 16.8703C13.5809 16.8703 12.6464 16.6399 11.8303 16.1792C11.0142 15.7185 10.3692 15.0867 9.89536 14.2838C9.4215 13.4677 9.18457 12.5463 9.18457 11.5196C9.18457 10.4798 9.4215 9.55839 9.89536 8.75547C10.3692 7.95254 11.0142 7.32732 11.8303 6.87978C12.6464 6.41909 13.5809 6.18874 14.6339 6.18874C15.6738 6.18874 16.6017 6.41909 17.4178 6.87978C18.2471 7.32732 18.892 7.95254 19.3527 8.75547C19.8266 9.54523 20.0635 10.4666 20.0635 11.5196C20.0635 12.5595 19.8266 13.4809 19.3527 14.2838C18.892 15.0867 18.2471 15.7185 17.4178 16.1792C16.6017 16.6399 15.6738 16.8703 14.6339 16.8703ZM14.6339 15.2118C15.3052 15.2118 15.9041 15.0604 16.4306 14.7577C16.9703 14.4549 17.3915 14.0271 17.6942 13.4743C17.997 12.9083 18.1484 12.2567 18.1484 11.5196C18.1484 10.7694 17.997 10.1244 17.6942 9.58472C17.3915 9.03188 16.9703 8.60409 16.4306 8.30135C15.9041 7.99861 15.3052 7.84724 14.6339 7.84724C13.9626 7.84724 13.3637 7.99861 12.8372 8.30135C12.3107 8.60409 11.8895 9.03188 11.5736 9.58472C11.2577 10.1244 11.0997 10.7694 11.0997 11.5196C11.0997 12.2567 11.2577 12.9083 11.5736 13.4743C11.8895 14.0271 12.3107 14.4549 12.8372 14.7577C13.3637 15.0604 13.9626 15.2118 14.6339 15.2118Z" fill="#F9FAFB"/>
<path d="M25.3108 16.8703C24.4157 16.8703 23.626 16.7057 22.9415 16.3767C22.2702 16.0476 21.7437 15.5474 21.362 14.8761C20.9935 14.1917 20.8092 13.3361 20.8092 12.3094V6.28746H22.7046V12.0922C22.7046 13.1189 22.9481 13.8889 23.4351 14.4023C23.9353 14.9156 24.6329 15.1723 25.528 15.1723C26.1861 15.1723 26.7587 15.0406 27.2457 14.7774C27.7327 14.501 28.1079 14.1061 28.3711 13.5928C28.6344 13.0662 28.766 12.4344 28.766 11.6973V6.28746H30.6614V16.7518H28.8647V13.9284L29.1609 14.6787C28.8187 15.3763 28.3053 15.916 27.6209 16.2977C26.9364 16.6794 26.1664 16.8703 25.3108 16.8703Z" fill="#F9FAFB"/>
<path d="M38.0804 6.18874C38.936 6.18874 39.6863 6.35328 40.3312 6.68234C40.9894 7.01141 41.5027 7.51159 41.8713 8.18289C42.2398 8.85419 42.4241 9.70318 42.4241 10.7299V16.7518H40.5287V10.9471C40.5287 9.93353 40.2786 9.17009 39.7784 8.65675C39.2914 8.1434 38.6003 7.88673 37.7053 7.88673C37.034 7.88673 36.4482 8.01836 35.9481 8.28161C35.4479 8.54486 35.0596 8.93316 34.7832 9.44651C34.5199 9.95985 34.3883 10.5982 34.3883 11.3617V16.7518H32.4929V6.28746H34.3093V9.11086L34.0131 8.36059C34.3554 7.67613 34.8819 7.14304 35.5927 6.76132C36.3034 6.3796 37.1327 6.18874 38.0804 6.18874Z" fill="#F9FAFB"/>
<path d="M48.4789 16.8703C47.4653 16.8703 46.5571 16.6465 45.7542 16.199C44.9644 15.7514 44.3392 15.1262 43.8785 14.3233C43.4178 13.5204 43.1875 12.5858 43.1875 11.5196C43.1875 10.4535 43.4178 9.52548 43.8785 8.73572C44.3392 7.9328 44.9644 7.30757 45.7542 6.86004C46.5571 6.41251 47.4653 6.18874 48.4789 6.18874C49.3608 6.18874 50.1571 6.38618 50.8679 6.78106C51.5787 7.17594 52.1447 7.76826 52.5659 8.55803C53.0003 9.34779 53.2174 10.335 53.2174 11.5196C53.2174 12.7043 53.0068 13.6915 52.5856 14.4812C52.1776 15.271 51.6182 15.8699 50.9074 16.2779C50.1966 16.6728 49.3871 16.8703 48.4789 16.8703ZM48.6368 15.2118C49.295 15.2118 49.8873 15.0604 50.4138 14.7577C50.9535 14.4549 51.3747 14.0271 51.6774 13.4743C51.9933 12.9083 52.1513 12.2567 52.1513 11.5196C52.1513 10.7694 51.9933 10.1244 51.6774 9.58472C51.3747 9.03188 50.9535 8.60409 50.4138 8.30135C49.8873 7.99861 49.295 7.84724 48.6368 7.84724C47.9655 7.84724 47.3666 7.99861 46.8401 8.30135C46.3136 8.60409 45.8924 9.03188 45.5765 9.58472C45.2606 10.1244 45.1026 10.7694 45.1026 11.5196C45.1026 12.2567 45.2606 12.9083 45.5765 13.4743C45.8924 14.0271 46.3136 14.4549 46.8401 14.7577C47.3666 15.0604 47.9655 15.2118 48.6368 15.2118ZM52.2105 16.7518V13.9284L52.329 11.4999L52.1315 9.07137V2.10173H54.0269V16.7518H52.2105Z" fill="#F9FAFB"/>
<path d="M62.3321 16.7518V14.5405L62.2334 14.1258V10.3547C62.2334 9.55181 61.9964 8.93316 61.5226 8.49879C61.0619 8.05126 60.3643 7.8275 59.4297 7.8275C58.8111 7.8275 58.2056 7.9328 57.6133 8.1434C57.0209 8.34084 56.5208 8.61068 56.1127 8.95291L55.323 7.53134C55.8626 7.09697 56.5076 6.7679 57.2579 6.54414C58.0213 6.30721 58.8177 6.18874 59.6469 6.18874C61.0816 6.18874 62.1873 6.53755 62.9639 7.23518C63.7405 7.9328 64.1288 8.99898 64.1288 10.4337V16.7518H62.3321ZM58.8966 16.8703C58.12 16.8703 57.4356 16.7386 56.8432 16.4754C56.2641 16.2121 55.8166 15.8502 55.5007 15.3895C55.1847 14.9156 55.0268 14.3825 55.0268 13.7902C55.0268 13.2242 55.1584 12.7109 55.4217 12.2502C55.6981 11.7895 56.139 11.4209 56.7445 11.1445C57.3632 10.8681 58.1924 10.7299 59.2323 10.7299H62.5493V12.0922H59.3112C58.3635 12.0922 57.7251 12.2502 57.3961 12.5661C57.067 12.882 56.9025 13.2637 56.9025 13.7112C56.9025 14.2246 57.1065 14.6392 57.5145 14.9551C57.9226 15.2578 58.4886 15.4092 59.2125 15.4092C59.9233 15.4092 60.542 15.2512 61.0685 14.9353C61.6081 14.6194 61.9964 14.1587 62.2334 13.5533L62.6085 14.8564C62.3584 15.475 61.9175 15.9686 61.2857 16.3372C60.6538 16.6926 59.8575 16.8703 58.8966 16.8703Z" fill="#F9FAFB"/>
<path d="M69.4529 16.8703C68.3999 16.8703 67.5838 16.5873 67.0046 16.0213C66.4255 15.4553 66.1359 14.6458 66.1359 13.5928V3.99716H68.0313V13.5138C68.0313 14.0798 68.1695 14.5141 68.4459 14.8169C68.7355 15.1196 69.1436 15.271 69.6701 15.271C70.2624 15.271 70.756 15.1065 71.1509 14.7774L71.7432 16.1397C71.4536 16.3898 71.1048 16.5741 70.6967 16.6926C70.3019 16.811 69.8872 16.8703 69.4529 16.8703ZM64.3589 7.84724V6.28746H71.0324V7.84724H64.3589Z" fill="#F9FAFB"/>
<path d="M72.2578 16.7518V6.28746H74.1532V16.7518H72.2578Z" fill="#F9FAFB"/>
<path d="M80.4771 16.8703C79.4241 16.8703 78.4896 16.6399 77.6735 16.1792C76.8574 15.7185 76.2124 15.0867 75.7386 14.2838C75.2647 13.4677 75.0278 12.5463 75.0278 11.5196C75.0278 10.4798 75.2647 9.55839 75.7386 8.75547C76.2124 7.95254 76.8574 7.32732 77.6735 6.87978C78.4896 6.41909 79.4241 6.18874 80.4771 6.18874C81.517 6.18874 82.445 6.41909 83.261 6.87978C84.0903 7.32732 84.7353 7.95254 85.1959 8.75547C85.6698 9.54523 85.9067 10.4666 85.9067 11.5196C85.9067 12.5595 85.6698 13.4809 85.1959 14.2838C84.7353 15.0867 84.0903 15.7185 83.261 16.1792C82.445 16.6399 81.517 16.8703 80.4771 16.8703ZM80.4771 15.2118C81.1484 15.2118 81.7473 15.0604 82.2738 14.7577C82.8135 14.4549 83.2347 14.0271 83.5375 13.4743C83.8402 12.9083 83.9916 12.2567 83.9916 11.5196C83.9916 10.7694 83.8402 10.1244 83.5375 9.58472C83.2347 9.03188 82.8135 8.60409 82.2738 8.30135C81.7473 7.99861 81.1484 7.84724 80.4771 7.84724C79.8058 7.84724 79.2069 7.99861 78.6804 8.30135C78.1539 8.60409 77.7327 9.03188 77.4168 9.58472C77.1009 10.1244 76.9429 10.7694 76.9429 11.5196C76.9429 12.2567 77.1009 12.9083 77.4168 13.4743C77.7327 14.0271 78.1539 14.4549 78.6804 14.7577C79.2069 15.0604 79.8058 15.2118 80.4771 15.2118Z" fill="#F9FAFB"/>
<path d="M92.3387 6.18874C93.1942 6.18874 93.9445 6.35328 94.5895 6.68234C95.2476 7.01141 95.761 7.51159 96.1295 8.18289C96.4981 8.85419 96.6823 9.70318 96.6823 10.7299V16.7518H94.7869V10.9471C94.7869 9.93353 94.5368 9.17009 94.0367 8.65675C93.5496 8.1434 92.8586 7.88673 91.9635 7.88673C91.2922 7.88673 90.7065 8.01836 90.2063 8.28161C89.7061 8.54486 89.3178 8.93316 89.0414 9.44651C88.7782 9.95985 88.6465 10.5982 88.6465 11.3617V16.7518H86.7511V6.28746H88.5676V9.11086L88.2714 8.36059C88.6136 7.67613 89.1401 7.14304 89.8509 6.76132C90.5617 6.3796 91.391 6.18874 92.3387 6.18874Z" fill="#F9FAFB"/>
<path d="M1.9745 2.94336H0V16.7642H1.9744L1.9745 2.94336Z" fill="#F9FAFB"/>
<path d="M2.4681 9.47863L2.468 11.2358H8.88481L8.90455 9.47863H2.4681Z" fill="#F9FAFB"/>
<path d="M2.4681 4.81894V2.94336H9.75355V4.81894H2.4681Z" fill="#F9FAFB"/>
</svg>
