<svg width="18" height="12" viewBox="0 0 18 12" fill="none" xmlns="http://www.w3.org/2000/svg">
<mask id="mask0_381_23531" style="mask-type:alpha" maskUnits="userSpaceOnUse" x="1" y="0" width="16" height="12">
<path fill-rule="evenodd" clip-rule="evenodd" d="M16.5539 2.69378C17.1485 2.09921 17.1485 1.13522 16.5539 0.540654C15.9594 -0.053916 14.9954 -0.053916 14.4008 0.540654L6.71169 8.22978L3.59906 5.11715C3.00449 4.52258 2.0405 4.52258 1.44593 5.11715C0.851357 5.71172 0.851357 6.67571 1.44593 7.27028L5.6212 11.4456C5.62578 11.4502 5.63039 11.4549 5.63504 11.4596C5.9846 11.8091 6.46186 11.9532 6.91666 11.8917C7.23548 11.8486 7.54328 11.7046 7.78833 11.4595C7.79238 11.4555 7.79641 11.4514 7.80042 11.4473L16.5539 2.69378Z" fill="#111827"/>
</mask>
<g mask="url(#mask0_381_23531)">
<line x1="-9.97659" y1="22.0591" x2="28.6117" y2="-16.5292" stroke="#9CA3AF" stroke-width="0.0415225"/>
<line x1="-5.27054" y1="26.1562" x2="33.3177" y2="-12.4321" stroke="#9CA3AF" stroke-width="0.0415225"/>
<line x1="-13.9073" y1="17.187" x2="24.681" y2="-21.4013" stroke="#9CA3AF" stroke-width="0.0415225"/>
<line x1="-7.42972" y1="23.8862" x2="31.1586" y2="-14.7021" stroke="#9CA3AF" stroke-width="0.0415225"/>
<line x1="-11.3604" y1="19.0141" x2="27.2279" y2="-19.5741" stroke="#9CA3AF" stroke-width="0.0415225"/>
<line x1="-2.72464" y1="27.9829" x2="35.8636" y2="-10.6054" stroke="#9CA3AF" stroke-width="0.0415225"/>
<line x1="-8.81449" y1="23.1113" x2="29.7738" y2="-15.477" stroke="#9CA3AF" stroke-width="0.0415225"/>
<line x1="-4.10745" y1="27.208" x2="34.4808" y2="-11.3803" stroke="#9CA3AF" stroke-width="0.0415225"/>
<line x1="-6.26761" y1="24.938" x2="32.3207" y2="-13.6503" stroke="#9CA3AF" stroke-width="0.0415225"/>
<line x1="-10.1983" y1="20.0659" x2="28.39" y2="-18.5224" stroke="#9CA3AF" stroke-width="0.0415225"/>
<line x1="-1.56156" y1="29.0351" x2="37.0267" y2="-9.55315" stroke="#9CA3AF" stroke-width="0.0415225"/>
<line x1="-9.03616" y1="22.2251" x2="29.5521" y2="-16.3632" stroke="#9CA3AF" stroke-width="0.0415225"/>
<line x1="-4.32913" y1="26.3222" x2="34.2591" y2="-12.266" stroke="#9CA3AF" stroke-width="0.0415225"/>
<line x1="-6.48929" y1="24.0522" x2="32.099" y2="-14.5361" stroke="#9CA3AF" stroke-width="0.0415225"/>
<line x1="-10.419" y1="19.1801" x2="28.1693" y2="-19.4081" stroke="#9CA3AF" stroke-width="0.0415225"/>
<line x1="-1.78324" y1="28.1489" x2="36.805" y2="-10.4394" stroke="#9CA3AF" stroke-width="0.0415225"/>
<line x1="-7.87308" y1="23.2773" x2="30.7152" y2="-15.311" stroke="#9CA3AF" stroke-width="0.0415225"/>
<line x1="-11.8037" y1="18.4052" x2="26.7845" y2="-20.183" stroke="#9CA3AF" stroke-width="0.0415225"/>
<line x1="-3.16702" y1="27.374" x2="35.4212" y2="-11.2143" stroke="#9CA3AF" stroke-width="0.0415225"/>
<line x1="-12.7451" y1="18.2392" x2="25.8431" y2="-20.3491" stroke="#9CA3AF" stroke-width="0.0415225"/>
<line x1="-5.3262" y1="25.104" x2="33.2621" y2="-13.4843" stroke="#9CA3AF" stroke-width="0.0415225"/>
<line x1="-9.25687" y1="20.2324" x2="29.3314" y2="-18.3559" stroke="#9CA3AF" stroke-width="0.0415225"/>
<line x1="-0.620149" y1="29.2011" x2="37.9681" y2="-9.38714" stroke="#9CA3AF" stroke-width="0.0415225"/>
<line x1="-9.5889" y1="22.2251" x2="28.9994" y2="-16.3632" stroke="#9CA3AF" stroke-width="0.0415225"/>
<line x1="-14.9043" y1="15.9692" x2="23.6839" y2="-22.6191" stroke="#9CA3AF" stroke-width="0.0415225"/>
<line x1="-4.88284" y1="26.3222" x2="33.7054" y2="-12.266" stroke="#9CA3AF" stroke-width="0.0415225"/>
<line x1="-7.04202" y1="24.0522" x2="31.5463" y2="-14.5361" stroke="#9CA3AF" stroke-width="0.0415225"/>
<line x1="-10.9737" y1="19.1801" x2="27.6146" y2="-19.4081" stroke="#9CA3AF" stroke-width="0.0415225"/>
<line x1="-2.33597" y1="28.1489" x2="36.2523" y2="-10.4394" stroke="#9CA3AF" stroke-width="0.0415225"/>
<line x1="-8.42679" y1="23.2773" x2="30.1615" y2="-15.311" stroke="#9CA3AF" stroke-width="0.0415225"/>
<line x1="-3.72074" y1="27.374" x2="34.8675" y2="-11.2143" stroke="#9CA3AF" stroke-width="0.0415225"/>
<line x1="-5.87991" y1="25.104" x2="32.7084" y2="-13.4843" stroke="#9CA3AF" stroke-width="0.0415225"/>
<line x1="-9.81058" y1="20.2324" x2="28.7777" y2="-18.3559" stroke="#9CA3AF" stroke-width="0.0415225"/>
<line x1="-1.17386" y1="29.2011" x2="37.4144" y2="-9.38714" stroke="#9CA3AF" stroke-width="0.0415225"/>
<line x1="-8.64749" y1="22.3911" x2="29.9408" y2="-16.1972" stroke="#9CA3AF" stroke-width="0.0415225"/>
<line x1="-12.9659" y1="17.3535" x2="25.6224" y2="-21.2348" stroke="#9CA3AF" stroke-width="0.0415225"/>
<line x1="-3.94241" y1="26.4882" x2="34.6459" y2="-12.1" stroke="#9CA3AF" stroke-width="0.0415225"/>
<line x1="-6.10159" y1="24.2182" x2="32.4867" y2="-14.37" stroke="#9CA3AF" stroke-width="0.0415225"/>
<line x1="-10.0323" y1="19.3462" x2="28.556" y2="-19.2421" stroke="#9CA3AF" stroke-width="0.0415225"/>
<line x1="-1.39554" y1="28.3154" x2="37.1927" y2="-10.2729" stroke="#9CA3AF" stroke-width="0.0415225"/>
<line x1="-15.126" y1="15.0835" x2="23.4623" y2="-23.5048" stroke="#9CA3AF" stroke-width="0.0415225"/>
<line x1="-7.48538" y1="23.4433" x2="31.1029" y2="-15.1449" stroke="#9CA3AF" stroke-width="0.0415225"/>
<line x1="-11.416" y1="18.5713" x2="27.1722" y2="-20.017" stroke="#9CA3AF" stroke-width="0.0415225"/>
<line x1="-2.77933" y1="27.54" x2="35.8089" y2="-11.0483" stroke="#9CA3AF" stroke-width="0.0415225"/>
<line x1="-4.93851" y1="25.27" x2="33.6498" y2="-13.3183" stroke="#9CA3AF" stroke-width="0.0415225"/>
<line x1="-8.86917" y1="20.3984" x2="29.7191" y2="-18.1899" stroke="#9CA3AF" stroke-width="0.0415225"/>
<line x1="-0.232454" y1="29.3672" x2="38.3558" y2="-9.22112" stroke="#9CA3AF" stroke-width="0.0415225"/>
<line x1="-9.75491" y1="22.1147" x2="28.8334" y2="-16.4736" stroke="#9CA3AF" stroke-width="0.0415225"/>
<line x1="-5.04886" y1="26.2114" x2="33.5394" y2="-12.3769" stroke="#9CA3AF" stroke-width="0.0415225"/>
<line x1="-7.20902" y1="23.9414" x2="31.3793" y2="-14.6469" stroke="#9CA3AF" stroke-width="0.0415225"/>
<line x1="-11.1387" y1="19.0693" x2="27.4496" y2="-19.519" stroke="#9CA3AF" stroke-width="0.0415225"/>
<line x1="-2.50296" y1="28.0385" x2="36.0853" y2="-10.5497" stroke="#9CA3AF" stroke-width="0.0415225"/>
<line x1="-8.59281" y1="23.1665" x2="29.9955" y2="-15.4218" stroke="#9CA3AF" stroke-width="0.0415225"/>
<line x1="-3.88675" y1="27.2632" x2="34.7015" y2="-11.3251" stroke="#9CA3AF" stroke-width="0.0415225"/>
<line x1="-6.04593" y1="24.9936" x2="32.5423" y2="-13.5947" stroke="#9CA3AF" stroke-width="0.0415225"/>
<line x1="-9.97659" y1="20.1216" x2="28.6117" y2="-18.4667" stroke="#9CA3AF" stroke-width="0.0415225"/>
<line x1="-1.33988" y1="29.0903" x2="37.2484" y2="-9.49798" stroke="#9CA3AF" stroke-width="0.0415225"/>
<line x1="-13.9629" y1="16.1352" x2="24.6254" y2="-22.4531" stroke="#9CA3AF" stroke-width="0.0415225"/>
<line x1="-8.81449" y1="22.2807" x2="29.7738" y2="-16.3075" stroke="#9CA3AF" stroke-width="0.0415225"/>
<line x1="-4.10745" y1="26.3774" x2="34.4808" y2="-12.2109" stroke="#9CA3AF" stroke-width="0.0415225"/>
<line x1="-6.26761" y1="24.1074" x2="32.3207" y2="-14.4809" stroke="#9CA3AF" stroke-width="0.0415225"/>
<line x1="-10.1983" y1="19.2358" x2="28.39" y2="-19.3525" stroke="#9CA3AF" stroke-width="0.0415225"/>
<line x1="-1.56156" y1="28.2046" x2="37.0267" y2="-10.3837" stroke="#9CA3AF" stroke-width="0.0415225"/>
<line x1="-7.6514" y1="23.3325" x2="30.9369" y2="-15.2558" stroke="#9CA3AF" stroke-width="0.0415225"/>
<line x1="-11.5821" y1="18.4604" x2="27.0062" y2="-20.1279" stroke="#9CA3AF" stroke-width="0.0415225"/>
<line x1="-2.94534" y1="27.4292" x2="35.6429" y2="-11.1591" stroke="#9CA3AF" stroke-width="0.0415225"/>
<line x1="-5.10452" y1="25.1596" x2="33.4837" y2="-13.4286" stroke="#9CA3AF" stroke-width="0.0415225"/>
<line x1="-9.03616" y1="20.2876" x2="29.5521" y2="-18.3007" stroke="#9CA3AF" stroke-width="0.0415225"/>
<line x1="-0.398469" y1="29.2563" x2="38.1898" y2="-9.33196" stroke="#9CA3AF" stroke-width="0.0415225"/>
<line x1="-9.36722" y1="22.2807" x2="29.2211" y2="-16.3075" stroke="#9CA3AF" stroke-width="0.0415225"/>
<line x1="-13.5205" y1="17.3535" x2="25.0677" y2="-21.2348" stroke="#9CA3AF" stroke-width="0.0415225"/>
<line x1="-4.66214" y1="26.3774" x2="33.9261" y2="-12.2109" stroke="#9CA3AF" stroke-width="0.0415225"/>
<line x1="-6.82034" y1="24.1074" x2="31.7679" y2="-14.4809" stroke="#9CA3AF" stroke-width="0.0415225"/>
<line x1="-10.752" y1="19.2358" x2="27.8363" y2="-19.3525" stroke="#9CA3AF" stroke-width="0.0415225"/>
<line x1="-2.11527" y1="28.2046" x2="36.473" y2="-10.3837" stroke="#9CA3AF" stroke-width="0.0415225"/>
<line x1="-15.6787" y1="15.0835" x2="22.9095" y2="-23.5048" stroke="#9CA3AF" stroke-width="0.0415225"/>
<line x1="-8.20511" y1="23.3325" x2="30.3832" y2="-15.2558" stroke="#9CA3AF" stroke-width="0.0415225"/>
<line x1="-3.49906" y1="27.4292" x2="35.0892" y2="-11.1591" stroke="#9CA3AF" stroke-width="0.0415225"/>
<line x1="-5.65824" y1="25.1596" x2="32.93" y2="-13.4286" stroke="#9CA3AF" stroke-width="0.0415225"/>
<line x1="-9.5889" y1="20.2876" x2="28.9994" y2="-18.3007" stroke="#9CA3AF" stroke-width="0.0415225"/>
<line x1="-0.95218" y1="29.2563" x2="37.6361" y2="-9.33196" stroke="#9CA3AF" stroke-width="0.0415225"/>
<line x1="-8.42679" y1="22.4467" x2="30.1615" y2="-16.1415" stroke="#9CA3AF" stroke-width="0.0415225"/>
<line x1="-3.72074" y1="26.5434" x2="34.8675" y2="-12.0449" stroke="#9CA3AF" stroke-width="0.0415225"/>
<line x1="-5.87991" y1="24.2739" x2="32.7084" y2="-14.3144" stroke="#9CA3AF" stroke-width="0.0415225"/>
<line x1="-9.81058" y1="19.4018" x2="28.7777" y2="-19.1865" stroke="#9CA3AF" stroke-width="0.0415225"/>
<line x1="-1.17386" y1="28.3706" x2="37.4144" y2="-10.2177" stroke="#9CA3AF" stroke-width="0.0415225"/>
<line x1="-12.3575" y1="18.4052" x2="26.2308" y2="-20.183" stroke="#9CA3AF" stroke-width="0.0415225"/>
<line x1="-7.2637" y1="23.4985" x2="31.3246" y2="-15.0898" stroke="#9CA3AF" stroke-width="0.0415225"/>
<line x1="-11.1944" y1="18.6264" x2="27.3939" y2="-19.9618" stroke="#9CA3AF" stroke-width="0.0415225"/>
<line x1="-2.55765" y1="27.5957" x2="36.0306" y2="-10.9926" stroke="#9CA3AF" stroke-width="0.0415225"/>
<line x1="-4.71683" y1="25.3257" x2="33.8714" y2="-13.2626" stroke="#9CA3AF" stroke-width="0.0415225"/>
<line x1="-8.64749" y1="20.4536" x2="29.9408" y2="-18.1347" stroke="#9CA3AF" stroke-width="0.0415225"/>
<line x1="-0.0117507" y1="29.4223" x2="38.5765" y2="-9.16594" stroke="#9CA3AF" stroke-width="0.0415225"/>
<line x1="-14.5166" y1="16.1352" x2="24.0716" y2="-22.4531" stroke="#9CA3AF" stroke-width="0.0415225"/>
<line x1="-12.5791" y1="17.5195" x2="26.0091" y2="-21.0688" stroke="#9CA3AF" stroke-width="0.0415225"/>
<line x1="-14.7373" y1="15.2495" x2="23.8509" y2="-23.3388" stroke="#9CA3AF" stroke-width="0.0415225"/>
<line x1="-13.5752" y1="16.3012" x2="25.013" y2="-22.287" stroke="#9CA3AF" stroke-width="0.0415225"/>
<line x1="-13.6856" y1="17.2426" x2="24.9027" y2="-21.3456" stroke="#9CA3AF" stroke-width="0.0415225"/>
<line x1="-12.5235" y1="18.2944" x2="26.0648" y2="-20.2939" stroke="#9CA3AF" stroke-width="0.0415225"/>
<line x1="-14.6826" y1="16.0244" x2="23.9056" y2="-22.5639" stroke="#9CA3AF" stroke-width="0.0415225"/>
<line x1="-12.7451" y1="17.4087" x2="25.8431" y2="-21.1796" stroke="#9CA3AF" stroke-width="0.0415225"/>
<line x1="-14.9043" y1="15.1386" x2="23.6839" y2="-23.4496" stroke="#9CA3AF" stroke-width="0.0415225"/>
<line x1="-13.7412" y1="16.1904" x2="24.847" y2="-22.3979" stroke="#9CA3AF" stroke-width="0.0415225"/>
<line x1="-13.2989" y1="17.4087" x2="25.2894" y2="-21.1796" stroke="#9CA3AF" stroke-width="0.0415225"/>
<line x1="-15.458" y1="15.1386" x2="23.1302" y2="-23.4496" stroke="#9CA3AF" stroke-width="0.0415225"/>
<line x1="-12.1358" y1="18.4604" x2="26.4525" y2="-20.1279" stroke="#9CA3AF" stroke-width="0.0415225"/>
<line x1="-14.295" y1="16.1904" x2="24.2933" y2="-22.3979" stroke="#9CA3AF" stroke-width="0.0415225"/>
<line x1="-12.3575" y1="17.5747" x2="26.2308" y2="-21.0136" stroke="#9CA3AF" stroke-width="0.0415225"/>
<line x1="-14.5166" y1="15.3047" x2="24.0716" y2="-23.2836" stroke="#9CA3AF" stroke-width="0.0415225"/>
<line x1="-13.3535" y1="16.3569" x2="25.2347" y2="-22.2314" stroke="#9CA3AF" stroke-width="0.0415225"/>
</g>
<path fill-rule="evenodd" clip-rule="evenodd" d="M16.5539 2.69378C17.1485 2.09921 17.1485 1.13522 16.5539 0.540654C15.9594 -0.053916 14.9954 -0.053916 14.4008 0.540654L6.71169 8.22978L3.59906 5.11715C3.00449 4.52258 2.0405 4.52258 1.44593 5.11715C0.851357 5.71172 0.851357 6.67571 1.44593 7.27028L5.6212 11.4456C5.62578 11.4502 5.63039 11.4549 5.63504 11.4596C5.9846 11.8091 6.46186 11.9532 6.91666 11.8917C7.23548 11.8486 7.54328 11.7046 7.78833 11.4595C7.79238 11.4555 7.79641 11.4514 7.80042 11.4473L16.5539 2.69378Z" fill="#14B8A6"/>
<path d="M16.5539 0.540654L16.5344 0.560228V0.560228L16.5539 0.540654ZM16.5539 2.69378L16.5344 2.67421L16.5539 2.69378ZM14.4008 0.540654L14.4204 0.560228L14.4008 0.540654ZM6.71169 8.22978L6.69212 8.24936L6.71169 8.26893L6.73127 8.24936L6.71169 8.22978ZM3.59906 5.11715L3.57948 5.13672L3.59906 5.11715ZM1.44593 5.11715L1.42635 5.09757L1.44593 5.11715ZM1.44593 7.27028L1.42635 7.28985L1.44593 7.27028ZM5.6212 11.4456L5.64103 11.4262L5.64078 11.426L5.6212 11.4456ZM5.63504 11.4596L5.61547 11.4791L5.61547 11.4791L5.63504 11.4596ZM6.91666 11.8917L6.91295 11.8643L6.91295 11.8643L6.91666 11.8917ZM7.78833 11.4595L7.8079 11.4791L7.78833 11.4595ZM7.80042 11.4473L7.78084 11.4277L7.78063 11.428L7.80042 11.4473ZM16.5344 0.560228C17.1181 1.14399 17.1181 2.09045 16.5344 2.67421L16.5735 2.71336C17.1789 2.10798 17.1789 1.12646 16.5735 0.52108L16.5344 0.560228ZM14.4204 0.560228C15.0042 -0.0235318 15.9506 -0.0235318 16.5344 0.560228L16.5735 0.52108C15.9681 -0.0843003 14.9866 -0.0843003 14.3812 0.52108L14.4204 0.560228ZM6.73127 8.24936L14.4204 0.560228L14.3812 0.52108L6.69212 8.21021L6.73127 8.24936ZM3.57948 5.13672L6.69212 8.24936L6.73127 8.21021L3.61863 5.09757L3.57948 5.13672ZM1.4655 5.13672C2.04926 4.55296 2.99572 4.55296 3.57948 5.13672L3.61863 5.09757C3.01325 4.49219 2.03173 4.49219 1.42635 5.09757L1.4655 5.13672ZM1.4655 7.2507C0.881742 6.66694 0.881742 5.72048 1.4655 5.13672L1.42635 5.09757C0.820973 5.70295 0.820973 6.68447 1.42635 7.28985L1.4655 7.2507ZM5.64078 11.426L1.4655 7.2507L1.42635 7.28985L5.60163 11.4651L5.64078 11.426ZM5.65461 11.44C5.65005 11.4354 5.64552 11.4308 5.64102 11.4262L5.60138 11.4649C5.60604 11.4697 5.61074 11.4744 5.61547 11.4791L5.65461 11.44ZM6.91295 11.8643C6.46634 11.9246 5.99781 11.7832 5.65461 11.44L5.61547 11.4791C5.9714 11.8351 6.45737 11.9817 6.92036 11.9191L6.91295 11.8643ZM7.76875 11.44C7.52814 11.6806 7.22598 11.822 6.91295 11.8643L6.92036 11.9191C7.24498 11.8753 7.55842 11.7286 7.8079 11.4791L7.76875 11.44ZM7.78063 11.428C7.7767 11.432 7.77274 11.436 7.76875 11.44L7.8079 11.4791C7.81203 11.475 7.81613 11.4708 7.82021 11.4667L7.78063 11.428ZM16.5344 2.67421L7.78084 11.4277L7.81999 11.4669L16.5735 2.71336L16.5344 2.67421Z" fill="#6B7280"/>
</svg>
