<svg width="276" height="299" viewBox="0 0 276 299" fill="none" xmlns="http://www.w3.org/2000/svg">
<g clip-path="url(#clip0_381_21781)">
<rect x="120.632" width="178.744" height="241.264" rx="9.61851" transform="rotate(30 120.632 0)" fill="#FDF2E5"/>
<mask id="mask0_381_21781" style="mask-type:alpha" maskUnits="userSpaceOnUse" x="0" y="0" width="269" height="294">
<g clip-path="url(#clip1_381_21781)">
<path d="M183.781 59.7216C185.555 70.1125 187.037 80.3338 186.281 91.1569C183.412 90.622 180.6 89.9935 177.482 88.8381C175.081 87.9494 172.48 86.7397 169.953 85.2808C168.279 84.314 166.651 83.2459 165.145 82.1005C161.676 79.4617 158.76 76.3472 155.733 73.008C164.605 67.0987 174.052 63.3293 183.782 59.722L183.781 59.7216ZM160.456 100.347C165.94 103.514 167.913 110.362 164.864 115.644C161.814 120.926 154.897 122.641 149.413 119.475C143.929 116.309 141.956 109.46 145.005 104.179C148.055 98.8966 154.972 97.1813 160.456 100.347ZM163.243 95.5198C154.991 90.7554 144.582 93.3364 139.993 101.285C135.404 109.233 138.373 119.538 146.626 124.303C154.878 129.067 165.287 126.486 169.876 118.538C174.465 110.589 171.496 100.284 163.243 95.5198ZM140.75 134.479C139.366 133.68 137.622 134.112 136.851 135.444L122.182 160.851C121.413 162.183 121.911 163.912 123.295 164.711C124.679 165.51 126.425 165.077 127.194 163.744L141.861 138.341C142.632 137.009 142.136 135.28 140.752 134.48L140.75 134.479ZM151.16 76.2925C154.294 79.7586 157.643 83.4007 161.725 86.5057C163.454 87.8212 165.297 89.0278 167.167 90.1071C169.982 91.7326 172.89 93.0873 175.611 94.0955C179.291 95.4585 182.595 96.172 185.692 96.7413C185.222 100.038 184.524 103.4 183.545 106.847C178.272 125.426 164.821 146.683 156.71 158.68C150.404 168.009 147.593 171.358 145.564 173.42L142.708 171.946C141.599 171.373 140.271 171.494 139.332 172.254L134.772 175.943L122.041 168.612L107.652 160.295L108.565 154.455C108.753 153.253 108.182 152.034 107.118 151.366L104.427 149.674C105.21 146.875 106.717 142.755 111.637 132.648C117.978 119.623 129.658 97.3527 143.107 83.4976C145.722 80.8031 148.41 78.4228 151.16 76.2921L151.16 76.2925ZM164.242 158.624L168.072 170.602L147.898 192.973L149.419 178.349C151.839 175.985 154.749 172.705 161.889 162.143C162.629 161.051 163.416 159.873 164.243 158.623L164.242 158.624ZM107.832 126.281C107.196 127.553 106.602 128.761 106.051 129.893C100.311 141.684 98.9981 145.755 98.1555 149.085L86.4813 157.527L95.8021 128.882L107.832 126.281ZM131.593 181.037L130.94 184.494L102.424 168.03L105.271 165.85L118.235 173.343C118.262 173.359 118.289 173.376 118.316 173.392L118.319 173.393L119.045 173.81L120.09 174.414L120.091 174.415C120.124 174.435 120.158 174.453 120.192 174.471L131.592 181.036L131.593 181.037ZM187.677 52.9697C186.86 52.4979 185.881 52.4088 185.015 52.727C169.284 58.5036 152.903 64.4822 138.573 79.2453C127.606 90.544 117.923 106.91 111.173 119.755L92.8477 123.718C91.8849 123.927 91.1159 124.613 90.8167 125.533L78.2645 164.107C77.8873 165.266 78.3286 166.557 79.3552 167.294C79.4368 167.353 79.5202 167.407 79.6062 167.457C80.5974 168.029 81.8338 167.988 82.7479 167.327L100.645 154.385L102.154 155.334L101.228 161.259C101.204 161.414 101.192 161.57 101.193 161.725L95.5212 166.069C94.7832 166.634 94.3908 167.532 94.4743 168.464C94.5574 169.396 95.1054 170.243 95.9371 170.723L131.644 191.338C132.451 191.804 133.425 191.868 134.259 191.508C135.095 191.148 135.689 190.41 135.857 189.524L137.301 181.877L141.803 178.234L143.554 179.138L141.269 201.101C141.152 202.223 141.734 203.317 142.727 203.89C142.811 203.939 142.899 203.984 142.99 204.025C144.141 204.546 145.479 204.285 146.296 203.38L173.463 173.255C174.111 172.537 174.322 171.528 174.023 170.59L168.227 152.461C175.956 140.211 185.22 123.727 189.498 108.651C195.116 88.8528 192.094 71.6734 189.222 55.1565C189.064 54.2483 188.496 53.445 187.679 52.9733L187.678 52.9729L187.677 52.9697ZM101.1 177.094C99.7087 176.291 97.953 176.726 97.1788 178.067L87.8296 194.26C87.0559 195.6 87.5561 197.338 88.9482 198.142C90.3404 198.946 92.0958 198.51 92.8695 197.17L102.219 180.976C102.993 179.636 102.492 177.898 101.1 177.094ZM123.67 190.125C122.277 189.321 120.522 189.756 119.748 191.097L110.399 207.29C109.625 208.63 110.126 210.369 111.518 211.172C112.91 211.976 114.665 211.541 115.439 210.2L124.788 194.007C125.562 192.667 125.061 190.928 123.67 190.125ZM107.409 192.373C106.018 191.57 104.262 192.005 103.488 193.346L92.2753 212.766C91.5015 214.107 92.0025 215.845 93.3939 216.648C94.7853 217.452 96.5414 217.016 97.3152 215.676L108.528 196.255C109.302 194.915 108.801 193.177 107.409 192.373ZM118.757 227.182C111.076 222.747 101.931 223.295 95.2669 227.85C93.8759 226.203 92.174 224.76 90.1882 223.614C87.7285 222.194 85.0917 221.379 82.4582 221.123C83.3419 212.874 79.2333 204.363 71.3502 199.811C62.5168 194.711 51.7475 196.202 45.0426 202.795C44.2954 202.279 43.5197 201.788 42.7186 201.326C30.1028 194.042 14.8171 195.844 4.8483 204.752C3.36987 206.073 2.00786 207.551 0.78894 209.178L6.09661 212.243C7.37913 210.625 8.84048 209.201 10.4376 207.979C18.5294 201.79 30.1235 200.814 39.7906 206.396C40.3753 206.733 40.9429 207.089 41.4923 207.461C43.1743 208.6 44.6905 209.897 46.0329 211.319C46.2272 210.897 46.4422 210.482 46.6787 210.072C47.4644 208.711 48.4308 207.518 49.5337 206.503C54.4933 201.938 62.2038 200.98 68.5561 204.648C74.9084 208.315 77.7576 215.064 76.5766 221.481C76.271 223.14 75.685 224.77 74.7978 226.307C74.3496 227.083 73.8426 227.804 73.2852 228.47C75.593 226.853 78.4065 226.038 81.2708 226.137C83.4392 226.211 85.6367 226.81 87.6656 227.981C89.1632 228.846 90.4367 229.947 91.4633 231.204C92.8934 232.956 93.8433 235.012 94.2526 237.161C95.3195 235.401 96.6946 233.933 98.2747 232.78C103.214 229.179 110.157 228.666 115.964 232.018C121.771 235.371 124.929 241.916 124.101 248.115C124.101 248.115 124.1 248.115 124.1 248.114C123.845 250.027 123.223 251.914 122.205 253.677L122.171 253.736C124.094 254.063 126.006 254.604 127.874 255.365C129.026 255.834 130.16 256.389 131.269 257.029C141.572 262.977 146.518 274.544 144.234 285.225C143.823 287.148 143.177 289.042 142.286 290.871L147.56 293.915C148.466 292.117 149.177 290.264 149.699 288.381C153.473 274.78 147.429 259.599 134.195 251.958C132.724 251.109 131.217 250.383 129.685 249.778L129.685 249.777C131.165 241.14 127.05 231.968 118.756 227.179L118.757 227.182Z" fill="#22323F"/>
</g>
</mask>
<g mask="url(#mask0_381_21781)">
<line y1="-0.300578" x2="697.661" y2="-0.300578" transform="matrix(0.958791 -0.284114 0.233346 0.972394 -214.835 261.606)" stroke="#DFB88E" stroke-width="0.601157"/>
<line y1="-0.300578" x2="697.661" y2="-0.300578" transform="matrix(0.958791 -0.284114 0.233346 0.972394 -190.987 337.42)" stroke="#DFB88E" stroke-width="0.601157"/>
<line y1="-0.300578" x2="697.661" y2="-0.300578" transform="matrix(0.958791 -0.284114 0.233346 0.972394 -225.246 181.811)" stroke="#DFB88E" stroke-width="0.601157"/>
<line y1="-0.300578" x2="697.661" y2="-0.300578" transform="matrix(0.958791 -0.284114 0.233346 0.972394 -199.37 298.203)" stroke="#DFB88E" stroke-width="0.601157"/>
<line y1="-0.300578" x2="697.661" y2="-0.300578" transform="matrix(0.958791 -0.284114 0.233346 0.972394 -209.781 218.407)" stroke="#DFB88E" stroke-width="0.601157"/>
<line y1="-0.300578" x2="697.661" y2="-0.300578" transform="matrix(0.958791 -0.284114 0.233346 0.972394 -175.523 374.018)" stroke="#DFB88E" stroke-width="0.601157"/>
<line y1="-0.300578" x2="697.661" y2="-0.300578" transform="matrix(0.958791 -0.284114 0.233346 0.972394 -209.203 280.788)" stroke="#DFB88E" stroke-width="0.601157"/>
<line y1="-0.300578" x2="697.661" y2="-0.300578" transform="matrix(0.958791 -0.284114 0.233346 0.972394 -185.356 356.603)" stroke="#DFB88E" stroke-width="0.601157"/>
<line y1="-0.300578" x2="697.661" y2="-0.300578" transform="matrix(0.958791 -0.284114 0.233346 0.972394 -193.739 317.386)" stroke="#DFB88E" stroke-width="0.601157"/>
<line y1="-0.300578" x2="697.661" y2="-0.300578" transform="matrix(0.958791 -0.284114 0.233346 0.972394 -204.15 237.59)" stroke="#DFB88E" stroke-width="0.601157"/>
<line y1="-0.300578" x2="697.661" y2="-0.300578" transform="matrix(0.958791 -0.284114 0.233346 0.972394 -169.893 393.2)" stroke="#DFB88E" stroke-width="0.601157"/>
<line y1="-0.300578" x2="697.661" y2="-0.300578" transform="matrix(0.958791 -0.284114 0.233346 0.972394 -205.78 269.349)" stroke="#DFB88E" stroke-width="0.601157"/>
<line y1="-0.300578" x2="697.661" y2="-0.300578" transform="matrix(0.958791 -0.284114 0.233346 0.972394 -181.934 345.163)" stroke="#DFB88E" stroke-width="0.601157"/>
<line y1="-0.300578" x2="697.661" y2="-0.300578" transform="matrix(0.958791 -0.284114 0.233346 0.972394 -190.316 305.946)" stroke="#DFB88E" stroke-width="0.601157"/>
<line y1="-0.300578" x2="697.661" y2="-0.300578" transform="matrix(0.958791 -0.284114 0.233346 0.972394 -200.728 226.15)" stroke="#DFB88E" stroke-width="0.601157"/>
<line y1="-0.300578" x2="697.661" y2="-0.300578" transform="matrix(0.958791 -0.284114 0.233346 0.972394 -166.47 381.76)" stroke="#DFB88E" stroke-width="0.601157"/>
<line y1="-0.300578" x2="697.661" y2="-0.300578" transform="matrix(0.958791 -0.284114 0.233346 0.972394 -200.149 288.53)" stroke="#DFB88E" stroke-width="0.601157"/>
<line y1="-0.300578" x2="697.661" y2="-0.300578" transform="matrix(0.958791 -0.284114 0.233346 0.972394 -210.561 208.734)" stroke="#DFB88E" stroke-width="0.601157"/>
<line y1="-0.300578" x2="697.661" y2="-0.300578" transform="matrix(0.958791 -0.284114 0.233346 0.972394 -176.303 364.345)" stroke="#DFB88E" stroke-width="0.601157"/>
<line y1="-0.300578" x2="697.661" y2="-0.300578" transform="matrix(0.958791 -0.284114 0.233346 0.972394 -219.614 200.992)" stroke="#DFB88E" stroke-width="0.601157"/>
<line y1="-0.300578" x2="697.661" y2="-0.300578" transform="matrix(0.958791 -0.284114 0.233346 0.972394 -184.686 325.128)" stroke="#DFB88E" stroke-width="0.601157"/>
<line y1="-0.300578" x2="697.661" y2="-0.300578" transform="matrix(0.958791 -0.284114 0.233346 0.972394 -195.097 245.332)" stroke="#DFB88E" stroke-width="0.601157"/>
<line y1="-0.300578" x2="697.661" y2="-0.300578" transform="matrix(0.958791 -0.284114 0.233346 0.972394 -160.839 400.942)" stroke="#DFB88E" stroke-width="0.601157"/>
<line y1="-0.300578" x2="697.661" y2="-0.300578" transform="matrix(0.958791 -0.284114 0.233346 0.972394 -211.747 265.903)" stroke="#DFB88E" stroke-width="0.601157"/>
<line y1="-0.300578" x2="697.661" y2="-0.300578" transform="matrix(0.958791 -0.284114 0.233346 0.972394 -227.997 161.775)" stroke="#DFB88E" stroke-width="0.601157"/>
<line y1="-0.300578" x2="697.661" y2="-0.300578" transform="matrix(0.958791 -0.284114 0.233346 0.972394 -187.9 341.718)" stroke="#DFB88E" stroke-width="0.601157"/>
<line y1="-0.300578" x2="697.661" y2="-0.300578" transform="matrix(0.958791 -0.284114 0.233346 0.972394 -196.283 302.501)" stroke="#DFB88E" stroke-width="0.601157"/>
<line y1="-0.300578" x2="697.661" y2="-0.300578" transform="matrix(0.958791 -0.284114 0.233346 0.972394 -206.693 222.706)" stroke="#DFB88E" stroke-width="0.601157"/>
<line y1="-0.300578" x2="697.661" y2="-0.300578" transform="matrix(0.958791 -0.284114 0.233346 0.972394 -172.436 378.315)" stroke="#DFB88E" stroke-width="0.601157"/>
<line y1="-0.300578" x2="697.661" y2="-0.300578" transform="matrix(0.958791 -0.284114 0.233346 0.972394 -206.116 285.085)" stroke="#DFB88E" stroke-width="0.601157"/>
<line y1="-0.300578" x2="697.661" y2="-0.300578" transform="matrix(0.958791 -0.284114 0.233346 0.972394 -182.27 360.9)" stroke="#DFB88E" stroke-width="0.601157"/>
<line y1="-0.300578" x2="697.661" y2="-0.300578" transform="matrix(0.958791 -0.284114 0.233346 0.972394 -190.652 321.684)" stroke="#DFB88E" stroke-width="0.601157"/>
<line y1="-0.300578" x2="697.661" y2="-0.300578" transform="matrix(0.958791 -0.284114 0.233346 0.972394 -201.063 241.888)" stroke="#DFB88E" stroke-width="0.601157"/>
<line y1="-0.300578" x2="697.661" y2="-0.300578" transform="matrix(0.958791 -0.284114 0.233346 0.972394 -166.806 397.498)" stroke="#DFB88E" stroke-width="0.601157"/>
<line y1="-0.300578" x2="697.661" y2="-0.300578" transform="matrix(0.958791 -0.284114 0.233346 0.972394 -202.693 273.646)" stroke="#DFB88E" stroke-width="0.601157"/>
<line y1="-0.300578" x2="697.661" y2="-0.300578" transform="matrix(0.958791 -0.284114 0.233346 0.972394 -216.192 189.553)" stroke="#DFB88E" stroke-width="0.601157"/>
<line y1="-0.300578" x2="697.661" y2="-0.300578" transform="matrix(0.958791 -0.284114 0.233346 0.972394 -178.847 349.461)" stroke="#DFB88E" stroke-width="0.601157"/>
<line y1="-0.300578" x2="697.661" y2="-0.300578" transform="matrix(0.958791 -0.284114 0.233346 0.972394 -187.229 310.243)" stroke="#DFB88E" stroke-width="0.601157"/>
<line y1="-0.300578" x2="697.661" y2="-0.300578" transform="matrix(0.958791 -0.284114 0.233346 0.972394 -197.641 230.448)" stroke="#DFB88E" stroke-width="0.601157"/>
<line y1="-0.300578" x2="697.661" y2="-0.300578" transform="matrix(0.958791 -0.284114 0.233346 0.972394 -163.383 386.059)" stroke="#DFB88E" stroke-width="0.601157"/>
<line y1="-0.300578" x2="697.661" y2="-0.300578" transform="matrix(0.958791 -0.284114 0.233346 0.972394 -224.575 150.336)" stroke="#DFB88E" stroke-width="0.601157"/>
<line y1="-0.300578" x2="697.661" y2="-0.300578" transform="matrix(0.958791 -0.284114 0.233346 0.972394 -197.062 292.828)" stroke="#DFB88E" stroke-width="0.601157"/>
<line y1="-0.300578" x2="697.661" y2="-0.300578" transform="matrix(0.958791 -0.284114 0.233346 0.972394 -207.474 213.032)" stroke="#DFB88E" stroke-width="0.601157"/>
<line y1="-0.300578" x2="697.661" y2="-0.300578" transform="matrix(0.958791 -0.284114 0.233346 0.972394 -173.215 368.643)" stroke="#DFB88E" stroke-width="0.601157"/>
<line y1="-0.300578" x2="697.661" y2="-0.300578" transform="matrix(0.958791 -0.284114 0.233346 0.972394 -181.599 329.426)" stroke="#DFB88E" stroke-width="0.601157"/>
<line y1="-0.300578" x2="697.661" y2="-0.300578" transform="matrix(0.958791 -0.284114 0.233346 0.972394 -192.01 249.63)" stroke="#DFB88E" stroke-width="0.601157"/>
<line y1="-0.300578" x2="697.661" y2="-0.300578" transform="matrix(0.958791 -0.284114 0.233346 0.972394 -157.752 405.24)" stroke="#DFB88E" stroke-width="0.601157"/>
<line y1="-0.300578" x2="697.661" y2="-0.300578" transform="matrix(0.958791 -0.284114 0.233346 0.972394 -212.811 263.612)" stroke="#DFB88E" stroke-width="0.601157"/>
<line y1="-0.300578" x2="697.661" y2="-0.300578" transform="matrix(0.958791 -0.284114 0.233346 0.972394 -188.964 339.427)" stroke="#DFB88E" stroke-width="0.601157"/>
<line y1="-0.300578" x2="697.661" y2="-0.300578" transform="matrix(0.958791 -0.284114 0.233346 0.972394 -197.347 300.21)" stroke="#DFB88E" stroke-width="0.601157"/>
<line y1="-0.300578" x2="697.661" y2="-0.300578" transform="matrix(0.958791 -0.284114 0.233346 0.972394 -207.758 220.414)" stroke="#DFB88E" stroke-width="0.601157"/>
<line y1="-0.300578" x2="697.661" y2="-0.300578" transform="matrix(0.958791 -0.284114 0.233346 0.972394 -173.5 376.024)" stroke="#DFB88E" stroke-width="0.601157"/>
<line y1="-0.300578" x2="697.661" y2="-0.300578" transform="matrix(0.958791 -0.284114 0.233346 0.972394 -207.18 282.795)" stroke="#DFB88E" stroke-width="0.601157"/>
<line y1="-0.300578" x2="697.661" y2="-0.300578" transform="matrix(0.958791 -0.284114 0.233346 0.972394 -183.333 358.609)" stroke="#DFB88E" stroke-width="0.601157"/>
<line y1="-0.300578" x2="697.661" y2="-0.300578" transform="matrix(0.958791 -0.284114 0.233346 0.972394 -191.716 319.393)" stroke="#DFB88E" stroke-width="0.601157"/>
<line y1="-0.300578" x2="697.661" y2="-0.300578" transform="matrix(0.958791 -0.284114 0.233346 0.972394 -202.127 239.596)" stroke="#DFB88E" stroke-width="0.601157"/>
<line y1="-0.300578" x2="697.661" y2="-0.300578" transform="matrix(0.958791 -0.284114 0.233346 0.972394 -167.869 395.206)" stroke="#DFB88E" stroke-width="0.601157"/>
<line y1="-0.300578" x2="697.661" y2="-0.300578" transform="matrix(0.958791 -0.284114 0.233346 0.972394 -218.943 169.518)" stroke="#DFB88E" stroke-width="0.601157"/>
<line y1="-0.300578" x2="697.661" y2="-0.300578" transform="matrix(0.958791 -0.284114 0.233346 0.972394 -203.758 271.355)" stroke="#DFB88E" stroke-width="0.601157"/>
<line y1="-0.300578" x2="697.661" y2="-0.300578" transform="matrix(0.958791 -0.284114 0.233346 0.972394 -179.91 347.169)" stroke="#DFB88E" stroke-width="0.601157"/>
<line y1="-0.300578" x2="697.661" y2="-0.300578" transform="matrix(0.958791 -0.284114 0.233346 0.972394 -188.294 307.952)" stroke="#DFB88E" stroke-width="0.601157"/>
<line y1="-0.300578" x2="697.661" y2="-0.300578" transform="matrix(0.958791 -0.284114 0.233346 0.972394 -198.705 228.157)" stroke="#DFB88E" stroke-width="0.601157"/>
<line y1="-0.300578" x2="697.661" y2="-0.300578" transform="matrix(0.958791 -0.284114 0.233346 0.972394 -164.446 383.768)" stroke="#DFB88E" stroke-width="0.601157"/>
<line y1="-0.300578" x2="697.661" y2="-0.300578" transform="matrix(0.958791 -0.284114 0.233346 0.972394 -198.127 290.537)" stroke="#DFB88E" stroke-width="0.601157"/>
<line y1="-0.300578" x2="697.661" y2="-0.300578" transform="matrix(0.958791 -0.284114 0.233346 0.972394 -208.537 210.741)" stroke="#DFB88E" stroke-width="0.601157"/>
<line y1="-0.300578" x2="697.661" y2="-0.300578" transform="matrix(0.958791 -0.284114 0.233346 0.972394 -174.279 366.352)" stroke="#DFB88E" stroke-width="0.601157"/>
<line y1="-0.300578" x2="697.661" y2="-0.300578" transform="matrix(0.958791 -0.284114 0.233346 0.972394 -182.662 327.135)" stroke="#DFB88E" stroke-width="0.601157"/>
<line y1="-0.300578" x2="697.661" y2="-0.300578" transform="matrix(0.958791 -0.284114 0.233346 0.972394 -193.073 247.339)" stroke="#DFB88E" stroke-width="0.601157"/>
<line y1="-0.300578" x2="697.661" y2="-0.300578" transform="matrix(0.958791 -0.284114 0.233346 0.972394 -158.815 402.949)" stroke="#DFB88E" stroke-width="0.601157"/>
<line y1="-0.300578" x2="697.661" y2="-0.300578" transform="matrix(0.958791 -0.284114 0.233346 0.972394 -209.724 267.91)" stroke="#DFB88E" stroke-width="0.601157"/>
<line y1="-0.300578" x2="697.661" y2="-0.300578" transform="matrix(0.958791 -0.284114 0.233346 0.972394 -222.158 186.107)" stroke="#DFB88E" stroke-width="0.601157"/>
<line y1="-0.300578" x2="697.661" y2="-0.300578" transform="matrix(0.958791 -0.284114 0.233346 0.972394 -185.877 343.726)" stroke="#DFB88E" stroke-width="0.601157"/>
<line y1="-0.300578" x2="697.661" y2="-0.300578" transform="matrix(0.958791 -0.284114 0.233346 0.972394 -194.26 304.509)" stroke="#DFB88E" stroke-width="0.601157"/>
<line y1="-0.300578" x2="697.661" y2="-0.300578" transform="matrix(0.958791 -0.284114 0.233346 0.972394 -204.671 224.712)" stroke="#DFB88E" stroke-width="0.601157"/>
<line y1="-0.300578" x2="697.661" y2="-0.300578" transform="matrix(0.958791 -0.284114 0.233346 0.972394 -170.413 380.322)" stroke="#DFB88E" stroke-width="0.601157"/>
<line y1="-0.300578" x2="697.661" y2="-0.300578" transform="matrix(0.958791 -0.284114 0.233346 0.972394 -230.541 146.891)" stroke="#DFB88E" stroke-width="0.601157"/>
<line y1="-0.300578" x2="697.661" y2="-0.300578" transform="matrix(0.958791 -0.284114 0.233346 0.972394 -204.093 287.092)" stroke="#DFB88E" stroke-width="0.601157"/>
<line y1="-0.300578" x2="697.661" y2="-0.300578" transform="matrix(0.958791 -0.284114 0.233346 0.972394 -180.245 362.906)" stroke="#DFB88E" stroke-width="0.601157"/>
<line y1="-0.300578" x2="697.661" y2="-0.300578" transform="matrix(0.958791 -0.284114 0.233346 0.972394 -188.628 323.689)" stroke="#DFB88E" stroke-width="0.601157"/>
<line y1="-0.300578" x2="697.661" y2="-0.300578" transform="matrix(0.958791 -0.284114 0.233346 0.972394 -199.04 243.895)" stroke="#DFB88E" stroke-width="0.601157"/>
<line y1="-0.300578" x2="697.661" y2="-0.300578" transform="matrix(0.958791 -0.284114 0.233346 0.972394 -164.782 399.505)" stroke="#DFB88E" stroke-width="0.601157"/>
<line y1="-0.300578" x2="697.661" y2="-0.300578" transform="matrix(0.958791 -0.284114 0.233346 0.972394 -200.67 275.653)" stroke="#DFB88E" stroke-width="0.601157"/>
<line y1="-0.300578" x2="697.661" y2="-0.300578" transform="matrix(0.958791 -0.284114 0.233346 0.972394 -176.823 351.468)" stroke="#DFB88E" stroke-width="0.601157"/>
<line y1="-0.300578" x2="697.661" y2="-0.300578" transform="matrix(0.958791 -0.284114 0.233346 0.972394 -185.206 312.251)" stroke="#DFB88E" stroke-width="0.601157"/>
<line y1="-0.300578" x2="697.661" y2="-0.300578" transform="matrix(0.958791 -0.284114 0.233346 0.972394 -195.617 232.455)" stroke="#DFB88E" stroke-width="0.601157"/>
<line y1="-0.300578" x2="697.661" y2="-0.300578" transform="matrix(0.958791 -0.284114 0.233346 0.972394 -161.358 388.064)" stroke="#DFB88E" stroke-width="0.601157"/>
<line y1="-0.300578" x2="697.661" y2="-0.300578" transform="matrix(0.958791 -0.284114 0.233346 0.972394 -216.527 205.29)" stroke="#DFB88E" stroke-width="0.601157"/>
<line y1="-0.300578" x2="697.661" y2="-0.300578" transform="matrix(0.958791 -0.284114 0.233346 0.972394 -195.039 294.835)" stroke="#DFB88E" stroke-width="0.601157"/>
<line y1="-0.300578" x2="697.661" y2="-0.300578" transform="matrix(0.958791 -0.284114 0.233346 0.972394 -205.45 215.038)" stroke="#DFB88E" stroke-width="0.601157"/>
<line y1="-0.300578" x2="697.661" y2="-0.300578" transform="matrix(0.958791 -0.284114 0.233346 0.972394 -171.191 370.649)" stroke="#DFB88E" stroke-width="0.601157"/>
<line y1="-0.300578" x2="697.661" y2="-0.300578" transform="matrix(0.958791 -0.284114 0.233346 0.972394 -179.575 331.433)" stroke="#DFB88E" stroke-width="0.601157"/>
<line y1="-0.300578" x2="697.661" y2="-0.300578" transform="matrix(0.958791 -0.284114 0.233346 0.972394 -189.985 251.637)" stroke="#DFB88E" stroke-width="0.601157"/>
<line y1="-0.300578" x2="697.661" y2="-0.300578" transform="matrix(0.958791 -0.284114 0.233346 0.972394 -155.729 407.247)" stroke="#DFB88E" stroke-width="0.601157"/>
<line y1="-0.300578" x2="697.661" y2="-0.300578" transform="matrix(0.958791 -0.284114 0.233346 0.972394 -224.91 166.073)" stroke="#DFB88E" stroke-width="0.601157"/>
<line y1="-0.300578" x2="697.661" y2="-0.300578" transform="matrix(0.958791 -0.284114 0.233346 0.972394 -213.104 193.851)" stroke="#DFB88E" stroke-width="0.601157"/>
<line y1="-0.300578" x2="697.661" y2="-0.300578" transform="matrix(0.958791 -0.284114 0.233346 0.972394 -221.487 154.633)" stroke="#DFB88E" stroke-width="0.601157"/>
<line y1="-0.300578" x2="697.661" y2="-0.300578" transform="matrix(0.958791 -0.284114 0.233346 0.972394 -215.856 173.815)" stroke="#DFB88E" stroke-width="0.601157"/>
<line y1="-0.300578" x2="697.661" y2="-0.300578" transform="matrix(0.958791 -0.284114 0.233346 0.972394 -223.222 183.816)" stroke="#DFB88E" stroke-width="0.601157"/>
<line y1="-0.300578" x2="697.661" y2="-0.300578" transform="matrix(0.958791 -0.284114 0.233346 0.972394 -217.591 202.998)" stroke="#DFB88E" stroke-width="0.601157"/>
<line y1="-0.300578" x2="697.661" y2="-0.300578" transform="matrix(0.958791 -0.284114 0.233346 0.972394 -225.974 163.781)" stroke="#DFB88E" stroke-width="0.601157"/>
<line y1="-0.300578" x2="697.661" y2="-0.300578" transform="matrix(0.958791 -0.284114 0.233346 0.972394 -214.168 191.559)" stroke="#DFB88E" stroke-width="0.601157"/>
<line y1="-0.300578" x2="697.661" y2="-0.300578" transform="matrix(0.958791 -0.284114 0.233346 0.972394 -222.552 152.342)" stroke="#DFB88E" stroke-width="0.601157"/>
<line y1="-0.300578" x2="697.661" y2="-0.300578" transform="matrix(0.958791 -0.284114 0.233346 0.972394 -216.92 171.524)" stroke="#DFB88E" stroke-width="0.601157"/>
<line y1="-0.300578" x2="697.661" y2="-0.300578" transform="matrix(0.958791 -0.284114 0.233346 0.972394 -220.135 188.115)" stroke="#DFB88E" stroke-width="0.601157"/>
<line y1="-0.300578" x2="697.661" y2="-0.300578" transform="matrix(0.958791 -0.284114 0.233346 0.972394 -228.518 148.897)" stroke="#DFB88E" stroke-width="0.601157"/>
<line y1="-0.300578" x2="697.661" y2="-0.300578" transform="matrix(0.958791 -0.284114 0.233346 0.972394 -214.504 207.296)" stroke="#DFB88E" stroke-width="0.601157"/>
<line y1="-0.300578" x2="697.661" y2="-0.300578" transform="matrix(0.958791 -0.284114 0.233346 0.972394 -222.887 168.079)" stroke="#DFB88E" stroke-width="0.601157"/>
<line y1="-0.300578" x2="697.661" y2="-0.300578" transform="matrix(0.958791 -0.284114 0.233346 0.972394 -211.081 195.857)" stroke="#DFB88E" stroke-width="0.601157"/>
<line y1="-0.300578" x2="697.661" y2="-0.300578" transform="matrix(0.958791 -0.284114 0.233346 0.972394 -219.464 156.641)" stroke="#DFB88E" stroke-width="0.601157"/>
<line y1="-0.300578" x2="697.661" y2="-0.300578" transform="matrix(0.958791 -0.284114 0.233346 0.972394 -213.833 175.822)" stroke="#DFB88E" stroke-width="0.601157"/>
</g>
<g clip-path="url(#clip2_381_21781)">
<mask id="path-116-inside-1_381_21781" fill="white">
<path d="M183.783 59.7201C185.558 70.1086 187.041 80.3274 186.287 91.1475C183.418 90.6123 180.606 89.9835 177.488 88.8279C175.088 87.9391 172.487 86.7293 169.96 85.2704C168.285 84.3036 166.657 83.2355 165.152 82.0902C161.683 79.4516 158.766 76.3374 155.739 72.9987C164.609 67.0923 174.054 63.3254 183.783 59.7205L183.783 59.7201ZM160.466 100.332C165.95 103.498 167.924 110.345 164.876 115.625C161.827 120.905 154.91 122.618 149.427 119.452C143.943 116.286 141.968 109.439 145.017 104.159C148.065 98.8791 154.982 97.1654 160.466 100.332ZM163.252 95.5056C155 90.7412 144.592 93.3199 140.005 101.265C135.417 109.211 138.388 119.514 146.64 124.278C154.892 129.043 165.3 126.464 169.888 118.518C174.475 110.573 171.504 100.27 163.252 95.5056ZM140.766 134.451C139.383 133.652 137.639 134.083 136.868 135.415L122.205 160.813C121.436 162.145 121.934 163.874 123.318 164.672C124.702 165.471 126.448 165.039 127.217 163.706L141.878 138.312C142.649 136.981 142.153 135.252 140.768 134.452L140.766 134.451ZM151.167 76.2816C154.301 79.7472 157.65 83.389 161.733 86.4937C163.462 87.8091 165.305 89.0157 167.174 90.095C169.99 91.7205 172.898 93.0752 175.619 94.0836C179.299 95.4469 182.602 96.1606 185.698 96.7303C185.229 100.026 184.532 103.387 183.554 106.833C178.284 125.406 164.838 146.656 156.729 158.648C150.425 167.974 147.615 171.321 145.586 173.382L142.73 171.908C141.622 171.336 140.293 171.456 139.354 172.216L134.796 175.903L122.065 168.571L107.676 160.255L108.587 154.416C108.775 153.215 108.204 151.997 107.14 151.328L104.449 149.636C105.232 146.839 106.738 142.719 111.656 132.616C117.995 119.595 129.671 97.3328 143.116 83.4835C145.73 80.7902 148.417 78.4109 151.166 76.2812L151.167 76.2816ZM164.261 158.593L168.092 170.568L147.923 192.93L149.442 178.311C151.862 175.947 154.771 172.669 161.909 162.111C162.647 161.019 163.435 159.842 164.261 158.592L164.261 158.593ZM107.85 126.25C107.215 127.521 106.621 128.73 106.07 129.861C100.332 141.648 99.0203 145.717 98.1783 149.047L86.5064 157.485L95.822 128.848L107.85 126.25ZM131.618 180.995L130.965 184.451L102.449 167.987L105.295 165.808L118.259 173.301C118.287 173.317 118.313 173.334 118.341 173.35L118.344 173.351L119.07 173.768L120.115 174.372L120.116 174.373C120.149 174.393 120.183 174.411 120.217 174.429L131.617 180.994L131.618 180.995ZM187.677 52.9706C186.86 52.4989 185.881 52.4097 185.016 52.7276C169.286 58.5003 152.908 64.4747 138.581 79.2316C127.617 90.5256 117.937 106.886 111.19 119.727L92.8671 123.686C91.9044 123.894 91.1355 124.58 90.8365 125.5L78.2913 164.061C77.9144 165.22 78.3559 166.511 79.3825 167.248C79.4641 167.307 79.5475 167.361 79.6335 167.411C80.6247 167.983 81.861 167.941 82.7749 167.281L100.669 154.346L102.177 155.294L101.253 161.217C101.229 161.373 101.216 161.529 101.217 161.684L95.5469 166.026C94.8091 166.591 94.4168 167.488 94.5004 168.42C94.5836 169.352 95.1318 170.198 95.9634 170.678L131.67 191.294C132.477 191.759 133.451 191.823 134.286 191.463C135.121 191.104 135.715 190.366 135.883 189.481L137.326 181.836L141.826 178.195L143.577 179.099L141.296 201.055C141.179 202.177 141.761 203.27 142.754 203.843C142.839 203.892 142.926 203.938 143.017 203.979C144.168 204.5 145.506 204.239 146.323 203.334L173.483 173.222C174.131 172.503 174.342 171.495 174.042 170.557L168.244 152.432C175.97 140.187 185.231 123.709 189.507 108.638C195.121 88.8454 192.097 71.6701 189.222 55.1571C189.064 54.2491 188.496 53.446 187.679 52.9742L187.678 52.9738L187.677 52.9706ZM101.127 177.049C99.7356 176.245 97.9801 176.68 97.2062 178.02L87.8603 194.208C87.0868 195.547 87.5873 197.285 88.9794 198.089C90.3716 198.893 92.1268 198.457 92.9002 197.117L102.246 180.93C103.02 179.59 102.518 177.852 101.127 177.049ZM123.696 190.079C122.304 189.275 120.549 189.71 119.776 191.051L110.43 207.238C109.656 208.578 110.157 210.316 111.549 211.119C112.941 211.923 114.696 211.488 115.47 210.148L124.816 193.96C125.589 192.621 125.088 190.882 123.696 190.079ZM107.438 192.325C106.046 191.521 104.291 191.956 103.517 193.296L92.3084 212.71C91.5349 214.05 92.0361 215.788 93.4276 216.591C94.819 217.394 96.5749 216.959 97.3484 215.62L108.557 196.206C109.33 194.866 108.829 193.128 107.438 192.325ZM118.79 227.126C111.109 222.691 101.965 223.238 95.3021 227.79C93.9109 226.144 92.2091 224.701 90.2232 223.554C87.7636 222.134 85.1268 221.319 82.4935 221.063C83.3759 212.816 79.2663 204.306 71.3832 199.755C62.5498 194.655 51.7817 196.144 45.0784 202.734C44.3312 202.218 43.5555 201.727 42.7544 201.265C30.1386 193.981 14.8545 195.78 4.88801 204.684C3.40992 206.004 2.04827 207.482 0.829704 209.109L6.13737 212.173C7.41952 210.556 8.88053 209.132 10.4773 207.911C18.5675 201.725 30.1603 200.751 39.8275 206.333C40.4122 206.67 40.9797 207.026 41.5291 207.398C43.2112 208.537 44.7275 209.834 46.07 211.256C46.2642 210.834 46.4791 210.419 46.7155 210.009C47.5009 208.649 48.4671 207.456 49.5697 206.442C54.5282 201.879 62.2379 200.922 68.5902 204.59C74.9424 208.257 77.7924 215.005 76.6125 221.42C76.3072 223.078 75.7214 224.708 74.8346 226.244C74.3865 227.02 73.8798 227.741 73.3224 228.407C75.6298 226.79 78.4429 225.975 81.307 226.075C83.4752 226.15 85.6727 226.749 87.7015 227.92C89.1991 228.785 90.4726 229.885 91.4994 231.142C92.9296 232.894 93.8798 234.95 94.2894 237.099C95.3559 235.339 96.7306 233.871 98.3104 232.719C103.248 229.12 110.191 228.608 115.998 231.96C121.805 235.313 124.963 241.856 124.137 248.054L124.135 248.053C123.881 249.965 123.259 251.852 122.242 253.614L122.208 253.673C124.131 254.001 126.043 254.541 127.911 255.303C129.062 255.772 130.196 256.326 131.305 256.967C141.608 262.915 146.556 274.48 144.274 285.157C143.863 287.08 143.217 288.973 142.327 290.801L147.6 293.846C148.506 292.048 149.217 290.196 149.739 288.313C153.51 274.716 147.465 259.538 134.231 251.898C132.76 251.048 131.252 250.322 129.721 249.717L129.72 249.717C131.199 241.082 127.083 231.912 118.789 227.123L118.79 227.126Z"/>
</mask>
<path d="M183.783 59.7201C185.558 70.1086 187.041 80.3274 186.287 91.1475C183.418 90.6123 180.606 89.9835 177.488 88.8279C175.088 87.9391 172.487 86.7293 169.96 85.2704C168.285 84.3036 166.657 83.2355 165.152 82.0902C161.683 79.4516 158.766 76.3374 155.739 72.9987C164.609 67.0923 174.054 63.3254 183.783 59.7205L183.783 59.7201ZM160.466 100.332C165.95 103.498 167.924 110.345 164.876 115.625C161.827 120.905 154.91 122.618 149.427 119.452C143.943 116.286 141.968 109.439 145.017 104.159C148.065 98.8791 154.982 97.1654 160.466 100.332ZM163.252 95.5056C155 90.7412 144.592 93.3199 140.005 101.265C135.417 109.211 138.388 119.514 146.64 124.278C154.892 129.043 165.3 126.464 169.888 118.518C174.475 110.573 171.504 100.27 163.252 95.5056ZM140.766 134.451C139.383 133.652 137.639 134.083 136.868 135.415L122.205 160.813C121.436 162.145 121.934 163.874 123.318 164.672C124.702 165.471 126.448 165.039 127.217 163.706L141.878 138.312C142.649 136.981 142.153 135.252 140.768 134.452L140.766 134.451ZM151.167 76.2816C154.301 79.7472 157.65 83.389 161.733 86.4937C163.462 87.8091 165.305 89.0157 167.174 90.095C169.99 91.7205 172.898 93.0752 175.619 94.0836C179.299 95.4469 182.602 96.1606 185.698 96.7303C185.229 100.026 184.532 103.387 183.554 106.833C178.284 125.406 164.838 146.656 156.729 158.648C150.425 167.974 147.615 171.321 145.586 173.382L142.73 171.908C141.622 171.336 140.293 171.456 139.354 172.216L134.796 175.903L122.065 168.571L107.676 160.255L108.587 154.416C108.775 153.215 108.204 151.997 107.14 151.328L104.449 149.636C105.232 146.839 106.738 142.719 111.656 132.616C117.995 119.595 129.671 97.3328 143.116 83.4835C145.73 80.7902 148.417 78.4109 151.166 76.2812L151.167 76.2816ZM164.261 158.593L168.092 170.568L147.923 192.93L149.442 178.311C151.862 175.947 154.771 172.669 161.909 162.111C162.647 161.019 163.435 159.842 164.261 158.592L164.261 158.593ZM107.85 126.25C107.215 127.521 106.621 128.73 106.07 129.861C100.332 141.648 99.0203 145.717 98.1783 149.047L86.5064 157.485L95.822 128.848L107.85 126.25ZM131.618 180.995L130.965 184.451L102.449 167.987L105.295 165.808L118.259 173.301C118.287 173.317 118.313 173.334 118.341 173.35L118.344 173.351L119.07 173.768L120.115 174.372L120.116 174.373C120.149 174.393 120.183 174.411 120.217 174.429L131.617 180.994L131.618 180.995ZM187.677 52.9706C186.86 52.4989 185.881 52.4097 185.016 52.7276C169.286 58.5003 152.908 64.4747 138.581 79.2316C127.617 90.5256 117.937 106.886 111.19 119.727L92.8671 123.686C91.9044 123.894 91.1355 124.58 90.8365 125.5L78.2913 164.061C77.9144 165.22 78.3559 166.511 79.3825 167.248C79.4641 167.307 79.5475 167.361 79.6335 167.411C80.6247 167.983 81.861 167.941 82.7749 167.281L100.669 154.346L102.177 155.294L101.253 161.217C101.229 161.373 101.216 161.529 101.217 161.684L95.5469 166.026C94.8091 166.591 94.4168 167.488 94.5004 168.42C94.5836 169.352 95.1318 170.198 95.9634 170.678L131.67 191.294C132.477 191.759 133.451 191.823 134.286 191.463C135.121 191.104 135.715 190.366 135.883 189.481L137.326 181.836L141.826 178.195L143.577 179.099L141.296 201.055C141.179 202.177 141.761 203.27 142.754 203.843C142.839 203.892 142.926 203.938 143.017 203.979C144.168 204.5 145.506 204.239 146.323 203.334L173.483 173.222C174.131 172.503 174.342 171.495 174.042 170.557L168.244 152.432C175.97 140.187 185.231 123.709 189.507 108.638C195.121 88.8454 192.097 71.6701 189.222 55.1571C189.064 54.2491 188.496 53.446 187.679 52.9742L187.678 52.9738L187.677 52.9706ZM101.127 177.049C99.7356 176.245 97.9801 176.68 97.2062 178.02L87.8603 194.208C87.0868 195.547 87.5873 197.285 88.9794 198.089C90.3716 198.893 92.1268 198.457 92.9002 197.117L102.246 180.93C103.02 179.59 102.518 177.852 101.127 177.049ZM123.696 190.079C122.304 189.275 120.549 189.71 119.776 191.051L110.43 207.238C109.656 208.578 110.157 210.316 111.549 211.119C112.941 211.923 114.696 211.488 115.47 210.148L124.816 193.96C125.589 192.621 125.088 190.882 123.696 190.079ZM107.438 192.325C106.046 191.521 104.291 191.956 103.517 193.296L92.3084 212.71C91.5349 214.05 92.0361 215.788 93.4276 216.591C94.819 217.394 96.5749 216.959 97.3484 215.62L108.557 196.206C109.33 194.866 108.829 193.128 107.438 192.325ZM118.79 227.126C111.109 222.691 101.965 223.238 95.3021 227.79C93.9109 226.144 92.2091 224.701 90.2232 223.554C87.7636 222.134 85.1268 221.319 82.4935 221.063C83.3759 212.816 79.2663 204.306 71.3832 199.755C62.5498 194.655 51.7817 196.144 45.0784 202.734C44.3312 202.218 43.5555 201.727 42.7544 201.265C30.1386 193.981 14.8545 195.78 4.88801 204.684C3.40992 206.004 2.04827 207.482 0.829704 209.109L6.13737 212.173C7.41952 210.556 8.88053 209.132 10.4773 207.911C18.5675 201.725 30.1603 200.751 39.8275 206.333C40.4122 206.67 40.9797 207.026 41.5291 207.398C43.2112 208.537 44.7275 209.834 46.07 211.256C46.2642 210.834 46.4791 210.419 46.7155 210.009C47.5009 208.649 48.4671 207.456 49.5697 206.442C54.5282 201.879 62.2379 200.922 68.5902 204.59C74.9424 208.257 77.7924 215.005 76.6125 221.42C76.3072 223.078 75.7214 224.708 74.8346 226.244C74.3865 227.02 73.8798 227.741 73.3224 228.407C75.6298 226.79 78.4429 225.975 81.307 226.075C83.4752 226.15 85.6727 226.749 87.7015 227.92C89.1991 228.785 90.4726 229.885 91.4994 231.142C92.9296 232.894 93.8798 234.95 94.2894 237.099C95.3559 235.339 96.7306 233.871 98.3104 232.719C103.248 229.12 110.191 228.608 115.998 231.96C121.805 235.313 124.963 241.856 124.137 248.054L124.135 248.053C123.881 249.965 123.259 251.852 122.242 253.614L122.208 253.673C124.131 254.001 126.043 254.541 127.911 255.303C129.062 255.772 130.196 256.326 131.305 256.967C141.608 262.915 146.556 274.48 144.274 285.157C143.863 287.08 143.217 288.973 142.327 290.801L147.6 293.846C148.506 292.048 149.217 290.196 149.739 288.313C153.51 274.716 147.465 259.538 134.231 251.898C132.76 251.048 131.252 250.322 129.721 249.717L129.72 249.717C131.199 241.082 127.083 231.912 118.789 227.123L118.79 227.126Z" stroke="#C99A68" stroke-width="1.60308" mask="url(#path-116-inside-1_381_21781)"/>
</g>
</g>
<rect x="120.779" y="0.547463" width="177.942" height="240.463" rx="9.21773" transform="rotate(30 120.779 0.547463)" stroke="#F4DFC8" stroke-width="0.801542"/>
<defs>
<clipPath id="clip0_381_21781">
<rect x="120.632" width="178.744" height="241.264" rx="9.61851" transform="rotate(30 120.632 0)" fill="white"/>
</clipPath>
<clipPath id="clip1_381_21781">
<rect x="121.326" y="0.401367" width="169.477" height="241.076" rx="9.61851" transform="rotate(30 121.326 0.401367)" fill="white"/>
</clipPath>
<clipPath id="clip2_381_21781">
<rect x="121.326" y="0.401367" width="169.477" height="240.99" rx="9.61851" transform="rotate(30 121.326 0.401367)" fill="white"/>
</clipPath>
</defs>
</svg>
