<svg width="77" height="68" viewBox="0 0 77 68" fill="none" xmlns="http://www.w3.org/2000/svg">
<path d="M19.0854 38.9915L19.082 39.0628L19.1051 39.1304L27.318 63.176L27.324 63.1936L27.3317 63.2105L27.6729 63.0548C27.3317 63.2105 27.3317 63.2106 27.3318 63.2106L27.3319 63.2108L27.3321 63.2114L27.333 63.2132L27.3357 63.2191L27.3456 63.2403C27.3542 63.2584 27.3666 63.2843 27.3826 63.3168C27.4145 63.3819 27.461 63.4739 27.5202 63.5839C27.6381 63.8032 27.8085 64.0979 28.0166 64.3949C28.223 64.6895 28.476 64.9998 28.7618 65.2401C29.0427 65.4763 29.397 65.6796 29.7992 65.6796C29.9344 65.6796 30.0555 65.62 30.1239 65.5831C30.2084 65.5375 30.3011 65.4759 30.3978 65.4052C30.5924 65.2628 30.8348 65.0603 31.1143 64.8113C31.6748 64.312 32.4099 63.603 33.2552 62.7579C34.9473 61.0665 37.0978 58.8135 39.2114 56.5633C41.3256 54.3124 43.4052 52.0618 44.9561 50.3741C45.7315 49.5302 46.3749 48.827 46.8245 48.3346C47.0492 48.0885 47.2256 47.895 47.3457 47.7631L47.4828 47.6125L47.518 47.5738L47.5269 47.564L47.5292 47.5616L47.5297 47.5609C47.5299 47.5608 47.5299 47.5607 47.2524 47.3085L47.5299 47.5607L47.5658 47.5213L47.5892 47.4734L65.775 10.3182L66.26 9.32736L65.2717 9.81734L19.5864 32.4662L19.3888 32.5642L19.3784 32.7845L19.0854 38.9915Z" fill="#5EEAD4" stroke="#042F2E" stroke-width="0.75"/>
<mask id="mask0_731_54" style="mask-type:alpha" maskUnits="userSpaceOnUse" x="19" y="10" width="47" height="56">
<path d="M28.0212 62.9145L19.8379 38.9555L20.1172 33.0402L64.6164 10.9793L46.939 47.0957L46.9281 47.1078L46.7912 47.2581C46.6713 47.3898 46.4952 47.583 46.2706 47.8289C45.8215 48.3208 45.1787 49.0234 44.4038 49.8667C42.854 51.5532 40.7764 53.8017 38.6648 56.0498C36.5525 58.2986 34.4085 60.5446 32.725 62.2275C31.8826 63.0696 31.1596 63.7665 30.6154 64.2513C30.3424 64.4945 30.1208 64.6785 29.955 64.7998C29.8715 64.8609 29.8099 64.9003 29.7681 64.9229C29.7648 64.9247 29.7617 64.9263 29.7589 64.9277C29.6182 64.9149 29.4456 64.8352 29.2444 64.666C29.0285 64.4845 28.8185 64.2324 28.6308 63.9645C28.4448 63.699 28.2897 63.4313 28.1807 63.2287C28.1265 63.1278 28.0842 63.0441 28.0557 62.9861C28.0415 62.9571 28.0307 62.9347 28.0237 62.9198L28.0212 62.9145ZM29.7349 64.9387C29.7348 64.9387 29.7357 64.9383 29.7375 64.9378C29.7358 64.9385 29.7349 64.9387 29.7349 64.9387Z" fill="#9CA3AF" stroke="black" stroke-width="0.75"/>
</mask>
<g mask="url(#mask0_731_54)">
<line x1="-136.455" y1="279.597" x2="288.856" y2="-145.714" stroke="#042F2E" stroke-width="0.75"/>
<line x1="-113.266" y1="293.022" x2="312.045" y2="-132.289" stroke="#042F2E" stroke-width="0.75"/>
<line x1="-123.639" y1="291.191" x2="301.672" y2="-134.12" stroke="#042F2E" stroke-width="0.75"/>
<line x1="-147.437" y1="266.172" x2="277.874" y2="-159.138" stroke="#042F2E" stroke-width="0.75"/>
<line x1="-126.081" y1="281.428" x2="299.23" y2="-143.883" stroke="#042F2E" stroke-width="0.75"/>
<line x1="-149.878" y1="256.411" x2="275.432" y2="-168.9" stroke="#042F2E" stroke-width="0.75"/>
<line x1="-137.064" y1="268.004" x2="288.247" y2="-157.306" stroke="#042F2E" stroke-width="0.75"/>
<line x1="-132.183" y1="281.428" x2="293.128" y2="-143.883" stroke="#042F2E" stroke-width="0.75"/>
<line x1="-155.98" y1="256.411" x2="269.331" y2="-168.9" stroke="#042F2E" stroke-width="0.75"/>
<line x1="-119.368" y1="293.022" x2="305.943" y2="-132.289" stroke="#042F2E" stroke-width="0.75"/>
<line x1="-143.166" y1="268.003" x2="282.145" y2="-157.307" stroke="#042F2E" stroke-width="0.75"/>
<line x1="-121.809" y1="283.258" x2="303.502" y2="-142.053" stroke="#042F2E" stroke-width="0.75"/>
<line x1="-145.607" y1="258.241" x2="279.704" y2="-167.07" stroke="#042F2E" stroke-width="0.75"/>
<line x1="-132.793" y1="269.834" x2="292.518" y2="-155.476" stroke="#042F2E" stroke-width="0.75"/>
<line x1="-134.013" y1="280.207" x2="291.298" y2="-145.103" stroke="#042F2E" stroke-width="0.75"/>
<line x1="-121.199" y1="291.801" x2="304.112" y2="-133.51" stroke="#042F2E" stroke-width="0.75"/>
<line x1="-144.997" y1="266.784" x2="280.314" y2="-158.527" stroke="#042F2E" stroke-width="0.75"/>
<line x1="-123.639" y1="282.038" x2="301.672" y2="-143.273" stroke="#042F2E" stroke-width="0.75"/>
<line x1="-147.437" y1="257.02" x2="277.874" y2="-168.291" stroke="#042F2E" stroke-width="0.75"/>
<line x1="-134.624" y1="268.614" x2="290.687" y2="-156.697" stroke="#042F2E" stroke-width="0.75"/>
<line x1="-129.742" y1="282.039" x2="295.569" y2="-143.272" stroke="#042F2E" stroke-width="0.75"/>
<line x1="-153.54" y1="257.02" x2="271.771" y2="-168.291" stroke="#042F2E" stroke-width="0.75"/>
<line x1="-116.927" y1="293.631" x2="308.384" y2="-131.679" stroke="#042F2E" stroke-width="0.75"/>
<line x1="-140.726" y1="268.614" x2="284.585" y2="-156.697" stroke="#042F2E" stroke-width="0.75"/>
<line x1="-119.368" y1="283.869" x2="305.943" y2="-141.442" stroke="#042F2E" stroke-width="0.75"/>
<line x1="-143.166" y1="258.851" x2="282.145" y2="-166.46" stroke="#042F2E" stroke-width="0.75"/>
<line x1="-130.352" y1="270.445" x2="294.959" y2="-154.866" stroke="#042F2E" stroke-width="0.75"/>
</g>
<mask id="path-30-outside-1_731_54" maskUnits="userSpaceOnUse" x="27.6904" y="43.9346" width="17" height="22" fill="black">
<rect fill="white" x="27.6904" y="43.9346" width="17" height="22"/>
<path d="M30.2946 44.9346L28.718 62.6585C28.718 62.6585 28.0581 68.0893 33.1911 62.6585C38.3241 57.2277 43.2373 53.0399 43.2373 53.0399"/>
</mask>
<path d="M30.2946 44.9346L28.718 62.6585C28.718 62.6585 28.0581 68.0893 33.1911 62.6585C38.3241 57.2277 43.2373 53.0399 43.2373 53.0399" fill="#5EEAD4"/>
<path d="M28.718 62.6585L29.4626 62.749L29.464 62.737L29.4651 62.7249L28.718 62.6585ZM29.5476 44.8681L27.971 62.592L29.4651 62.7249L31.0417 45.001L29.5476 44.8681ZM28.718 62.6585C27.9735 62.568 27.9735 62.5683 27.9734 62.5687C27.9734 62.5688 27.9734 62.5692 27.9733 62.5695C27.9733 62.57 27.9732 62.5707 27.9731 62.5714C27.9729 62.5729 27.9727 62.5747 27.9725 62.5768C27.972 62.581 27.9714 62.5866 27.9706 62.5934C27.9692 62.6069 27.9673 62.6255 27.9651 62.6486C27.9608 62.6947 27.9555 62.7591 27.951 62.8377C27.9419 62.9938 27.9353 63.2109 27.9458 63.4546C27.9651 63.8999 28.0457 64.5987 28.4159 65.126C28.6183 65.4144 28.9197 65.668 29.338 65.7726C29.7442 65.8743 30.1718 65.8132 30.5966 65.6494C31.4203 65.3316 32.437 64.5482 33.7362 63.1737L32.646 62.1433C31.3786 63.4842 30.553 64.0585 30.0568 64.2499C29.8216 64.3406 29.7199 64.3219 29.7021 64.3175C29.6965 64.3161 29.6794 64.3151 29.6435 64.2641C29.5371 64.1125 29.4618 63.793 29.4444 63.3898C29.4366 63.2092 29.4415 63.0445 29.4484 62.9248C29.4519 62.8655 29.4558 62.8185 29.4587 62.7877C29.4601 62.7723 29.4612 62.7611 29.462 62.7544C29.4623 62.7511 29.4626 62.749 29.4627 62.748C29.4627 62.7476 29.4627 62.7474 29.4627 62.7476C29.4627 62.7476 29.4627 62.7478 29.4627 62.748C29.4627 62.7481 29.4626 62.7484 29.4626 62.7484C29.4626 62.7487 29.4626 62.749 28.718 62.6585ZM33.7362 63.1737C36.2876 60.4742 38.7862 58.0818 40.6477 56.3638C41.5781 55.5051 42.3485 54.8156 42.8858 54.3413C43.1543 54.1042 43.3646 53.9209 43.5073 53.7972C43.5787 53.7354 43.6332 53.6884 43.6696 53.6571C43.6879 53.6414 43.7016 53.6296 43.7107 53.6219C43.7152 53.618 43.7186 53.6151 43.7208 53.6132C43.7219 53.6123 43.7227 53.6116 43.7232 53.6112C43.7234 53.611 43.7236 53.6108 43.7237 53.6107C43.7238 53.6107 43.7238 53.6107 43.7238 53.6107C43.7238 53.6107 43.7238 53.6107 43.2373 53.0399C42.7508 52.4691 42.7507 52.4691 42.7506 52.4692C42.7506 52.4692 42.7505 52.4693 42.7504 52.4694C42.7502 52.4696 42.7499 52.4698 42.7496 52.4701C42.7489 52.4707 42.7479 52.4715 42.7466 52.4726C42.744 52.4748 42.7403 52.478 42.7354 52.4822C42.7255 52.4906 42.7111 52.5031 42.692 52.5194C42.654 52.5521 42.5979 52.6004 42.5249 52.6637C42.3789 52.7902 42.1652 52.9765 41.893 53.2168C41.3486 53.6975 40.5699 54.3944 39.6304 55.2615C37.7521 56.995 35.2276 59.412 32.646 62.1433L33.7362 63.1737Z" fill="#042F2E" mask="url(#path-30-outside-1_731_54)"/>
<mask id="mask1_731_54" style="mask-type:alpha" maskUnits="userSpaceOnUse" x="28" y="44" width="16" height="22">
<mask id="path-32-inside-2_731_54" fill="white">
<path d="M30.2936 44.9346L28.7171 62.6585C28.7171 62.6585 28.0571 68.0893 33.1901 62.6585C38.3231 57.2277 43.2363 53.0399 43.2363 53.0399"/>
</mask>
<path d="M30.2936 44.9346L28.7171 62.6585C28.7171 62.6585 28.0571 68.0893 33.1901 62.6585C38.3231 57.2277 43.2363 53.0399 43.2363 53.0399" fill="#9CA3AF"/>
<path d="M28.7171 62.6585L29.4616 62.749L29.463 62.737L29.4641 62.7249L28.7171 62.6585ZM29.5466 44.8681L27.97 62.592L29.4641 62.7249L31.0407 45.001L29.5466 44.8681ZM28.7171 62.6585C27.9725 62.568 27.9725 62.5683 27.9725 62.5687C27.9724 62.5688 27.9724 62.5692 27.9724 62.5695C27.9723 62.57 27.9722 62.5707 27.9721 62.5714C27.972 62.5729 27.9718 62.5747 27.9715 62.5768C27.971 62.581 27.9704 62.5866 27.9697 62.5934C27.9682 62.6069 27.9663 62.6255 27.9641 62.6486C27.9598 62.6947 27.9546 62.7591 27.95 62.8377C27.9409 62.9938 27.9343 63.2109 27.9448 63.4546C27.9641 63.8999 28.0447 64.5987 28.4149 65.126C28.6174 65.4144 28.9187 65.668 29.3371 65.7726C29.7432 65.8743 30.1709 65.8132 30.5956 65.6494C31.4193 65.3316 32.4361 64.5482 33.7352 63.1737L32.645 62.1433C31.3777 63.4842 30.552 64.0585 30.0558 64.2499C29.8206 64.3406 29.7189 64.3219 29.7011 64.3175C29.6955 64.3161 29.6784 64.3151 29.6425 64.2641C29.5361 64.1125 29.4609 63.793 29.4435 63.3898C29.4356 63.2092 29.4405 63.0445 29.4475 62.9248C29.4509 62.8655 29.4548 62.8185 29.4577 62.7877C29.4591 62.7723 29.4603 62.7611 29.461 62.7544C29.4613 62.7511 29.4616 62.749 29.4617 62.748C29.4618 62.7476 29.4618 62.7474 29.4618 62.7476C29.4617 62.7476 29.4617 62.7478 29.4617 62.748C29.4617 62.7481 29.4617 62.7484 29.4617 62.7484C29.4616 62.7487 29.4616 62.749 28.7171 62.6585ZM33.7352 63.1737C36.2866 60.4742 38.7852 58.0818 40.6467 56.3638C41.5772 55.5051 42.3476 54.8156 42.8848 54.3413C43.1534 54.1042 43.3636 53.9209 43.5063 53.7972C43.5777 53.7354 43.6322 53.6884 43.6687 53.6571C43.6869 53.6414 43.7006 53.6296 43.7097 53.6219C43.7142 53.618 43.7176 53.6151 43.7198 53.6132C43.7209 53.6123 43.7217 53.6116 43.7222 53.6112C43.7224 53.611 43.7226 53.6108 43.7227 53.6107C43.7228 53.6107 43.7228 53.6107 43.7228 53.6107C43.7228 53.6107 43.7228 53.6107 43.2363 53.0399C42.7498 52.4691 42.7497 52.4691 42.7497 52.4692C42.7496 52.4692 42.7495 52.4693 42.7494 52.4694C42.7492 52.4696 42.7489 52.4698 42.7486 52.4701C42.7479 52.4707 42.7469 52.4715 42.7456 52.4726C42.7431 52.4748 42.7393 52.478 42.7344 52.4822C42.7246 52.4906 42.7101 52.5031 42.6911 52.5194C42.6531 52.5521 42.597 52.6004 42.524 52.6637C42.378 52.7902 42.1643 52.9765 41.892 53.2168C41.3476 53.6975 40.5689 54.3944 39.6294 55.2615C37.7511 56.995 35.2266 59.412 32.645 62.1433L33.7352 63.1737Z" fill="black" mask="url(#path-32-inside-2_731_54)"/>
</mask>
<g mask="url(#mask1_731_54)">
<line x1="33.7915" y1="96.5366" x2="459.102" y2="-328.774" stroke="#042F2E" stroke-width="0.75"/>
<line x1="31.351" y1="86.7729" x2="456.662" y2="-338.538" stroke="#042F2E" stroke-width="0.75"/>
<line x1="25.2495" y1="86.7739" x2="450.56" y2="-338.537" stroke="#042F2E" stroke-width="0.75"/>
<line x1="38.063" y1="98.3676" x2="463.374" y2="-326.943" stroke="#042F2E" stroke-width="0.75"/>
<line x1="35.6225" y1="88.604" x2="460.933" y2="-336.707" stroke="#042F2E" stroke-width="0.75"/>
<line x1="36.2329" y1="97.1469" x2="461.544" y2="-328.164" stroke="#042F2E" stroke-width="0.75"/>
<line x1="33.7915" y1="87.3833" x2="459.102" y2="-337.928" stroke="#042F2E" stroke-width="0.75"/>
<line x1="27.6899" y1="87.3833" x2="453.001" y2="-337.928" stroke="#042F2E" stroke-width="0.75"/>
<line x1="40.5044" y1="98.977" x2="465.815" y2="-326.334" stroke="#042F2E" stroke-width="0.75"/>
<line x1="38.063" y1="89.2143" x2="463.374" y2="-336.096" stroke="#042F2E" stroke-width="0.75"/>
</g>
<path d="M71.6259 1.37147C71.4927 1.02095 71.4924 1.02105 71.4919 1.02124L71.4897 1.02209L71.4807 1.0255L71.4451 1.03904L71.3044 1.09255L70.7555 1.30155C70.2744 1.48476 69.5685 1.75382 68.6686 2.09724C66.869 2.78407 64.2939 3.76831 61.1922 4.95803C54.9887 7.33744 46.6782 10.5388 38.2506 13.8265C29.8233 17.1141 21.2775 20.4885 14.6037 23.2139C11.2671 24.5765 8.39625 25.7777 6.24132 26.7252C5.1641 27.1989 4.2631 27.6103 3.57113 27.9475C2.8897 28.2795 2.38436 28.5521 2.11859 28.7479C1.29273 29.3538 0.944237 29.7565 0.772966 30.2749C0.395502 31.4157 0.800874 32.2612 1.29314 32.7985C1.53414 33.0615 1.79527 33.2518 1.99385 33.3759C2.09381 33.4384 2.17972 33.4852 2.24193 33.517C2.27308 33.5329 2.29844 33.5451 2.31682 33.5536L2.33904 33.5638L2.34598 33.5669L2.34837 33.5679L2.34928 33.5683L2.34967 33.5685C2.34984 33.5686 2.35001 33.5686 2.4979 33.224L2.35001 33.5686L2.36267 33.5741L2.37571 33.5785L19.2699 39.4011L19.2965 39.4103L19.3242 39.4154C19.6699 39.479 20.0249 39.4561 20.3602 39.3488L20.4104 39.3327L20.4542 39.3035L20.4653 39.296C22.4127 37.9952 32.0591 31.5516 41.4769 25.3305C46.1949 22.2138 50.8547 19.1536 54.4601 16.824C56.263 15.659 57.8008 14.6777 58.9498 13.9636C59.5246 13.6064 60.0002 13.3172 60.3622 13.1058C60.6143 12.9586 60.7998 12.856 60.9221 12.7939C60.8533 12.9139 60.7549 13.0664 60.6213 13.2536C60.3644 13.6135 60.0058 14.063 59.557 14.5909C58.66 15.6459 57.4184 16.9954 55.946 18.5364C53.0021 21.6172 49.15 25.4479 45.3202 29.188C41.491 32.9276 37.6867 36.5741 34.8395 39.2859C33.416 40.6418 32.2318 41.7639 31.4036 42.547C30.9894 42.9386 30.6643 43.2453 30.4427 43.4542L30.1899 43.6925L30.1251 43.7534L30.1087 43.7688L30.1046 43.7727L30.1036 43.7736C30.1034 43.7739 30.1033 43.774 30.3601 44.0472M71.6259 1.37147C71.5 1.01824 71.5001 1.01821 71.5002 1.01818L71.5004 1.01811L71.5009 1.01792L71.5025 1.01737L71.5076 1.01557L71.5257 1.00933C71.5411 1.00405 71.5632 0.996605 71.5914 0.987428C71.6477 0.969083 71.7284 0.943759 71.8282 0.914959C72.0273 0.857499 72.3052 0.785497 72.6199 0.727671C73.2248 0.616538 74.0465 0.541562 74.6964 0.798076C75.0279 0.909022 75.3237 1.10926 75.5553 1.37632C75.7886 1.64531 75.9488 1.97279 76.0218 2.32485C76.1461 2.8702 76.1982 3.43094 76.1768 3.99116C76.1733 4.28106 76.1509 4.56991 76.1253 4.89914C76.1098 5.09976 76.093 5.31539 76.0787 5.55539C75.9768 7.29261 75.1478 11.7798 73.9744 17.492C72.7977 23.2202 71.2665 30.2173 69.7481 36.9997C68.2297 43.7825 66.7238 50.3522 65.5975 55.226C65.0344 57.663 64.5661 59.676 64.2387 61.0799C64.0749 61.7818 63.9464 62.3315 63.8588 62.7057L63.7588 63.1324L63.7331 63.2417L63.7266 63.2693L63.725 63.2763L63.7246 63.278C63.7245 63.2784 63.7244 63.2786 63.3594 63.1929M71.6259 1.37147L71.4927 1.02095L71.5 1.01816L71.6259 1.37147ZM63.3594 63.1929C63.724 63.2804 63.724 63.2806 63.7239 63.2808L63.7238 63.2812L63.7236 63.2821L63.7229 63.2849L63.7207 63.2937L63.7129 63.3236C63.7061 63.3488 63.6962 63.3844 63.6828 63.429C63.656 63.518 63.6152 63.6433 63.5581 63.793C63.4442 64.0914 63.2634 64.4926 62.995 64.8997C62.4592 65.7124 61.5449 66.5873 60.0988 66.6448L60.0967 66.6449C59.414 66.6682 58.7343 66.5459 58.0984 66.2857C57.4661 66.0269 56.8907 65.6375 56.4054 65.1415C51.3914 60.5831 34.0658 48.2656 30.218 45.5432L30.2153 45.5413C30.0844 45.4469 29.9757 45.3251 29.8954 45.1852C29.8173 45.049 29.7675 44.8981 29.7484 44.7422C29.7033 44.4714 29.816 44.2194 29.8894 44.0827C29.932 44.0034 29.976 43.9368 30.0091 43.8901C30.0259 43.8665 30.0403 43.8473 30.0511 43.8334L30.0645 43.8164L30.0688 43.811L30.0704 43.8091L30.071 43.8083L30.0713 43.808L30.0714 43.8078C30.0715 43.8078 30.0715 43.8077 30.3601 44.0472M63.3594 63.1929L63.7244 63.2786L63.724 63.2804L63.3594 63.1929ZM30.3601 44.0472L30.0715 43.8077L30.0864 43.7898L30.1033 43.774L30.3601 44.0472Z" fill="#5EEAD4" stroke="#042F2E" stroke-width="0.75"/>
</svg>
