<svg width="48" height="48" viewBox="0 0 48 48" fill="none" xmlns="http://www.w3.org/2000/svg">
<g clip-path="url(#clip0_347_13950)">
<rect width="48" height="48" rx="12" fill="#374151"/>
<path d="M71.2829 24.5594C71.7923 24.4204 72.1413 25.0634 71.7472 25.4149L42.6424 51.3733C42.5508 51.455 42.4324 51.5001 42.3096 51.5001L0.50019 51.5001C0.224044 51.5001 0.000189566 51.2763 0.000189578 51.0001L0.000189868 44.382C0.000189877 44.1565 0.151099 43.959 0.368629 43.8996L71.2829 24.5594Z" fill="#5EEAD4"/>
<path d="M20.0002 10H16V38H20L20.0002 10Z" fill="#F9FAFB"/>
<path d="M21.0002 23.24L21 26.7998H34L34.04 23.24H21.0002Z" fill="#F9FAFB"/>
<path d="M21.0002 13.7998V10H35.76V13.7998H21.0002Z" fill="#F9FAFB"/>
</g>
<defs>
<clipPath id="clip0_347_13950">
<rect width="48" height="48" rx="12" fill="white"/>
</clipPath>
</defs>
</svg>
